<?xml version="1.0" encoding="UTF-8" standalone="no"?>
<!DOCTYPE svg PUBLIC "-//W3C//DTD SVG 1.1//EN" "http://www.w3.org/Graphics/SVG/1.1/DTD/svg11.dtd">
<svg width="100%" height="100%" viewBox="0 0 2732 2048" version="1.1" xmlns="http://www.w3.org/2000/svg" xmlns:xlink="http://www.w3.org/1999/xlink" xml:space="preserve" xmlns:serif="http://www.serif.com/" style="fill-rule:evenodd;clip-rule:evenodd;stroke-linecap:round;stroke-linejoin:round;stroke-miterlimit:1.5;">
    <g transform="matrix(1.21912,0,0,1.26915,33.8506,-358.372)">
        <g id="_10---BIKE" serif:id="10 - BIKE">
            <path id="CURVE" d="M285.234,1701.27L1947.12,1701.27L1947.12,1213.79C1947.12,1213.79 1760.48,1207.28 1614.25,1437.83C1585.75,1482.76 1512.06,1544.43 1395.83,1539.59C1367.21,1538.39 1324.88,1518.3 1285.58,1497.13C1221.16,1462.42 1143.38,1459.25 1076.13,1488.59C1065.13,1493.39 1053.67,1498.73 1041.88,1504.67C1001.15,1525.19 926.228,1555.97 870.23,1525.17C869.643,1524.85 869.052,1524.53 868.456,1524.23C858.121,1518.9 750.142,1463.36 656.03,1414.96C557.208,1364.13 434.515,1390.89 368.231,1477.73C322.991,1536.95 284.841,1613.11 285.234,1701.27Z" style="fill:rgb(255,195,187);"/>
            <path id="GRAPH-LINE-" serif:id="GRAPH LINE " d="M297.783,826.945C297.357,826.994 296.925,827.019 296.487,827.019C290.276,827.019 285.234,821.977 285.234,815.766C285.234,809.555 290.276,804.513 296.487,804.513C302.698,804.513 307.741,809.555 307.741,815.766C307.741,819.396 306.018,822.626 303.348,824.684L603.23,1478.41C604.523,1477.89 605.935,1477.6 607.414,1477.6C610.22,1477.6 612.788,1478.63 614.76,1480.34L827.614,1246.34C827.381,1245.44 827.258,1244.5 827.258,1243.53C827.258,1237.31 832.3,1232.27 838.511,1232.27C844.722,1232.27 849.764,1237.31 849.764,1243.53C849.764,1244.76 849.567,1245.94 849.201,1247.05L1040.86,1457.33C1042.86,1455.54 1045.5,1454.45 1048.39,1454.45C1051.98,1454.45 1055.19,1456.14 1057.25,1458.77L1631.56,1048.5C1631.46,1047.89 1631.41,1047.26 1631.41,1046.61C1631.41,1040.4 1636.45,1035.36 1642.66,1035.36C1648.87,1035.36 1653.91,1040.4 1653.91,1046.61C1653.91,1048.46 1653.47,1050.21 1652.67,1051.75L1697.49,1126.06C1698.97,1125.35 1700.62,1124.95 1702.36,1124.95C1705.24,1124.95 1707.87,1126.04 1709.86,1127.82L1936.77,946.962C1936.19,945.606 1935.87,944.114 1935.87,942.547C1935.87,936.336 1940.91,931.293 1947.12,931.293C1953.34,931.293 1958.38,936.336 1958.38,942.547C1958.38,948.758 1953.34,953.8 1947.12,953.8C1944.65,953.8 1942.37,953.003 1940.51,951.652L1713.12,1132.9C1713.44,1133.94 1713.61,1135.05 1713.61,1136.2C1713.61,1142.41 1708.57,1147.46 1702.36,1147.46C1696.15,1147.46 1691.11,1142.41 1691.11,1136.2C1691.11,1133.95 1691.77,1131.84 1692.92,1130.08L1648.4,1056.29C1646.72,1057.29 1644.76,1057.87 1642.66,1057.87C1639.28,1057.87 1636.24,1056.37 1634.18,1054.01L1059.58,1464.48C1059.62,1464.88 1059.64,1465.29 1059.64,1465.7C1059.64,1471.91 1054.6,1476.95 1048.39,1476.95C1042.18,1476.95 1037.13,1471.91 1037.13,1465.7C1037.13,1464.63 1037.28,1463.6 1037.56,1462.62L845.734,1252.15C843.779,1253.79 841.259,1254.78 838.511,1254.78C835.537,1254.78 832.83,1253.62 830.818,1251.74L618.161,1485.51C618.49,1486.57 618.667,1487.69 618.667,1488.86C618.667,1495.07 613.624,1500.11 607.414,1500.11C601.203,1500.11 596.16,1495.07 596.16,1488.86C596.16,1486.35 596.979,1484.04 598.363,1482.17L297.783,826.945Z" style="fill:rgb(223,93,75);"/>
            <path id="ARROW" d="M1859.11,1614.94L1884.29,1568.85L1980.5,1713.98L1806.39,1711.48L1832.26,1664.1L577.751,1016.21L479.222,1177.34L389.595,1136.58L285.234,1326.93L285.234,1212.47L368.007,1065.25L457.297,1105.85L557.155,942.547L1859.11,1614.94Z" style="fill:rgb(234,112,73);"/>
            <path id="CLOUDS" d="M427.968,1224.8C427.968,1224.8 430.867,1218.68 431.081,1218.41C435.686,1212.72 441.461,1208 447.846,1204.43C460.267,1197.48 474.035,1198.29 487.625,1195.97C500.673,1193.74 512.813,1188.4 524.146,1181.68C543.105,1170.43 559.287,1154.37 579.14,1144.65C586.535,1141.03 594.477,1138.56 602.63,1137.39C650.571,1130.55 674.806,1171.8 714.152,1188.19C735.565,1197.11 755.524,1189.59 777.328,1202.1C791.63,1210.3 792.25,1224.8 792.25,1224.8L427.968,1224.8ZM1633.62,838.303C1634.74,830.269 1641.96,822.018 1643.32,820.859C1658.4,808.058 1677.35,812.534 1694.92,807.358C1729.45,797.189 1750.58,762.5 1785.88,753.868C1791.25,752.556 1796.9,751.718 1802.44,752.026C1838.19,754.017 1851.19,789.379 1880.45,803.259C1899.46,812.282 1917.48,810.268 1935.92,822.993C1945.54,829.634 1945.58,838.303 1945.58,838.303C1945.58,838.303 1713.37,838.681 1633.62,838.303ZM376.187,645.704C377.842,634.603 382.683,625.918 394.452,618.564C408.028,610.081 425.031,612.567 437.737,602.406C465.617,580.109 484.162,533.124 527.867,542.826C555.674,549 571.629,575.043 593.345,590.994C611.085,604.025 631.813,606.211 652.473,611.776C666.924,615.668 682.113,621.334 693.375,631.537C698.094,635.813 701.741,640.199 703.969,645.704C704.459,646.914 423.353,642.156 376.187,645.704Z" style="fill:rgb(255,241,232);"/>
            <g id="FRONT-WEEL" serif:id="FRONT WEEL">
                <g transform="matrix(1,0,0,1,439.413,300.263)">
                    <circle cx="921.449" cy="861.229" r="165.389" style="fill:rgb(255,205,128);"/>
                </g>
                <g transform="matrix(1.12653,0,0,1.12653,324.544,192.163)">
                    <path d="M1058.86,953.258C1052.64,962.509 1045.52,971.1 1037.62,978.902" style="fill:none;stroke:rgb(255,205,128);stroke-width:5.71px;"/>
                </g>
                <g>
                    <g transform="matrix(1.12653,0,0,1.12653,324.544,192.163)">
                        <path d="M1037.62,978.902C1021.27,995.048 1001.57,1007.82 979.668,1016.06" style="fill:none;stroke:rgb(255,205,128);stroke-width:5.71px;"/>
                    </g>
                    <g transform="matrix(1.12653,0,0,1.12653,324.544,192.163)">
                        <path d="M777.065,941.906C770.449,930.099 765.238,917.399 761.662,904.034C758.008,890.379 756.059,876.03 756.059,861.229" style="fill:none;stroke:rgb(255,205,128);stroke-width:5.71px;"/>
                    </g>
                    <g transform="matrix(1.12653,0,0,1.12653,324.544,192.163)">
                        <path d="M1019.84,728.315C1038.2,741.936 1053.65,759.268 1065.07,779.198" style="fill:none;stroke:rgb(255,205,128);stroke-width:5.71px;"/>
                    </g>
                </g>
                <g>
                    <g transform="matrix(0.872758,0,0,0.872758,556.66,409.848)">
                        <path d="M1082.26,861.229C1082.26,949.98 1010.2,1022.03 921.449,1022.03C832.697,1022.03 760.642,949.98 760.642,861.229C760.642,858.699 758.589,856.646 756.059,856.646C753.53,856.646 751.476,858.699 751.476,861.229C751.476,955.039 827.638,1031.2 921.449,1031.2C1015.26,1031.2 1091.42,955.039 1091.42,861.229C1091.42,858.699 1089.37,856.646 1086.84,856.646C1084.31,856.646 1082.26,858.699 1082.26,861.229Z" style="fill:rgb(253,163,31);"/>
                    </g>
                    <g transform="matrix(0.872758,0,0,0.872758,556.66,409.848)">
                        <path d="M760.642,861.229C760.642,772.477 832.697,700.423 921.449,700.423C1010.2,700.423 1082.26,772.477 1082.26,861.229C1082.26,863.758 1084.31,865.812 1086.84,865.812C1089.37,865.812 1091.42,863.758 1091.42,861.229C1091.42,767.418 1015.26,691.256 921.449,691.256C827.638,691.256 751.476,767.418 751.476,861.229C751.476,863.758 753.53,865.812 756.059,865.812C758.589,865.812 760.642,863.758 760.642,861.229Z" style="fill:rgb(253,163,31);"/>
                    </g>
                    <g>
                        <g transform="matrix(0.750143,0.764404,-0.610086,0.598704,694.344,-893.916)">
                            <path d="M1813.36,1001.02L1808.35,1001.02L1808.35,991.66L1817.09,991.66C1819.16,991.66 1820.83,993.756 1820.83,996.34L1820.83,1012.17C1828.48,1012.6 1835.82,1014.14 1842.84,1016.78C1851.81,1020.15 1860.27,1025.32 1868.21,1032.28C1869.11,1033.06 1869.68,1034.3 1869.79,1035.66C1869.89,1037.02 1869.52,1038.37 1868.76,1039.36L1851.92,1061.3C1850.65,1062.95 1848.62,1063.21 1847.11,1061.91C1839.28,1055.18 1830.52,1051.08 1820.83,1049.6L1820.83,1102.35C1856.92,1111.93 1874.26,1133.58 1873.77,1165.98C1873.56,1183.58 1868.33,1198.16 1858.14,1209.67C1848.83,1220.57 1836.41,1227.59 1820.83,1230.58L1820.83,1257.78C1820.83,1260.36 1819.16,1262.45 1817.09,1262.45L1808.51,1262.45L1808.51,1253.1L1813.36,1253.1L1813.36,1226.49C1813.36,1224.12 1814.77,1222.13 1816.65,1221.85C1831.98,1219.53 1844.13,1213.26 1853.09,1202.78C1861.73,1193.02 1866.12,1180.7 1866.3,1165.82C1866.74,1136.67 1849.77,1118.79 1816.39,1110.78C1814.63,1110.35 1813.36,1108.42 1813.36,1106.18L1813.36,1044.46C1813.36,1043.17 1813.79,1041.94 1814.54,1041.05C1815.29,1040.17 1816.3,1039.71 1817.33,1039.8C1828.9,1040.71 1839.35,1044.79 1848.67,1052.02L1860.27,1036.91C1854.07,1032.05 1847.55,1028.32 1840.69,1025.75C1833.2,1022.93 1825.33,1021.49 1817.06,1021.4C1815.01,1021.38 1813.36,1019.29 1813.36,1016.72L1813.36,1001.02ZM1820.83,1192.73C1826.26,1190.67 1830.23,1187.77 1832.62,1183.82C1834.11,1181.27 1835.2,1178.4 1835.89,1175.22L1843.1,1177.71C1842.15,1182.01 1840.66,1185.89 1838.61,1189.41C1834.69,1195.88 1827.84,1200.68 1817.87,1203.33C1816.77,1203.62 1815.62,1203.28 1814.74,1202.39C1813.87,1201.5 1813.36,1200.16 1813.36,1198.75L1813.36,1165.67L1820.83,1165.67L1820.83,1192.73ZM1779.95,1060.38C1781.26,1056.15 1782.97,1052.63 1785.04,1049.8C1785.09,1049.73 1785.15,1049.66 1785.2,1049.59C1789.87,1043.94 1795.42,1040.68 1801.83,1039.81C1802.88,1039.67 1803.94,1040.1 1804.73,1040.98C1805.52,1041.87 1805.97,1043.14 1805.97,1044.46L1805.97,1071.55L1798.5,1071.55L1798.5,1050.19C1795.52,1051.37 1792.85,1053.38 1790.48,1056.22C1789.01,1058.26 1787.83,1060.81 1786.89,1063.84C1786.87,1063.92 1786.84,1064 1786.81,1064.08C1785.68,1067.22 1785.16,1071.03 1785.16,1075.46L1777.69,1075.46C1777.69,1069.59 1778.47,1064.57 1779.95,1060.38Z" style="fill:rgb(253,163,31);"/>
                        </g>
                        <g transform="matrix(0.750143,0.764404,-0.610086,0.598704,694.344,-893.916)">
                            <path d="M1783.26,1095.07C1779.58,1089.81 1777.69,1083.29 1777.69,1075.46L1785.16,1075.46C1785.16,1080.83 1786.37,1085.33 1788.9,1088.93L1788.99,1089.06C1790.97,1092.1 1794.16,1094.5 1798.5,1096.46L1798.5,1071.55L1805.97,1071.55L1805.97,1102.78C1805.97,1104.23 1805.43,1105.6 1804.51,1106.49C1803.6,1107.37 1802.4,1107.68 1801.28,1107.31C1792.62,1104.45 1786.67,1100.24 1783.26,1095.07Z" style="fill:rgb(253,163,31);"/>
                        </g>
                        <g transform="matrix(0.750143,0.764404,-0.610086,0.598704,694.344,-893.916)">
                            <path d="M1820.83,1143.28L1820.83,1165.67L1813.36,1165.67L1813.36,1137.6C1813.36,1136.23 1813.84,1134.93 1814.67,1134.04C1815.51,1133.15 1816.61,1132.76 1817.69,1132.98C1828.12,1135.11 1835.08,1139.32 1838.8,1144.95L1838.88,1145.09C1842.5,1151.01 1844.33,1157.85 1844.33,1165.63C1844.33,1169.98 1843.91,1174.01 1843.1,1177.71L1835.89,1175.22C1836.54,1172.28 1836.86,1169.08 1836.86,1165.63C1836.86,1160.04 1835.58,1155.12 1833,1150.86C1830.66,1147.36 1826.57,1144.94 1820.83,1143.28Z" style="fill:rgb(253,163,31);"/>
                        </g>
                        <g transform="matrix(0.750143,0.764404,-0.610086,0.598704,694.344,-893.916)">
                            <path d="M1798.5,1137.85C1763.8,1128.18 1747.32,1107.1 1748.11,1075.93C1748.41,1057.14 1753.22,1042.45 1762.31,1031.75C1770.63,1021.96 1782.66,1015.49 1798.5,1012.61L1798.5,996.34C1798.5,993.756 1800.17,991.66 1802.23,991.66L1808.35,991.66L1808.35,1001.02L1805.97,1001.02L1805.97,1016.72C1805.97,1019.1 1804.55,1021.1 1802.66,1021.37C1787.11,1023.64 1775.33,1029.26 1767.42,1038.57C1759.72,1047.64 1755.84,1060.19 1755.58,1076.18C1754.87,1104.1 1771.01,1121.4 1802.97,1129.48C1804.71,1129.92 1805.97,1131.84 1805.97,1134.06L1805.97,1198.75C1805.97,1200.07 1805.52,1201.32 1804.75,1202.21C1803.97,1203.1 1802.93,1203.53 1801.88,1203.41C1792.53,1202.31 1784.61,1199.69 1778.13,1195.62C1772.43,1192.42 1767.33,1188.45 1762.82,1183.7L1748.51,1198.8C1755.42,1204.94 1763.08,1210.12 1771.46,1214.35C1781.24,1219.15 1791.51,1221.63 1802.28,1221.81C1804.33,1221.85 1805.97,1223.93 1805.97,1226.49L1805.97,1253.1L1808.51,1253.1L1808.51,1262.45L1802.23,1262.45C1800.17,1262.45 1798.5,1260.36 1798.5,1257.78L1798.5,1231.02C1788.14,1230.38 1778.22,1227.72 1768.71,1223.05C1758.08,1217.69 1748.59,1210.91 1740.2,1202.72C1739.32,1201.86 1738.79,1200.53 1738.77,1199.12C1738.74,1197.71 1739.23,1196.36 1740.09,1195.45L1760.48,1173.94C1761.92,1172.41 1764.06,1172.48 1765.44,1174.11C1769.95,1179.42 1775.23,1183.75 1781.25,1187.12L1781.41,1187.21C1786.21,1190.24 1791.91,1192.32 1798.5,1193.49L1798.5,1137.85Z" style="fill:rgb(253,163,31);"/>
                        </g>
                    </g>
                </g>
            </g>
            <g id="BACK-WEEL-" serif:id="BACK WEEL ">
                <g transform="matrix(0.75611,-0.654444,0.654444,0.75611,-945.95,896.961)">
                    <g transform="matrix(1,0,0,1,439.413,300.263)">
                        <circle cx="921.449" cy="861.229" r="165.389" style="fill:rgb(255,205,128);"/>
                    </g>
                    <g>
                        <g transform="matrix(0.872758,0,0,0.872758,556.66,409.848)">
                            <path d="M1082.26,861.229C1082.26,949.98 1010.2,1022.03 921.449,1022.03C832.697,1022.03 760.642,949.98 760.642,861.229C760.642,858.699 758.589,856.646 756.059,856.646C753.53,856.646 751.476,858.699 751.476,861.229C751.476,955.039 827.638,1031.2 921.449,1031.2C1015.26,1031.2 1091.42,955.039 1091.42,861.229C1091.42,858.699 1089.37,856.646 1086.84,856.646C1084.31,856.646 1082.26,858.699 1082.26,861.229Z" style="fill:rgb(253,163,31);"/>
                        </g>
                        <g transform="matrix(0.872758,0,0,0.872758,556.66,409.848)">
                            <path d="M760.642,861.229C760.642,772.477 832.697,700.423 921.449,700.423C1010.2,700.423 1082.26,772.477 1082.26,861.229C1082.26,863.758 1084.31,865.812 1086.84,865.812C1089.37,865.812 1091.42,863.758 1091.42,861.229C1091.42,767.418 1015.26,691.256 921.449,691.256C827.638,691.256 751.476,767.418 751.476,861.229C751.476,863.758 753.53,865.812 756.059,865.812C758.589,865.812 760.642,863.758 760.642,861.229Z" style="fill:rgb(253,163,31);"/>
                        </g>
                        <g transform="matrix(0.750143,0.764404,-0.610086,0.598704,694.344,-893.916)">
                            <path d="M1813.36,1001.02L1808.35,1001.02L1808.35,991.66L1817.09,991.66C1819.16,991.66 1820.83,993.756 1820.83,996.34L1820.83,1012.17C1828.48,1012.6 1835.82,1014.14 1842.84,1016.78C1851.81,1020.15 1860.27,1025.32 1868.21,1032.28C1869.11,1033.06 1869.68,1034.3 1869.79,1035.66C1869.89,1037.02 1869.52,1038.37 1868.76,1039.36L1851.92,1061.3C1850.65,1062.95 1848.62,1063.21 1847.11,1061.91C1839.28,1055.18 1830.52,1051.08 1820.83,1049.6L1820.83,1102.35C1856.92,1111.93 1874.26,1133.58 1873.77,1165.98C1873.56,1183.58 1868.33,1198.16 1858.14,1209.67C1848.83,1220.57 1836.41,1227.59 1820.83,1230.58L1820.83,1257.78C1820.83,1260.36 1819.16,1262.45 1817.09,1262.45L1808.51,1262.45L1808.51,1253.1L1813.36,1253.1L1813.36,1226.49C1813.36,1224.12 1814.77,1222.13 1816.65,1221.85C1831.98,1219.53 1844.13,1213.26 1853.09,1202.78C1861.73,1193.02 1866.12,1180.7 1866.3,1165.82C1866.74,1136.67 1849.77,1118.79 1816.39,1110.78C1814.63,1110.35 1813.36,1108.42 1813.36,1106.18L1813.36,1044.46C1813.36,1043.17 1813.79,1041.94 1814.54,1041.05C1815.29,1040.17 1816.3,1039.71 1817.33,1039.8C1828.9,1040.71 1839.35,1044.79 1848.67,1052.02L1860.27,1036.91C1854.07,1032.05 1847.55,1028.32 1840.69,1025.75C1833.2,1022.93 1825.33,1021.49 1817.06,1021.4C1815.01,1021.38 1813.36,1019.29 1813.36,1016.72L1813.36,1001.02ZM1820.83,1192.73C1826.26,1190.67 1830.23,1187.77 1832.62,1183.82C1834.11,1181.27 1835.2,1178.4 1835.89,1175.22L1843.1,1177.71C1842.15,1182.01 1840.66,1185.89 1838.61,1189.41C1834.69,1195.88 1827.84,1200.68 1817.87,1203.33C1816.77,1203.62 1815.62,1203.28 1814.74,1202.39C1813.87,1201.5 1813.36,1200.16 1813.36,1198.75L1813.36,1165.67L1820.83,1165.67L1820.83,1192.73ZM1779.95,1060.38C1781.26,1056.15 1782.97,1052.63 1785.04,1049.8C1785.09,1049.73 1785.15,1049.66 1785.2,1049.59C1789.87,1043.94 1795.42,1040.68 1801.83,1039.81C1802.88,1039.67 1803.94,1040.1 1804.73,1040.98C1805.52,1041.87 1805.97,1043.14 1805.97,1044.46L1805.97,1071.55L1798.5,1071.55L1798.5,1050.19C1795.52,1051.37 1792.85,1053.38 1790.48,1056.22C1789.01,1058.26 1787.83,1060.81 1786.89,1063.84C1786.87,1063.92 1786.84,1064 1786.81,1064.08C1785.68,1067.22 1785.16,1071.03 1785.16,1075.46L1777.69,1075.46C1777.69,1069.59 1778.47,1064.57 1779.95,1060.38Z" style="fill:rgb(253,163,31);"/>
                        </g>
                        <g transform="matrix(0.750143,0.764404,-0.610086,0.598704,694.344,-893.916)">
                            <path d="M1783.26,1095.07C1779.58,1089.81 1777.69,1083.29 1777.69,1075.46L1785.16,1075.46C1785.16,1080.83 1786.37,1085.33 1788.9,1088.93L1788.99,1089.06C1790.97,1092.1 1794.16,1094.5 1798.5,1096.46L1798.5,1071.55L1805.97,1071.55L1805.97,1102.78C1805.97,1104.23 1805.43,1105.6 1804.51,1106.49C1803.6,1107.37 1802.4,1107.68 1801.28,1107.31C1792.62,1104.45 1786.67,1100.24 1783.26,1095.07Z" style="fill:rgb(253,163,31);"/>
                        </g>
                        <g transform="matrix(0.750143,0.764404,-0.610086,0.598704,694.344,-893.916)">
                            <path d="M1820.83,1143.28L1820.83,1165.67L1813.36,1165.67L1813.36,1137.6C1813.36,1136.23 1813.84,1134.93 1814.67,1134.04C1815.51,1133.15 1816.61,1132.76 1817.69,1132.98C1828.12,1135.11 1835.08,1139.32 1838.8,1144.95L1838.88,1145.09C1842.5,1151.01 1844.33,1157.85 1844.33,1165.63C1844.33,1169.98 1843.91,1174.01 1843.1,1177.71L1835.89,1175.22C1836.54,1172.28 1836.86,1169.08 1836.86,1165.63C1836.86,1160.04 1835.58,1155.12 1833,1150.86C1830.66,1147.36 1826.57,1144.94 1820.83,1143.28Z" style="fill:rgb(253,163,31);"/>
                        </g>
                        <g transform="matrix(0.750143,0.764404,-0.610086,0.598704,694.344,-893.916)">
                            <path d="M1798.5,1137.85C1763.8,1128.18 1747.32,1107.1 1748.11,1075.93C1748.41,1057.14 1753.22,1042.45 1762.31,1031.75C1770.63,1021.96 1782.66,1015.49 1798.5,1012.61L1798.5,996.34C1798.5,993.756 1800.17,991.66 1802.23,991.66L1808.35,991.66L1808.35,1001.02L1805.97,1001.02L1805.97,1016.72C1805.97,1019.1 1804.55,1021.1 1802.66,1021.37C1787.11,1023.64 1775.33,1029.26 1767.42,1038.57C1759.72,1047.64 1755.84,1060.19 1755.58,1076.18C1754.87,1104.1 1771.01,1121.4 1802.97,1129.48C1804.71,1129.92 1805.97,1131.84 1805.97,1134.06L1805.97,1198.75C1805.97,1200.07 1805.52,1201.32 1804.75,1202.21C1803.97,1203.1 1802.93,1203.53 1801.88,1203.41C1792.53,1202.31 1784.61,1199.69 1778.13,1195.62C1772.43,1192.42 1767.33,1188.45 1762.82,1183.7L1748.51,1198.8C1755.42,1204.94 1763.08,1210.12 1771.46,1214.35C1781.24,1219.15 1791.51,1221.63 1802.28,1221.81C1804.33,1221.85 1805.97,1223.93 1805.97,1226.49L1805.97,1253.1L1808.51,1253.1L1808.51,1262.45L1802.23,1262.45C1800.17,1262.45 1798.5,1260.36 1798.5,1257.78L1798.5,1231.02C1788.14,1230.38 1778.22,1227.72 1768.71,1223.05C1758.08,1217.69 1748.59,1210.91 1740.2,1202.72C1739.32,1201.86 1738.79,1200.53 1738.77,1199.12C1738.74,1197.71 1739.23,1196.36 1740.09,1195.45L1760.48,1173.94C1761.92,1172.41 1764.06,1172.48 1765.44,1174.11C1769.95,1179.42 1775.23,1183.75 1781.25,1187.12L1781.41,1187.21C1786.21,1190.24 1791.91,1192.32 1798.5,1193.49L1798.5,1137.85Z" style="fill:rgb(253,163,31);"/>
                        </g>
                    </g>
                </g>
                <g transform="matrix(-0.602304,-0.798267,0.798267,-0.602304,734.308,2671.72)">
                    <g transform="matrix(1.12653,0,0,1.12653,324.544,192.163)">
                        <path d="M1037.62,978.902C1021.27,995.048 1001.57,1007.82 979.668,1016.06" style="fill:none;stroke:rgb(255,205,128);stroke-width:5.6px;"/>
                    </g>
                    <g transform="matrix(0.965363,0.580646,-0.580646,0.965363,973.666,-207.948)">
                        <path d="M777.065,941.906C770.449,930.099 765.238,917.399 761.662,904.034C758.008,890.379 756.059,876.03 756.059,861.229" style="fill:none;stroke:rgb(255,205,128);stroke-width:5.68px;"/>
                    </g>
                    <g transform="matrix(1.12653,0,0,1.12653,324.544,192.163)">
                        <path d="M1019.84,728.315C1038.2,741.936 1053.65,759.268 1065.07,779.198" style="fill:none;stroke:rgb(255,205,128);stroke-width:5.6px;"/>
                    </g>
                </g>
            </g>
            <g id="Character-on-Bike-" serif:id="Character on Bike ">
                <g>
                    <path d="M1038.79,909.78L1040.25,917.711C1044.57,919.344 1047.32,923.829 1046.59,928.577C1046.22,930.976 1045.03,933.045 1043.34,934.539L1046.54,951.933L1046.62,952.442L1046.67,952.948L1046.7,953.452L1046.7,953.952L1046.68,954.448L1046.63,954.939L1046.57,955.425L1046.47,955.904L1046.35,956.375L1046.21,956.839L1046.05,957.295L1045.87,957.741L1045.67,958.177L1045.44,958.602L1045.2,959.016L1044.94,959.417L1044.66,959.806L1044.36,960.181L1044.04,960.541L1043.7,960.886L1043.35,961.215L1042.98,961.528L1042.6,961.823L1042.2,962.1L1041.79,962.358L1041.36,962.597L1040.91,962.815L1040.46,963.012L1039.99,963.188L1039.51,963.341L1039.02,963.471L1038.51,963.577L1038.01,963.657L1037.5,963.711L1036.99,963.739L1036.49,963.741L1036,963.719L1035.51,963.672L1035.02,963.602L1034.54,963.508L1034.07,963.391L1033.61,963.252L1033.15,963.091L1032.7,962.908L1032.27,962.705L1031.84,962.481L1031.43,962.238L1031.03,961.975L1030.64,961.693L1030.27,961.393L1029.9,961.075L1029.56,960.74L1029.23,960.388L1028.92,960.02L1028.62,959.636L1028.35,959.236L1028.09,958.822L1027.85,958.393L1027.63,957.951L1027.43,957.495L1027.26,957.027L1027.11,956.546L1026.97,956.054L1026.87,955.55C1026.87,955.55 1023.11,935.096 1023.11,935.096L836.412,906.488C832.511,905.89 829.326,903.053 828.282,899.246C827.239,895.44 828.532,891.376 831.584,888.872L990.617,758.39L970.388,648.376C969.39,642.948 972.986,637.73 978.414,636.732C983.843,635.734 989.06,639.331 990.058,644.759L1002.36,711.687C1002.69,711.819 1003,711.969 1003.31,712.138L1452.55,954.543L1466.92,923.79C1469.26,918.79 1475.21,916.627 1480.21,918.964C1485.22,921.3 1487.38,927.257 1485.04,932.257L1378.08,1161.18C1375.74,1166.18 1369.78,1168.34 1364.78,1166.01C1359.78,1163.67 1357.62,1157.71 1359.95,1152.71L1431.07,1000.53L1038.79,909.78ZM1034.85,888.339L1439.72,982.005L1444.07,972.693L1006.99,736.847L1034.85,888.339ZM1016.34,898.268L994.75,780.868L861.601,890.114L1019.28,914.276L1016.39,898.563C1016.37,898.465 1016.35,898.367 1016.34,898.268Z" style="fill:rgb(234,112,73);"/>
                    <path d="M1501.95,928.115C1504,924.069 1502.37,919.125 1498.32,917.082L1454.46,894.934C1450.42,892.891 1445.47,894.517 1443.43,898.563L1436.03,913.225C1433.98,917.271 1435.61,922.215 1439.66,924.258L1483.52,946.406C1487.56,948.449 1492.51,946.823 1494.55,942.777L1501.95,928.115ZM1039.24,670.717C1043.74,661.817 1040.16,650.94 1031.26,646.441L942.492,601.566C933.593,597.068 922.715,600.64 918.217,609.54C913.718,618.439 917.291,629.316 926.19,633.815L1014.96,678.69C1023.86,683.189 1034.74,679.616 1039.24,670.717Z"/>
                </g>
                <g>
                    <path d="M1160.82,1045.87C1130.32,1091.46 1103.14,1110.49 1103.14,1110.49C1116.73,1119.88 1120.23,1136.05 1116.52,1145.27L962.267,1049.93C1036.93,949.166 1039.4,884.048 1035.8,857.873C1009.38,665.584 1009.66,627.699 1018.31,593.716C1037.62,517.83 1079.95,493.326 1116.58,487.47C1159.11,480.704 1200.83,502.891 1219.12,541.573L1219.13,541.524L1219.2,541.727C1219.67,542.723 1220.12,543.728 1220.56,544.744C1225.85,557.037 1229.94,570.234 1232.89,583.464L1306.57,808.024C1332.13,885.95 1298.38,971.017 1226.34,1010.22L1160.82,1045.87Z" style="fill:rgb(168,207,204);"/>
                    <path d="M1231.31,576.799C1231.87,579.017 1232.39,581.24 1232.89,583.464L1244.55,618.987C1252.96,702.25 1260.01,893.234 1172.69,1039.41L1160.82,1045.87C1152.68,1058.03 1144.78,1068.31 1137.58,1076.83C1137.72,1076.4 1137.93,1075.99 1138.22,1075.62C1138.48,1075.29 1138.74,1074.96 1139,1074.62L1139.09,1074.51L1139.22,1074.35L1139.47,1074.02L1139.83,1073.55L1139.96,1073.39L1140.01,1073.32C1140.26,1072.99 1140.52,1072.66 1140.77,1072.33L1140.82,1072.27L1140.93,1072.12L1141.31,1071.62L1141.55,1071.31L1141.67,1071.15L1141.76,1071.03L1141.92,1070.81L1142.5,1070.05L1142.52,1070.02C1142.78,1069.68 1143.03,1069.35 1143.29,1069.01L1143.36,1068.9L1143.48,1068.75L1143.74,1068.39L1144.1,1067.91L1144.2,1067.77L1144.25,1067.71C1144.51,1067.37 1144.76,1067.02 1145.01,1066.68L1145.04,1066.64L1145.12,1066.54L1145.54,1065.96L1145.78,1065.63L1145.87,1065.51L1145.95,1065.4C1146.46,1064.7 1146.96,1064 1147.47,1063.3L1147.52,1063.23L1147.6,1063.13L1147.9,1062.7L1148.28,1062.17L1148.34,1062.09L1148.37,1062.05C1148.63,1061.68 1148.89,1061.32 1149.15,1060.95L1149.65,1060.24L1149.9,1059.88L1149.96,1059.8L1150.01,1059.73C1150.52,1059 1151.03,1058.27 1151.54,1057.54L1151.56,1057.5L1151.61,1057.44L1151.94,1056.95L1152.32,1056.4L1152.36,1056.35L1152.37,1056.32C1152.88,1055.59 1153.38,1054.85 1153.88,1054.11L1153.93,1054.03L1153.99,1053.96C1154.47,1053.23 1154.96,1052.51 1155.44,1051.79L1155.49,1051.71L1155.58,1051.57L1155.87,1051.14L1156.15,1050.71L1156.27,1050.54L1156.33,1050.45C1156.54,1050.12 1156.76,1049.8 1156.97,1049.47L1156.97,1049.47C1158.45,1047.22 1159.89,1044.96 1161.32,1042.69L1161.32,1042.69L1161.32,1042.69C1280.74,852.431 1231.22,578.578 1231.22,578.578C1231.11,577.966 1231.15,577.361 1231.31,576.799ZM1011.14,970.261L1161.32,1042.69L1161.32,1042.69L1156.67,1049.33L1156.97,1049.47L1156.33,1050.45L1156.15,1050.71L1155.58,1051.57L1155.44,1051.79L1154.71,1052.87L1153.99,1053.96L1153.88,1054.11L1153.15,1055.19L1152.37,1056.32L1152.32,1056.4L1151.61,1057.44L1151.54,1057.54L1150.76,1058.65L1150.01,1059.73L1149.9,1059.88L1149.16,1060.94L1149.15,1060.95L1148.37,1062.05L1148.28,1062.17L1147.6,1063.13L1147.47,1063.3L1146.7,1064.37L1145.95,1065.4L1145.78,1065.63L1145.12,1066.54L1145.01,1066.68L1144.25,1067.71L1144.1,1067.91L1143.48,1068.75L1143.29,1069.01L1142.52,1070.02L1142.5,1070.05L1141.76,1071.03L1141.55,1071.31L1140.93,1072.12L1140.77,1072.33L1140.01,1073.32L1139.83,1073.55L1139.22,1074.35L1139,1074.62L1138.22,1075.62L1156.67,1049.33L1007.62,977.446C1008.84,975.02 1010.01,972.627 1011.14,970.261Z" style="fill:rgb(130,181,178);"/>
                </g>
                <path d="M1445.48,983.337L1028.45,886.86C1023.08,885.616 1017.7,888.972 1016.46,894.349C1015.21,899.726 1018.57,905.102 1023.94,906.346L1440.97,1002.82C1446.35,1004.07 1451.73,1000.71 1452.97,995.334C1454.21,989.957 1450.86,984.581 1445.48,983.337ZM1455.03,955.877L1003.31,712.138C998.457,709.517 992.386,711.332 989.765,716.19C987.144,721.047 988.96,727.118 993.817,729.739L1445.53,973.478C1450.38,976.099 1456.46,974.284 1459.08,969.426C1461.7,964.569 1459.88,958.498 1455.03,955.877Z" style="fill:rgb(234,112,73);"/>
                <g>
                    <path d="M1208.35,521.165C1195.1,501.314 1173.02,488.479 1148.57,486.408C1108.89,482.989 1043.7,493.941 1018.31,593.716C1009.66,627.699 1009.38,665.584 1035.8,857.873C1039.4,884.048 1036.93,949.166 962.267,1049.93L1116.52,1145.27C1120.23,1136.05 1116.73,1119.88 1103.14,1110.49C1100.22,1114.91 1270.03,1006.25 1237.27,609.238C1234.77,579.024 1225.01,546.015 1208.35,521.165Z" style="fill:url(#_Linear1);"/>
                    <path d="M1012.68,966.981L1162.86,1043.55C1161.41,1045.87 1159.96,1048.13 1158.52,1050.32L1009.23,974.202C1010.43,971.762 1011.58,969.355 1012.68,966.981Z" style="fill:rgb(130,181,178);"/>
                </g>
                <g>
                    <g>
                        <path d="M1466.54,809.468C1492.65,767.198 1508.64,723.774 1520.64,679.894C1525.74,661.275 1525.48,641.675 1519.89,623.187C1507.64,582.607 1471.62,519.876 1366,508.391C1366,508.391 1361.42,507.983 1354.67,507.381C1318.69,504.176 1285.78,527.012 1277.64,560.831C1264.66,615.301 1266.58,693.074 1366,726.909C1366,726.909 1357.68,755.392 1349.71,782.642C1340.02,815.817 1353.17,851.259 1382.52,871.063C1417.79,894.881 1458.96,912.131 1501.8,920.239C1497.74,928.801 1495.76,932.236 1491.17,945.987C1490.22,948.833 1490.53,951.157 1491.48,953.086C1492.87,955.873 1495.6,957.824 1498.78,958.305C1501.96,958.786 1505.18,957.735 1507.39,955.494C1510.57,952.158 1513.39,948.316 1517.13,942.547C1517.13,942.547 1526.11,940.7 1535.1,938.85C1539.69,937.903 1543.69,935.192 1546.16,931.345C1548.62,927.499 1549.35,922.851 1548.16,918.48C1542.83,898.518 1537.18,874.098 1522.17,853.723C1507.43,833.708 1487.96,820.679 1466.54,809.468Z" style="fill:rgb(168,207,204);"/>
                        <path d="M1534.09,874.433C1537.58,882.228 1540.27,890.184 1542.56,897.93C1540.93,908.779 1536.74,923.072 1527.28,940.459L1517.13,942.547C1516.35,943.752 1515.61,944.872 1514.9,945.921C1514.97,945.747 1515.06,945.575 1515.16,945.408C1542.5,900.987 1534.29,876.117 1534.29,876.117C1534.1,875.559 1534.03,874.986 1534.09,874.433ZM1472.46,812.649C1461.02,807.029 1447.6,801.81 1432.82,797.42C1430.71,796.791 1429.5,794.563 1430.13,792.447C1430.76,790.33 1432.99,789.122 1435.1,789.751C1448.04,793.596 1459.97,798.067 1470.52,802.883C1469.22,805.083 1467.89,807.277 1466.54,809.468C1468.53,810.511 1470.5,811.569 1472.46,812.649Z" style="fill:rgb(130,181,178);"/>
                    </g>
                    <g>
                        <g transform="matrix(1,0,0,1,-1.91574,-12.7469)">
                            <circle cx="1592.38" cy="682.349" r="49.607" style="fill:rgb(168,207,204);"/>
                        </g>
                        <path d="M1572.35,666.771L1541.02,665.54C1543.09,640.06 1564.45,619.995 1590.46,619.995C1617.78,619.995 1639.97,642.13 1640.07,669.431L1583.85,667.222C1585.7,665.379 1586.88,662.626 1586.88,659.552C1586.88,654.006 1583.04,649.503 1578.31,649.503C1573.58,649.503 1569.74,654.006 1569.74,659.552C1569.74,662.384 1570.74,664.943 1572.35,666.771Z"/>
                    </g>
                    <g>
                        <path d="M1360.43,745.959L1366,726.909C1278.82,697.239 1266.61,633.786 1273.71,581.891C1279.93,536.691 1320.55,504.343 1366,508.391C1366,508.391 1366,508.391 1366,508.391C1435.1,515.904 1474.4,545.35 1496.75,576.185C1521.28,610.122 1528.66,653.525 1516.73,693.663C1507.53,724.899 1495.96,755.867 1479.81,786.306L1360.43,745.959Z" style="fill:url(#_Linear2);"/>
                        <path d="M1338.08,715.017L1381.95,663.344C1382.62,662.555 1383.75,662.348 1384.66,662.848C1385.56,663.348 1385.99,664.417 1385.68,665.404C1378.95,686.734 1364.08,733.884 1364.08,733.884L1363.97,733.87L1366,726.909C1355.67,723.393 1346.39,719.403 1338.08,715.017Z" style="fill:rgb(4,67,63);"/>
                    </g>
                </g>
            </g>
        </g>
    </g>
    <defs>
        <linearGradient id="_Linear1" x1="0" y1="0" x2="1" y2="0" gradientUnits="userSpaceOnUse" gradientTransform="matrix(13.5706,-452.62,471.195,13.0356,1049.32,795.526)"><stop offset="0" style="stop-color:rgb(168,207,204);stop-opacity:1"/><stop offset="0.6" style="stop-color:rgb(184,213,209);stop-opacity:1"/><stop offset="0.81" style="stop-color:rgb(219,227,220);stop-opacity:1"/><stop offset="1" style="stop-color:rgb(255,241,232);stop-opacity:1"/></linearGradient>
        <linearGradient id="_Linear2" x1="0" y1="0" x2="1" y2="0" gradientUnits="userSpaceOnUse" gradientTransform="matrix(8.41691,-297.098,309.291,8.0851,1397.17,647.178)"><stop offset="0" style="stop-color:rgb(130,181,178);stop-opacity:1"/><stop offset="1" style="stop-color:rgb(168,207,204);stop-opacity:1"/></linearGradient>
    </defs>
</svg>
