<?xml version="1.0" encoding="UTF-8" standalone="no"?>
<!DOCTYPE svg PUBLIC "-//W3C//DTD SVG 1.1//EN" "http://www.w3.org/Graphics/SVG/1.1/DTD/svg11.dtd">
<svg width="100%" height="100%" viewBox="0 0 2732 2048" version="1.1" xmlns="http://www.w3.org/2000/svg" xmlns:xlink="http://www.w3.org/1999/xlink" xml:space="preserve" xmlns:serif="http://www.serif.com/" style="fill-rule:evenodd;clip-rule:evenodd;stroke-linejoin:round;stroke-miterlimit:2;">
    <g transform="matrix(1,0,0,1,38.2908,2.29616)">
        <g id="_8---BUYING-A-HOUSE" serif:id="8 - BUYING A HOUSE">
            <g id="HOUSE">
                <g transform="matrix(0.999954,-0.00958821,0.00958821,0.999954,-13.3949,8.16454)">
                    <path d="M888.804,727.865L863.14,733.252L860.575,450.57L1749.19,233.531L1880.64,505.322L935.395,705.158L888.804,727.865Z"/>
                    <g transform="matrix(0.999954,0.00958821,-0.00958821,0.999954,13.4726,-8.03573)">
                        <path d="M1028.28,682.273L1018.1,684.527L932.012,429.968L942.088,427.405L1028.28,682.273ZM1045.09,401.197L1132.71,645.614C1133.68,648.307 1132.28,651.276 1129.58,652.242C1126.89,653.207 1123.92,651.805 1122.96,649.112L1035,403.765L1045.09,401.197ZM1172.27,368.839L1266.21,627.334C1266.48,628.056 1266.57,628.798 1266.51,629.518L1256.83,631.66C1256.69,631.413 1256.57,631.151 1256.47,630.875L1162.18,371.408L1172.27,368.839ZM1396.14,600.81L1385.97,603.063L1298.59,336.701L1308.66,334.139L1396.14,600.81ZM1333.18,327.899C1346.46,369.127 1401.37,539.524 1419.61,595.614L1409.44,597.865C1390.8,540.526 1335.97,370.346 1323.12,330.46L1333.18,327.899ZM1495.06,286.713L1579.61,538.134C1580.52,540.845 1579.06,543.786 1576.35,544.698C1573.63,545.61 1570.69,544.149 1569.78,541.438L1484.98,289.277L1495.06,286.713ZM1606.84,258.273L1701,515.231C1701.99,517.917 1700.61,520.896 1697.92,521.881C1695.23,522.865 1692.25,521.483 1691.27,518.797L1596.74,260.843L1606.84,258.273ZM1776.26,516.634L1766.04,518.897L1663.44,243.872L1673.55,241.301L1776.26,516.634Z" style="fill:rgb(210,210,213);"/>
                    </g>
                    <g transform="matrix(0.979049,-0.203627,0.203627,0.979049,-162.854,-327.961)">
                        <path d="M871.675,1234.65L1017.03,1234.32L1131.2,1130.22L1244.55,1233.79L1484.05,1233.24L1596.93,1130.31L1709,1232.72L1808.74,1232.49L1810.19,1856.79L805.213,1859.11L803.772,1235.42L803.749,1235.41L803.771,1235.29L803.77,1234.81L803.863,1234.81L849.871,994.176L871.675,1234.65Z" style="fill:rgb(210,210,213);"/>
                    </g>
                    <path d="M1176.27,552.317L1065.24,713.091L1042.2,697.179L1161.04,525.097C1165.38,518.819 1173.94,517.169 1180.3,521.388L1349.57,633.708L1334.08,657.039L1176.27,552.317Z"/>
                    <g transform="matrix(0.999874,-0.0158893,0.0158893,0.999874,446.181,-75.2827)">
                        <path d="M1176.27,552.317L1065.24,713.091L1042.2,697.179L1161.04,525.097C1165.38,518.819 1173.94,517.169 1180.3,521.388L1349.57,633.708L1334.08,657.039L1176.27,552.317Z"/>
                    </g>
                    <g transform="matrix(0.979049,-0.203627,0.203627,0.979049,-162.854,-327.961)">
                        <path d="M912.961,1858.86L902.961,1858.88L902.961,1234.58L912.961,1234.56L912.961,1858.86Z" style="fill:white;"/>
                    </g>
                    <g>
                        <g transform="matrix(1.19842,-0.251856,0.195675,0.931087,-559.235,227.046)">
                            <path d="M1404.25,886.56C1404.25,861.632 1396.55,837.725 1382.86,820.098C1369.16,802.471 1350.59,792.569 1331.22,792.569L1331.22,792.569C1311.85,792.569 1293.28,802.471 1279.58,820.098C1265.89,837.725 1258.19,861.632 1258.19,886.56L1258.19,1019.06L1404.25,1019.06L1404.25,886.56Z" style="fill:white;"/>
                        </g>
                        <g transform="matrix(0.979049,-0.203627,0.203627,0.979049,-162.854,-327.961)">
                            <path d="M1122.98,1213.69C1125.53,1213.46 1128.1,1213.35 1130.68,1213.34C1130.68,1213.34 1130.68,1213.34 1130.68,1213.34C1131.45,1213.34 1132.22,1213.35 1132.98,1213.36L1132.98,1277.56L1216.67,1277.56C1217.63,1280.84 1218.41,1284.18 1218.99,1287.56L1132.98,1287.56L1132.98,1353.25L1220.4,1353.25L1220.42,1363.25L1132.98,1363.25L1132.98,1428.83L1122.98,1428.85L1122.98,1363.25L1041.57,1363.25L1041.55,1353.25L1122.98,1353.25L1122.98,1287.56L1042.74,1287.56C1043.33,1284.18 1044.1,1280.84 1045.07,1277.56L1122.98,1277.56L1122.98,1213.69Z" style="fill:rgb(210,210,213);"/>
                        </g>
                        <g transform="matrix(0.979049,-0.203627,0.203627,0.979049,-162.854,-327.961)">
                            <path d="M1190.3,1309.75L1164.04,1337.88C1163.28,1338.69 1163.33,1339.96 1164.13,1340.71C1164.94,1341.46 1166.21,1341.42 1166.96,1340.61L1193.23,1312.48C1193.98,1311.68 1193.94,1310.41 1193.13,1309.66C1192.32,1308.9 1191.06,1308.95 1190.3,1309.75ZM1180.01,1307.83L1160.92,1327.58C1160.15,1328.37 1160.17,1329.63 1160.97,1330.4C1161.76,1331.17 1163.03,1331.15 1163.79,1330.36L1182.88,1310.61C1183.65,1309.82 1183.63,1308.55 1182.84,1307.78C1182.04,1307.02 1180.77,1307.04 1180.01,1307.83Z" style="fill:rgb(210,210,213);"/>
                        </g>
                    </g>
                    <g>
                        <g transform="matrix(1.46661,-0.30822,0.258704,1.231,-920.465,326.383)">
                            <path d="M1404.25,864.979C1404.25,824.988 1377.04,792.569 1343.47,792.569L1318.97,792.569C1285.41,792.569 1258.19,824.988 1258.19,864.979L1258.19,1019.06L1404.25,1019.06L1404.25,864.979Z" style="fill:white;"/>
                        </g>
                        <g transform="matrix(0.979049,-0.203627,0.203627,0.979049,-162.854,-327.961)">
                            <path d="M1129.55,1479.16C1173.05,1488.26 1205.76,1526.79 1205.85,1573L1206.25,1763.9L1013.28,1764.3L1013.27,1762.22L1196.25,1761.84L1195.85,1573.02C1195.75,1525.48 1157.13,1487.02 1109.59,1487.12C1103.98,1487.13 1098.34,1487.14 1092.73,1487.15C1073.11,1487.19 1055.04,1493.79 1040.58,1504.88C1056.93,1489.03 1079.2,1479.26 1103.77,1479.21L1129.55,1479.16Z" style="fill:rgb(210,210,213);"/>
                        </g>
                    </g>
                    <g>
                        <g transform="matrix(1.19842,-0.251856,0.195675,0.931087,-98.1925,132.86)">
                            <path d="M1404.25,886.56C1404.25,861.632 1396.55,837.725 1382.86,820.098C1369.16,802.471 1350.59,792.569 1331.22,792.569L1331.22,792.569C1311.85,792.569 1293.28,802.471 1279.58,820.098C1265.89,837.725 1258.19,861.632 1258.19,886.56L1258.19,1019.06L1404.25,1019.06L1404.25,886.56Z" style="fill:white;"/>
                        </g>
                        <g transform="matrix(0.979049,-0.203627,0.203627,0.979049,-162.854,-327.961)">
                            <path d="M1596.47,1215.14C1598.06,1215.06 1599.65,1215.01 1601.24,1215.01C1601.24,1215.01 1601.25,1215.01 1601.25,1215.01C1602.99,1215 1604.74,1215.05 1606.47,1215.15L1606.47,1277.56L1686.73,1277.56C1687.76,1280.84 1688.6,1284.18 1689.25,1287.56L1606.47,1287.56L1606.47,1353.25L1690.96,1353.25L1690.98,1363.25L1606.47,1363.25L1606.47,1430.49L1596.47,1430.51L1596.47,1363.25L1512.12,1363.25L1512.1,1353.25L1596.47,1353.25L1596.47,1287.56L1513.61,1287.56C1514.26,1284.18 1515.1,1280.84 1516.13,1277.56L1596.47,1277.56L1596.47,1215.14Z" style="fill:rgb(210,210,213);"/>
                        </g>
                        <g transform="matrix(0.979049,-0.203627,0.203627,0.979049,-162.854,-327.961)">
                            <path d="M1572.7,1307.73L1544.01,1333.41C1543.19,1334.15 1543.12,1335.41 1543.86,1336.23C1544.59,1337.06 1545.86,1337.13 1546.68,1336.39L1575.37,1310.71C1576.19,1309.98 1576.26,1308.71 1575.52,1307.89C1574.79,1307.07 1573.52,1307 1572.7,1307.73ZM1560.83,1305.22L1535.85,1327.47C1535.02,1328.2 1534.95,1329.47 1535.68,1330.3C1536.42,1331.12 1537.68,1331.19 1538.51,1330.46L1563.49,1308.21C1564.32,1307.48 1564.39,1306.21 1563.65,1305.39C1562.92,1304.56 1561.66,1304.49 1560.83,1305.22Z" style="fill:rgb(210,210,213);"/>
                        </g>
                    </g>
                    <g>
                        <g transform="matrix(0.767913,-0.163006,0.156056,0.735168,694.849,251.782)">
                            <rect x="1044.43" y="1044.56" width="189.283" height="257.318" style="fill:white;"/>
                        </g>
                        <g transform="matrix(0.979049,-0.203627,0.203627,0.979049,-162.854,-327.961)">
                            <path d="M1623.19,1716.98L1613.19,1717.02L1614.38,1523.62L1624.38,1523.58L1623.19,1716.98Z" style="fill:rgb(210,210,213);"/>
                        </g>
                    </g>
                    <g>
                        <g transform="matrix(0.767913,-0.163006,0.156056,0.735168,475.427,298.117)">
                            <rect x="1044.43" y="1044.56" width="189.283" height="257.318" style="fill:white;"/>
                        </g>
                        <g transform="matrix(0.979049,-0.203627,0.203627,0.979049,-162.854,-327.961)">
                            <path d="M1403.18,1717.64L1393.18,1717.68L1391.35,1524.3L1401.35,1524.26L1403.18,1717.64Z" style="fill:rgb(210,210,213);"/>
                        </g>
                    </g>
                    <g transform="matrix(0.979049,-0.203627,0.203627,0.979049,-162.854,-327.961)">
                        <path d="M875.217,1545.8L823.491,1559.91L823.491,1742.07L875.217,1764.3L875.217,1545.8ZM875.217,1262.19C875.217,1249.36 865.668,1238.53 852.936,1236.93C840.204,1235.32 828.267,1243.44 825.084,1255.88C825.083,1255.88 825.082,1255.89 825.081,1255.89C824.025,1260.02 823.491,1264.26 823.491,1268.51L823.491,1430.68L875.217,1409.76L875.217,1262.19Z" style="fill:white;"/>
                    </g>
                    <g transform="matrix(0.979049,-0.203627,0.203627,0.979049,-162.854,-327.961)">
                        <path d="M1013.19,1858.63L1013.19,1760.31C1013.19,1757.55 1015.43,1755.31 1018.19,1755.31C1020.95,1755.31 1023.19,1757.55 1023.19,1760.31L1023.19,1858.61L1013.19,1858.63ZM1090.76,1858.45L1090.76,1808.89L1054.4,1808.89C1054.03,1808.89 1053.66,1808.85 1053.3,1808.77C1052.76,1808.65 1052.25,1808.44 1051.78,1808.15L1051.77,1808.14C1049.74,1807.51 1048.27,1805.61 1048.27,1803.37L1048.27,1759.73C1048.27,1756.97 1050.51,1754.73 1053.27,1754.73C1056.03,1754.73 1058.27,1756.97 1058.27,1759.73L1058.27,1798.43L1095.8,1798.89L1271.52,1798.89L1271.52,1763.9L1218.25,1763.9C1215.49,1763.9 1213.25,1761.66 1213.25,1758.9C1213.25,1756.14 1215.49,1753.9 1218.25,1753.9L1276.52,1753.9C1279.28,1753.9 1281.52,1756.14 1281.52,1758.9L1281.52,1798.89L1315.6,1798.89C1318.36,1798.89 1320.6,1801.13 1320.6,1803.89L1320.6,1857.92L1310.6,1857.94L1310.6,1808.89L1100.76,1808.89L1100.76,1858.43L1090.76,1858.45Z" style="fill:white;"/>
                    </g>
                    <g>
                        <g transform="matrix(0.983393,-0.181488,0.156595,0.848505,-81.2767,367.443)">
                            <path d="M1477.52,729.825C1477.52,720.613 1474.36,711.778 1468.74,705.265C1463.12,698.751 1455.49,695.091 1447.55,695.091C1446.72,695.091 1445.89,695.091 1445.07,695.091C1437.12,695.091 1429.5,698.751 1423.88,705.265C1418.26,711.778 1415.1,720.613 1415.1,729.825C1415.1,754.475 1415.1,783.206 1415.1,783.206L1477.52,783.206L1477.52,729.825Z" style="fill:white;"/>
                        </g>
                        <g transform="matrix(0.979049,-0.203627,0.203627,0.979049,-162.854,-327.961)">
                            <path d="M1382.06,1359.93L1356.57,1387.49C1355.82,1388.3 1355.87,1389.56 1356.68,1390.31C1357.49,1391.06 1358.76,1391.01 1359.51,1390.2L1384.99,1362.65C1385.74,1361.84 1385.69,1360.57 1384.88,1359.82C1384.07,1359.07 1382.8,1359.12 1382.06,1359.93ZM1371.05,1357.63L1354.29,1375.34C1353.53,1376.14 1353.57,1377.41 1354.37,1378.17C1355.17,1378.93 1356.44,1378.89 1357.19,1378.09L1373.95,1360.38C1374.71,1359.57 1374.68,1358.31 1373.88,1357.55C1373.07,1356.79 1371.81,1356.82 1371.05,1357.63Z" style="fill:rgb(210,210,213);"/>
                        </g>
                    </g>
                </g>
                <g>
                    <path d="M1028.28,268.837C1028.28,268.837 986.288,268.813 1018.1,350.84L1077.85,336.481L1028.28,268.837Z" style="fill:rgb(128,177,174);"/>
                    <path d="M1018.1,271.059C1018.1,271.059 1051.94,263.628 1129.58,495.12L1554.03,394.189C1554.03,394.189 1503.39,192.436 1448.92,160.453L1018.1,271.059Z" style="fill:rgb(170,207,204);"/>
                    <g>
                        <g transform="matrix(1.59941,-0.711379,0.71447,1.60636,-874.005,720.224)">
                            <path d="M1134.96,301.869C1140.94,306.785 1148.05,309.277 1156.3,309.345C1166.06,309.208 1171.01,305.719 1171.15,298.879C1171.22,293.276 1167.95,289.908 1161.35,288.774C1158.33,288.361 1155.01,287.897 1151.4,287.381C1144.94,286.316 1140.03,283.927 1136.66,280.215C1133.18,276.399 1131.45,271.759 1131.45,266.294C1131.45,259.729 1133.63,254.435 1138,250.414C1142.23,246.427 1148.22,244.399 1155.99,244.33C1165.34,244.536 1173.47,247.131 1180.38,252.115L1174.04,261.499C1168.4,257.787 1162.2,255.862 1155.42,255.724C1151.92,255.724 1149,256.601 1146.66,258.354C1144.22,260.176 1142.96,262.891 1142.9,266.5C1142.9,268.666 1143.74,270.625 1145.42,272.378C1147.11,274.165 1149.81,275.403 1153.52,276.09C1155.58,276.434 1158.4,276.829 1161.97,277.276C1169.02,278.238 1174.23,280.765 1177.6,284.855C1180.93,288.877 1182.6,293.551 1182.6,298.879C1182.22,313.247 1173.42,320.534 1156.2,320.74C1145.06,320.74 1135.49,317.303 1127.48,310.428L1134.96,301.869Z" style="fill-rule:nonzero;"/>
                        </g>
                        <g transform="matrix(0.997551,-0.0699429,0.0699429,0.997551,-14.0824,86.2329)">
                            <path d="M1135.29,271.097L1178.59,431.431L1188.24,428.824L1144.94,268.49L1135.29,271.097Z"/>
                        </g>
                        <g transform="matrix(0.997551,-0.0699429,0.0699429,0.997551,2.44825,80.5396)">
                            <path d="M1135.29,271.097L1178.59,431.431L1188.24,428.824L1144.94,268.49L1135.29,271.097Z"/>
                        </g>
                    </g>
                    <g>
                        <g>
                            <g transform="matrix(0.96926,-0.246038,0.327642,0.948546,-51.5277,339.653)">
                                <path d="M1233.37,248.102L1337.86,248.102L1337.18,256.102L1229.02,256.102C1226.94,256.102 1225.34,254.509 1225.34,252.437L1225.34,231.521C1225.34,230.406 1225.81,229.303 1226.64,228.479C1227.46,227.655 1228.57,227.186 1229.69,227.186L1337.34,227.186L1336.67,235.186L1233.37,235.186L1233.37,248.102Z"/>
                            </g>
                            <g transform="matrix(0.96926,-0.246038,0.327642,0.948546,-51.5277,339.653)">
                                <path d="M1458.75,235.186L1336.67,235.186L1337.34,227.186L1463.1,227.186C1465.18,227.186 1466.78,228.779 1466.78,230.85L1466.78,251.766C1466.78,252.881 1466.31,253.985 1465.48,254.809C1464.65,255.633 1463.54,256.102 1462.42,256.102L1337.18,256.102L1337.86,248.102L1458.75,248.102L1458.75,235.186Z"/>
                            </g>
                        </g>
                        <g>
                            <g transform="matrix(1.05657,-0.268201,0.327642,0.948546,-152.237,413.793)">
                                <path d="M1233.04,248.102L1321.99,248.102L1321.37,256.102L1229.05,256.102C1227.14,256.102 1225.67,254.509 1225.67,252.437L1225.67,231.521C1225.67,230.406 1226.1,229.303 1226.86,228.479C1227.62,227.655 1228.64,227.186 1229.66,227.186L1328.48,227.186L1327.86,235.186L1233.04,235.186L1233.04,248.102Z"/>
                            </g>
                            <g transform="matrix(1.05657,-0.268201,0.327642,0.948546,-152.237,413.793)">
                                <path d="M1459.08,235.186L1327.86,235.186L1328.48,227.186L1463.07,227.186C1464.98,227.186 1466.44,228.779 1466.44,230.85L1466.44,251.766C1466.44,252.881 1466.01,253.985 1465.25,254.809C1464.5,255.633 1463.48,256.102 1462.45,256.102L1321.37,256.102L1321.99,248.102L1459.08,248.102L1459.08,235.186Z"/>
                            </g>
                        </g>
                        <g>
                            <g transform="matrix(0.905127,-0.229759,0.327642,0.948546,90.1712,400.801)">
                                <path d="M1233.65,248.102L1325.15,248.102L1324.43,256.102L1228.99,256.102C1226.77,256.102 1225.06,254.509 1225.06,252.437L1225.06,231.521C1225.06,230.406 1225.56,229.303 1226.45,228.479C1227.33,227.655 1228.52,227.186 1229.71,227.186L1322.12,227.186L1321.39,235.186L1233.65,235.186L1233.65,248.102Z"/>
                            </g>
                            <g transform="matrix(0.905127,-0.229759,0.327642,0.948546,90.1712,400.801)">
                                <path d="M1458.46,235.186L1321.39,235.186L1322.12,227.186L1463.12,227.186C1465.35,227.186 1467.06,228.779 1467.06,230.85L1467.06,251.766C1467.06,252.881 1466.56,253.985 1465.67,254.809C1464.79,255.633 1463.6,256.102 1462.4,256.102L1324.43,256.102L1325.15,248.102L1458.46,248.102L1458.46,235.186Z"/>
                            </g>
                        </g>
                        <g>
                            <g transform="matrix(1.04159,-0.264398,0.327642,0.948546,-90.6134,495.326)">
                                <path d="M1233.09,248.102L1337.03,248.102L1336.4,256.102L1229.04,256.102C1227.11,256.102 1225.62,254.509 1225.62,252.437L1225.62,231.521C1225.62,230.406 1226.06,229.303 1226.83,228.479C1227.6,227.655 1228.63,227.186 1229.67,227.186L1336.71,227.186L1336.09,235.186L1233.09,235.186L1233.09,248.102Z"/>
                            </g>
                            <g transform="matrix(1.04159,-0.264398,0.327642,0.948546,-90.6134,495.326)">
                                <path d="M1459.03,235.186L1336.09,235.186L1336.71,227.186L1463.08,227.186C1465.01,227.186 1466.5,228.779 1466.5,230.85L1466.5,251.766C1466.5,252.881 1466.06,253.985 1465.29,254.809C1464.52,255.633 1463.49,256.102 1462.45,256.102L1336.4,256.102L1337.03,248.102L1459.03,248.102L1459.03,235.186Z"/>
                            </g>
                        </g>
                    </g>
                </g>
            </g>
            <g id="WOMAN">
                <g>
                    <path d="M710.164,962.151C710.164,962.151 866.602,1185.22 934.734,1282.38C954.565,1310.65 985.244,1329.43 1019.45,1334.23C1047.03,1338.1 1078.83,1342.56 1098.19,1345.28C1109.19,1346.82 1120.13,1342.12 1126.59,1333.09C1138.01,1317.12 1154.64,1293.84 1154.64,1293.84C1154.64,1293.84 1172.58,1288.82 1180.86,1286.5C1184.24,1285.56 1186.44,1282.3 1186.05,1278.82C1185.58,1275.68 1183.95,1271.8 1179.22,1268.09C1172.53,1262.85 1165.06,1261.62 1095.27,1271.89C1095.27,1271.89 1098.18,1201.99 1032.95,1194.84L977.002,1094.69L710.164,962.151Z" style="fill:rgb(255,197,189);"/>
                    <path d="M1154.64,1293.84L1146.4,1305.37L1109.37,1313.57L1103.4,1328.06C1102.35,1330.62 1099.42,1331.83 1096.87,1330.78C1094.32,1329.73 1093.1,1326.8 1094.15,1324.25L1097.47,1316.2L1037.09,1329.57C1034.39,1330.16 1031.72,1328.46 1031.13,1325.77C1030.53,1323.07 1032.23,1320.4 1034.93,1319.81L1163.19,1291.41C1163.31,1291.39 1163.43,1291.36 1163.56,1291.35L1154.64,1293.84ZM1094.82,1261.93C1095.43,1267.99 1095.27,1271.89 1095.27,1271.89C1098.51,1271.41 1101.62,1270.96 1104.6,1270.54C1104.53,1270.55 1104.47,1270.56 1104.4,1270.57L1086.31,1273.36C1083.58,1273.78 1081.03,1271.9 1080.61,1269.18C1080.19,1266.45 1082.06,1263.89 1084.79,1263.47L1094.82,1261.93Z" style="fill:rgb(242,136,123);"/>
                    <path d="M710.817,962.475C711.06,962.719 711.281,962.991 711.475,963.292C800.895,1101.8 933.621,1100.71 977.732,1096L983.012,1105.45C949.765,1109.63 851.671,1114.14 764.949,1040.27L710.164,962.151L710.817,962.475Z" style="fill:rgb(242,136,123);"/>
                </g>
                <g>
                    <path d="M546.564,1336.65C527.498,1273.69 514.22,1212.69 511.02,1158.9C506.412,1081.48 550.523,1028.57 608.743,1021.64C627.449,1019.42 667.689,1018.23 704.798,1055.2L704.944,1054.87C704.944,1054.87 844.691,1185.55 932.103,1363.57C956.572,1413.65 948.708,1473.06 913.124,1514.92C944.526,1607.92 974.362,1710.03 998.067,1815.86C998.067,1815.86 1038.95,1823.92 1060.01,1850.17L787.183,1850.17C782.175,1850.17 777.544,1847.51 775.023,1843.18C759.334,1815.85 700.452,1711.39 642.195,1583.5C578.257,1567.85 500.276,1535.06 406.658,1474.59C406.658,1474.59 374.74,1497.86 344.194,1497.94C344.194,1497.94 450.263,1350.52 475.041,1316.09C478.046,1311.91 483.533,1310.36 488.281,1312.34C505.993,1319.73 546.564,1336.65 546.564,1336.65Z" style="fill:url(#_Linear1);"/>
                    <path d="M929.628,1358.57C930.455,1360.23 931.281,1361.9 932.103,1363.57C932.913,1365.23 933.687,1366.9 934.425,1368.57L866.986,1368.57C864.227,1368.57 861.986,1366.33 861.986,1363.57C861.986,1360.81 864.227,1358.57 866.986,1358.57L929.628,1358.57Z" style="fill:rgb(242,136,123);"/>
                    <path d="M533.871,1331.35L546.536,1336.63C568.872,1396.02 647.06,1594.18 642.195,1583.5C638.41,1582.58 634.576,1581.59 630.693,1580.54C601.02,1509.55 548.015,1369.01 533.871,1331.35ZM728.976,1078.94C738.813,1089.18 751.2,1102.5 765.231,1118.5C837.631,1244.01 871.341,1374.91 920.215,1505.85C917.99,1508.95 915.625,1511.98 913.124,1514.92C909.087,1517.31 810.27,1180.74 728.976,1078.94Z" style="fill:rgb(242,132,118);"/>
                    <path d="M870.185,1385.8C871.368,1388.88 872.547,1391.95 873.722,1395.03L873.97,1395.69L565.778,1395.43L565.638,1395.03C564.588,1392.02 563.547,1389.01 562.513,1385.99L562.321,1385.43L870.142,1385.69L870.185,1385.8Z" style="fill:rgb(242,132,118);"/>
                </g>
                <g>
                    <path d="M642.102,664.074C666.646,655.67 757.11,645.395 797.288,741.103C805.334,760.268 856.273,912.611 980.945,899.003C980.945,899.003 1035.4,895.246 1106.64,842.182C1106.64,842.182 1192.81,775.892 1283.13,765.327C1287.38,764.872 1291.62,766.179 1294.87,768.943C1298.12,771.708 1300.1,775.686 1300.33,779.947C1300.75,786.96 1296.78,795.268 1281.24,802.448C1281.24,802.448 1233.84,819.626 1217.12,835.225C1217.12,835.225 1244.01,825.427 1253.03,846.041C1254.64,849.713 1258.6,865.941 1239.51,878.287C1239.51,878.287 1262.66,872.782 1268.62,890.473C1271.61,899.361 1270.52,909.577 1253.03,920.472C1253.03,920.472 1264.49,918.804 1268.62,927.614C1272.33,935.55 1270.58,944.357 1239.51,970.233C1208.56,996.013 1058.79,1102.54 953.465,1097.52C848.137,1092.5 761.163,1038.07 706.125,957.605C706.125,957.605 599.994,1005.79 535.117,911.872C516.224,884.52 476.274,720.852 642.102,664.074Z" style="fill:rgb(255,197,189);"/>
                    <path d="M1226.83,890.256C1226.83,890.256 1238.87,910.32 1240.33,930.237C1240.53,932.989 1242.93,935.06 1245.68,934.857C1248.44,934.655 1250.51,932.256 1250.3,929.504C1248.68,907.411 1235.41,885.126 1235.41,885.126C1234,882.757 1231.38,883.711 1229.01,885.126C1226.64,886.542 1225.41,887.887 1226.83,890.256Z" style="fill:rgb(253,153,9);"/>
                    <path d="M1232.06,932.162C1244.68,925.289 1249.27,922.536 1253.03,920.472C1253.03,920.472 1260.53,919.379 1265.58,923.631C1257.9,929.549 1248.58,934.549 1236.84,940.945C1234.41,942.264 1231.37,941.368 1230.06,938.944C1228.74,936.521 1229.63,933.482 1232.06,932.162ZM1218.89,888.459C1234.78,880.742 1235.79,880.054 1239.51,878.287C1239.51,878.287 1246.87,876.539 1254.35,878.18C1247.26,884.775 1238.55,890.029 1223.25,897.455C1220.77,898.66 1217.78,897.623 1216.57,895.141C1215.37,892.658 1216.4,889.664 1218.89,888.459ZM1199.83,844.39C1209.16,839.505 1213.62,837.115 1217.12,835.225C1217.12,835.225 1227.23,831.54 1237.14,833.445C1223.23,841.814 1216.58,846.908 1204.46,853.25C1202.02,854.53 1199,853.584 1197.72,851.139C1196.44,848.694 1197.38,845.67 1199.83,844.39Z" style="fill:rgb(242,136,123);"/>
                    <path d="M706.099,957.617C704.197,958.47 599.403,1004.94 535.117,911.872C516.224,884.52 476.274,720.852 642.102,664.074C666.646,655.67 757.11,645.395 797.288,741.103C800.765,749.384 812.25,782.531 834.225,816.399L676.682,901.028C682.847,920.335 694.368,938.812 706.099,957.617Z" style="fill:rgb(242,132,118);"/>
                    <path d="M663.723,968.671C640.942,902.548 646.964,862.005 652.185,844.387C652.557,843.225 653.688,842.479 654.903,842.596C656.118,842.713 657.086,843.661 657.228,844.873C660.096,860.919 668.329,882.836 677.464,903.391C681.789,916.008 688.324,928.287 695.62,940.554C699.608,947.966 703.126,953.975 705.69,957.796C702.86,959.018 686.431,965.794 663.723,968.671Z" style="fill:rgb(175,43,24);"/>
                    <path d="M680.31,892.85L694.316,918.661C695.632,921.087 698.67,921.988 701.095,920.671C703.521,919.355 704.422,916.318 703.105,913.892L689.1,888.081C687.783,885.656 684.746,884.755 682.32,886.071C679.895,887.387 678.994,890.425 680.31,892.85ZM707.19,878.922L719.98,905.357C721.181,907.841 724.174,908.882 726.658,907.68C729.142,906.478 730.183,903.486 728.981,901.002L716.191,874.567C714.989,872.083 711.997,871.042 709.513,872.244C707.029,873.446 705.988,876.438 707.19,878.922ZM734.096,863.364L747.195,889.647C748.426,892.117 751.431,893.122 753.901,891.891C756.371,890.66 757.376,887.656 756.145,885.186L743.046,858.903C741.815,856.434 738.81,855.428 736.341,856.659C733.871,857.89 732.865,860.894 734.096,863.364ZM760.998,848.766L774.641,874.77C775.923,877.214 778.948,878.157 781.392,876.875C783.835,875.593 784.778,872.568 783.496,870.124L769.853,844.12C768.571,841.676 765.546,840.733 763.102,842.015C760.659,843.297 759.716,846.322 760.998,848.766ZM787.767,834.574L801.41,860.579C802.692,863.022 805.717,863.966 808.161,862.683C810.604,861.401 811.547,858.377 810.265,855.933L796.622,829.928C795.34,827.485 792.315,826.542 789.871,827.824C787.428,829.106 786.485,832.131 787.767,834.574ZM814.536,820.383L828.179,846.387C829.461,848.831 832.486,849.774 834.93,848.492C837.373,847.21 838.316,844.185 837.034,841.741L823.391,815.737C822.109,813.293 819.084,812.35 816.64,813.632C814.197,814.914 813.254,817.939 814.536,820.383Z" style="fill:rgb(242,132,118);"/>
                </g>
                <g>
                    <g transform="matrix(1,0,0,1,2.75534,-9.67956)">
                        <circle cx="635.641" cy="575.164" r="72.873" style="fill:rgb(255,197,189);"/>
                    </g>
                    <path d="M582.199,550.656C582.662,551.441 580.414,550.277 579.518,550.109C577.052,549.645 574.637,548.924 572.217,548.268C565.722,546.508 559.379,544.393 553.068,542.064C533.721,534.924 514.566,527.05 495.66,518.818C454.04,500.698 361.767,452.402 339.046,517.983C336.182,526.252 334.387,535.047 333.737,543.774C332.66,558.218 335.412,572.598 340.617,586.049C366.355,652.566 413.362,648.195 470.645,626.714C511.855,611.26 547.509,589.878 584.943,567.417"/>
                    <path d="M588.363,618.447C574.302,605.158 565.524,586.338 565.524,565.484C565.524,525.264 598.177,492.611 638.397,492.611C652.027,492.611 664.788,496.361 675.709,502.888C672.829,527.675 658.603,590.756 588.363,618.447Z"/>
                </g>
            </g>
            <g id="MAN">
                <g>
                    <path d="M2089.93,963.337C2089.93,963.337 2125.37,955.206 2158.95,930.591C2212.35,891.379 2226.78,817.795 2192.16,761.316C2153.59,698.305 2073.72,604.098 1968.45,673.589C1945.1,689.004 1899.95,723.31 1886.73,881.609C1886.73,881.609 1887.72,1017.66 1779.7,1030.71C1684.2,1042.24 1602.29,1083.12 1575.59,1118.23C1573.48,1121.03 1572.96,1124.72 1574.22,1127.99C1575.48,1131.26 1578.34,1133.64 1581.78,1134.3C1598.32,1137.46 1623.89,1142.34 1623.89,1142.34C1623.89,1142.34 1613.24,1158.92 1574.42,1188.12C1574.42,1188.12 1542.99,1208.15 1546.46,1236.6C1546.81,1239.46 1548.38,1242.03 1550.77,1243.64C1553.16,1245.25 1556.13,1245.75 1558.92,1245.01C1564.71,1242.68 1573.7,1238.73 1587.06,1231.88C1587.06,1231.88 1621.96,1246.13 1659.44,1223.3C1659.44,1223.3 1879.83,1224.91 2017.28,1096.57C2043.61,1071.99 2074.32,1035.19 2089.93,963.337Z" style="fill:rgb(255,176,0);"/>
                    <path d="M1701.21,1221.11L1690.59,1209.24C1688.75,1207.19 1688.92,1204.02 1690.98,1202.18C1693.03,1200.34 1696.2,1200.52 1698.04,1202.57L1713.54,1219.89C1709.22,1220.36 1705.1,1220.76 1701.21,1221.11Z" style="fill:rgb(255,207,132);"/>
                    <path d="M1587.06,1231.88C1585.12,1232.88 1671.01,1172.53 1671.01,1172.53C1673.28,1170.96 1676.39,1171.52 1677.97,1173.79C1679.54,1176.05 1678.98,1179.17 1676.72,1180.75L1598.67,1234.95C1591.4,1233.65 1587.06,1231.88 1587.06,1231.88ZM1659.44,1223.3C1656.92,1224.84 1700.09,1193.68 1700.09,1193.68C1702.35,1192.1 1705.47,1192.65 1707.05,1194.91C1708.63,1197.17 1708.08,1200.29 1705.82,1201.88L1675.88,1222.85C1665.37,1223.35 1659.44,1223.3 1659.44,1223.3ZM1613.38,1140.34C1620.74,1130.58 1623.02,1120.93 1623.46,1118.72L1623.52,1118.42L1623.54,1118.28C1623.65,1117.67 1623.8,1117.36 1623.82,1117.29C1624.34,1116.03 1625.08,1115.46 1625.43,1115.19C1627.04,1113.97 1628.61,1113.98 1629.95,1114.4C1630.97,1114.72 1632.49,1115.42 1633.21,1117.62C1633.24,1117.72 1633.59,1118.45 1633.41,1119.82C1633.41,1119.87 1633.37,1120.15 1633.27,1120.66C1632.57,1124.19 1623.89,1142.34 1623.89,1142.34L1613.38,1140.34ZM1633.34,1120.26C1633.28,1120.51 1633.21,1120.76 1633.11,1121C1633.14,1120.93 1633.18,1120.83 1633.23,1120.68C1633.26,1120.57 1633.3,1120.45 1633.33,1120.3L1633.36,1120.14L1633.34,1120.26Z" style="fill:rgb(253,133,9);"/>
                    <path d="M1828,1013.27C1887.4,973.182 1886.73,881.609 1886.73,881.609C1899.95,723.31 1945.1,689.004 1968.45,673.589C2073.72,604.098 2153.59,698.305 2192.16,761.316C2226.78,817.795 2212.35,891.379 2158.95,930.591C2125.37,955.206 2089.93,963.337 2089.93,963.337C2074.32,1035.19 2043.61,1071.99 2017.28,1096.57C1995.02,1117.36 1970.57,1134.74 1945.24,1149.28L1828,1013.27Z" style="fill:rgb(253,153,9);"/>
                    <path d="M2089.93,963.337C2089.93,963.337 2095.57,892.379 2092.59,841.518C2092.37,839.508 2093.67,837.643 2095.62,837.14C2097.58,836.637 2099.61,837.649 2100.39,839.515C2110.7,864.835 2125.57,906.833 2130.21,948.033C2107.82,959.234 2089.93,963.337 2089.93,963.337Z" style="fill:rgb(216,75,38);"/>
                </g>
                <g>
                    <g transform="matrix(1,0,0,1,-4.52472,0.1044)">
                        <circle cx="1992.77" cy="552.896" r="69.935" style="fill:rgb(255,176,0);"/>
                    </g>
                    <path d="M1963.31,487.652C1971.05,484.689 1979.46,483.066 1988.25,483.066C2026.85,483.066 2058.18,514.402 2058.18,553C2058.18,579.826 2043.05,603.144 2020.86,614.872L2004.41,578.521C2007.19,578.456 2010.05,577.712 2012.72,576.226C2020.72,571.776 2023.97,562.346 2019.98,555.181C2016,548.016 2006.27,545.812 1998.27,550.262C1996.37,551.321 1994.74,552.661 1993.4,554.186L1963.31,487.652Z"/>
                </g>
                <g>
                    <path d="M2258.05,989.725C2210.7,970.14 2142.71,972 2025.62,1132.02C2004.25,1161.22 1748.74,1453.17 1709.79,1591.37C1700.36,1624.8 1675.12,1700.5 1671.48,1818.15C1648.46,1823.86 1628.87,1832.85 1617.99,1850.24L1890.29,1850.24C1898.71,1850.24 1905.76,1843.84 1906.58,1835.46C1911.1,1798.42 1932.92,1697.06 2037.07,1591.37C2037.07,1591.37 2192.05,1755.15 2324.38,1808.88C2288.38,1818.37 2268.91,1832.97 2258.05,1850.24L2395.89,1850.24C2404.76,1850.24 2412.92,1845.38 2417.15,1837.58C2431.06,1811.94 2462.44,1754.1 2476.82,1727.59C2481.25,1719.42 2479.82,1709.32 2473.31,1702.69C2440.18,1668.96 2338.44,1565.18 2258.05,1481.29C2288.76,1383.88 2319.04,1283.51 2346.31,1162.37C2357.52,1112.7 2343.56,1060.7 2309,1023.31C2294.71,1007.9 2281.08,999.254 2258.05,989.725Z" style="fill:url(#_Linear2);"/>
                    <path d="M2260.77,1472.63C2259.86,1475.52 2258.95,1478.4 2258.05,1481.29C2264.48,1488 2271.05,1494.84 2277.71,1501.76L2248.87,1527.91C2247.47,1529.17 2245.39,1529.33 2243.82,1528.27C2242.26,1527.22 2241.61,1525.24 2242.26,1523.46L2260.77,1472.63Z" style="fill:rgb(217,81,46);"/>
                    <path d="M2424.51,1652.9C2426.91,1655.35 2429.25,1657.74 2431.53,1660.08L2309.33,1802.36C2306.22,1800.92 2303.09,1799.43 2299.98,1797.9L2424.51,1652.9ZM1675.73,1754.73L1921.2,1773.3C1920.08,1776.64 1919.03,1779.91 1918.06,1783.09L1674.75,1764.69C1675.06,1761.32 1675.39,1758 1675.73,1754.73ZM2111.01,1033.64C2071.87,1079.58 2000.73,1226.15 1984,1365.54C1972.84,1458.53 1985.76,1548.45 2049.99,1602.36C2051.22,1603.39 2051.83,1604.89 2051.78,1606.38C2042.34,1596.95 2037.07,1591.37 2037.07,1591.37C2034.88,1593.59 2032.73,1595.81 2030.61,1598.03C1975.01,1541.28 1963.28,1454.32 1974.07,1364.35C1987.23,1254.74 2033.65,1140.83 2072.43,1073.24C2086.04,1057.75 2098.88,1044.66 2111.01,1033.64Z" style="fill:rgb(253,148,9);"/>
                </g>
            </g>
            <g id="KEY">
                <path d="M1286.06,799.946C1292.91,812.001 1297.16,823.102 1297.89,830.038C1298.39,834.816 1297.08,837.998 1294.92,839.356C1292.76,840.714 1289.33,840.515 1285.24,837.994C1278.27,833.697 1268.23,822.541 1259.15,808.107C1250.07,793.674 1244.36,779.789 1243.51,771.644C1243.01,766.867 1244.31,763.685 1246.47,762.327C1248.63,760.968 1252.07,761.168 1256.15,763.689C1258.11,764.895 1260.29,766.454 1262.64,768.661L1255.86,770.154C1254.05,768.716 1252.47,767.761 1251.05,767.233C1250.37,766.977 1249.81,766.708 1249.39,766.972C1248.97,767.236 1248.98,767.85 1248.91,768.581C1248.77,770.127 1249.01,772.114 1249.55,774.446C1251.36,782.265 1256.45,793.515 1263.79,805.185C1271.13,816.856 1279.07,826.319 1285.33,831.331C1287.2,832.827 1288.89,833.908 1290.34,834.449C1291.03,834.705 1291.58,834.975 1292,834.711C1292.42,834.447 1292.42,833.833 1292.48,833.102C1292.63,831.555 1292.38,829.569 1291.84,827.236C1290.34,820.737 1286.61,811.987 1281.16,802.474C1282.64,801.835 1284.28,800.95 1286.06,799.946Z"/>
                <g transform="matrix(0.829104,0,0,0.829104,225.772,129.224)">
                    <path d="M1312.02,867.922C1324.37,867.922 1334.39,877.943 1334.39,890.285C1334.39,902.628 1324.37,912.649 1312.02,912.649C1305.53,912.649 1300.26,917.921 1300.26,924.416C1300.26,930.91 1305.53,936.183 1312.02,936.183C1337.35,936.183 1357.92,915.617 1357.92,890.285C1357.92,864.954 1337.35,844.388 1312.02,844.388C1305.53,844.388 1300.26,849.661 1300.26,856.155C1300.26,862.65 1305.53,867.922 1312.02,867.922Z"/>
                </g>
                <g transform="matrix(0.829104,0,0,0.829104,225.772,129.224)">
                    <path d="M1312.02,912.649C1299.68,912.649 1289.66,902.628 1289.66,890.285C1289.66,877.943 1299.68,867.922 1312.02,867.922C1318.52,867.922 1323.79,862.65 1323.79,856.155C1323.79,849.661 1318.52,844.388 1312.02,844.388C1286.69,844.388 1266.12,864.954 1266.12,890.285C1266.12,915.617 1286.69,936.183 1312.02,936.183C1318.52,936.183 1323.79,930.91 1323.79,924.416C1323.79,917.921 1318.52,912.649 1312.02,912.649Z"/>
                </g>
                <g transform="matrix(1,0,0,1,-38.2908,-2.29616)">
                    <path d="M1433.48,987.273L1436.44,992.199C1439.2,996.817 1437.7,1002.81 1433.09,1005.58C1428.47,1008.35 1422.47,1006.85 1419.7,1002.23L1358.64,900.402C1355.87,895.784 1357.38,889.786 1361.99,887.017C1366.61,884.248 1372.61,885.75 1375.38,890.368L1411.05,949.868L1419.96,944.689C1422.17,943.403 1425.01,944.154 1426.3,946.365C1428.63,950.383 1432.2,956.526 1434.49,960.46C1435.07,961.46 1435.23,962.65 1434.93,963.769C1434.64,964.887 1433.91,965.842 1432.91,966.423L1424.06,971.565L1427.17,976.749L1436.24,971.476C1437.09,970.984 1438.1,970.849 1439.04,971.099C1439.99,971.349 1440.79,971.965 1441.29,972.81C1442.1,974.204 1443.04,975.83 1443.84,977.205C1444.31,978.007 1444.43,978.961 1444.2,979.858C1443.96,980.755 1443.38,981.521 1442.57,981.987L1433.48,987.273Z"/>
                </g>
            </g>
        </g>
    </g>
    <defs>
        <linearGradient id="_Linear1" x1="0" y1="0" x2="1" y2="0" gradientUnits="userSpaceOnUse" gradientTransform="matrix(-398.1,885.737,-885.737,-398.1,702.1,1435.44)"><stop offset="0" style="stop-color:rgb(255,197,189);stop-opacity:1"/><stop offset="1" style="stop-color:rgb(255,74,49);stop-opacity:1"/></linearGradient>
        <linearGradient id="_Linear2" x1="0" y1="0" x2="1" y2="0" gradientUnits="userSpaceOnUse" gradientTransform="matrix(364.484,-338.46,338.46,364.484,2051.13,1415.71)"><stop offset="0" style="stop-color:rgb(255,179,9);stop-opacity:1"/><stop offset="1" style="stop-color:rgb(253,153,9);stop-opacity:1"/></linearGradient>
    </defs>
</svg>
