<?xml version="1.0" encoding="UTF-8" standalone="no"?>
<!DOCTYPE svg PUBLIC "-//W3C//DTD SVG 1.1//EN" "http://www.w3.org/Graphics/SVG/1.1/DTD/svg11.dtd">
<svg width="100%" height="100%" viewBox="0 0 2732 2048" version="1.1" xmlns="http://www.w3.org/2000/svg" xmlns:xlink="http://www.w3.org/1999/xlink" xml:space="preserve" xmlns:serif="http://www.serif.com/" style="fill-rule:evenodd;clip-rule:evenodd;stroke-linejoin:round;stroke-miterlimit:2;">
    <g transform="matrix(1,0,0,1,327.576,30.3623)">
        <g id="_1---REBUILD-THE-ECONOMY" serif:id="1 - REBUILD THE ECONOMY">
            <g id="CHART">
                <g transform="matrix(1,0,0,1.01663,0,-28.7394)">
                    <rect x="364.611" y="916.845" width="1366.11" height="811.359" style="fill:rgb(255,240,230);"/>
                </g>
                <path d="M1685.88,1459.06L1474.95,1459.06L1474.95,1661.41L1685.88,1661.41L1685.88,1459.06ZM1423.48,1299.8L1212.56,1299.8L1212.56,1661.41L1423.48,1661.41L1423.48,1299.8ZM1161.09,1231.16L950.166,1231.16L950.166,1661.41L1161.09,1661.41L1161.09,1231.16ZM898.696,1149.5L687.772,1149.5L687.772,1661.41L898.696,1661.41L898.696,1149.5ZM636.302,1516.86L425.378,1516.86L425.378,1661.41L636.302,1661.41L636.302,1516.86Z" style="fill:rgb(255,163,150);"/>
            </g>
            <g id="ARROW" transform="matrix(0.975331,0,0,1,41.0391,4.537)">
                <path d="M1633.96,1185.51L1644.59,1158.89L1716.23,1249.09L1602.16,1265.15L1613.38,1237.05L992.001,984.113L934.467,1084.61L829.481,1031.92L616.574,1568.87L472.797,1498.44C442.25,1548.73 416.885,1592.43 396.862,1620.91L351.472,1588.99C373.843,1557.18 402.935,1505.92 438.68,1447.86L451.887,1426.41L587.107,1492.65L800.228,955.161L912.408,1011.46L967.962,914.42L1633.96,1185.51Z" style="fill:rgb(205,0,0);"/>
            </g>
            <path id="ROPE" d="M1595.49,1161.64L1584.57,617.192L1147.57,521.96L674.749,416.028C590.383,397.126 502.483,401.284 420.278,428.065L326.65,458.567L197.504,624.01C195.019,627.193 190.417,627.76 187.233,625.275C184.05,622.79 183.483,618.188 185.968,615.005L317.866,446.037L415.745,414.15C500.448,386.556 591.018,382.272 677.948,401.748C855.47,441.52 1150.75,507.675 1150.7,507.666L1598.97,605.352L1610.18,1164.39L1619.87,1151.82C1621.21,1150.07 1623.73,1149.74 1625.48,1151.09C1627.22,1152.44 1627.55,1154.95 1626.2,1156.7L1610.44,1177.16L1611.73,1241.53C1611.81,1245.57 1608.6,1248.91 1604.56,1249C1600.53,1249.08 1597.18,1245.86 1597.1,1241.83L1595.76,1174.88L1581.43,1156.74C1580.06,1155.01 1580.36,1152.49 1582.09,1151.12C1583.82,1149.75 1586.34,1150.05 1587.7,1151.78L1595.49,1161.64Z"/>
            <g id="ORANGE-CHARACTER" serif:id="ORANGE CHARACTER" transform="matrix(0.99969,0.0249114,-0.0249114,0.99969,14.6174,-26.0338)">
                <g>
                    <path d="M574.177,590.637C574.177,590.637 447.326,633.01 348.091,666.157C321.308,675.103 300.495,696.433 292.207,723.428C283.919,750.422 289.178,779.756 306.326,802.191C344.45,852.066 382.966,902.454 382.966,902.454C382.966,902.454 366.414,907.794 368.437,918.664L563.971,916.706L484.055,805.451C484.055,805.451 649.8,789.178 691.83,765.944L948.65,890.153C948.65,890.153 919.402,895.647 918.185,909.029L1062.92,903.81C1062.92,903.81 1100.93,871.484 1116.61,858.142C1118.2,856.789 1119.07,854.773 1118.97,852.688C1118.86,850.603 1117.79,848.686 1116.07,847.501C1066.16,812.992 771.652,610.565 715.49,600.25C715.49,600.25 659.151,565.746 574.177,590.637Z" style="fill:url(#_Linear1);"/>
                    <g transform="matrix(0.99969,-0.0249114,0.0249114,0.99969,-13.9643,26.3898)">
                        <path d="M712.733,590.553C714.186,591.371 714.932,591.854 714.932,591.854C719.928,592.901 726.791,595.531 735.174,599.474C743.486,608.446 751.368,620.184 755.958,635.073C760.396,649.469 761.787,666.833 757.421,687.516L1002.36,833.408L1045.06,802.723L1047.51,804.472C1048.53,805.202 1049.55,805.931 1050.56,806.66L1051.93,807.637L938.55,889.115C937.08,890.172 935.132,890.087 933.769,889.032C937.848,887.954 940.798,887.475 940.798,887.475L933.014,883.468C933.252,883.151 933.542,882.863 933.882,882.619L995.274,838.5L755.448,695.652C754.688,698.429 753.827,701.263 752.858,704.154C746.926,721.854 731.579,744.553 696.133,761.53L687.152,756.907C681.76,759.715 674.388,762.362 665.632,764.841C665.941,764.637 666.285,764.473 666.657,764.358C718.114,748.529 738.495,721.834 745.273,701.612C754.048,675.428 753.498,654.252 748.313,637.43C740.979,613.639 724.47,598.631 712.733,590.553ZM670.707,575.406C673.785,576.068 676.719,576.781 679.505,577.528C680.008,579.883 680.357,582.259 680.738,584.423C682.609,595.036 683.834,605.626 683.231,616.421C681.343,650.212 668.022,682.846 635.627,697.245C616.153,705.9 592.897,709.381 571.66,708.977C554.05,708.641 532.766,706.613 515.289,705.321C475.367,702.37 442.309,697.449 394.96,703.118C378.196,705.126 365.642,710.979 358.397,721.098C351.129,731.249 349.339,745.501 353.41,763.799C356.218,776.415 361.736,788.089 367.851,799.393C377.291,816.842 386.981,834.799 398.228,851.185L515.678,845.865L520.97,853.633L400.249,859.101C400.021,859.386 399.75,859.644 399.437,859.865C397.801,861.023 395.591,860.777 394.243,859.374L357.114,861.055L351.488,853.302L388.868,851.609C378.623,836.125 369.605,819.449 360.814,803.199C354.348,791.246 348.57,778.878 345.601,765.536C340.914,744.469 343.525,728.127 351.892,716.441C360.282,704.723 374.597,697.499 394.009,695.175C441.964,689.433 475.446,694.354 515.878,697.343C533.22,698.625 554.339,700.645 571.813,700.978C591.916,701.361 613.943,698.128 632.378,689.934C661.901,676.813 673.523,646.769 675.244,615.974C675.812,605.797 674.623,595.817 672.86,585.811C672.286,582.557 672.006,578.648 670.707,575.406Z" style="fill:rgb(215,68,30);"/>
                    </g>
                    <g transform="matrix(0.99969,-0.0249114,0.0249114,0.99969,-13.9643,26.3898)">
                        <path d="M485.009,800.843L486.592,803.168L486.417,803.22C485.963,802.424 485.493,801.631 485.009,800.843ZM479.93,793.388C459.442,765.984 422.921,743.707 403.575,733.119C402.079,732.307 401.342,730.569 401.799,728.928C402.255,727.288 403.784,726.181 405.485,726.258C451.096,730.065 499.427,773.122 514.93,788.058C493.158,790.152 478.458,791.226 478.458,791.226L479.93,793.388Z" style="fill:rgb(113,24,1);"/>
                    </g>
                </g>
                <g>
                    <g transform="matrix(1.04181,0,0,1.04181,1.89991,2.46149)">
                        <circle cx="451.827" cy="326.284" r="40.684" style="fill:rgb(232,97,53);"/>
                    </g>
                    <g transform="matrix(0.99969,-0.0249114,0.0249114,0.99969,-13.9643,26.3898)">
                        <path d="M459.459,290.184C465.504,287.123 472.372,285.47 479.617,285.651C503.003,286.234 521.516,305.693 520.933,329.079C520.488,346.922 509.054,361.928 493.271,367.78L482.838,343.838C484.538,344.009 486.345,343.751 488.102,343.003C493.461,340.72 496.332,334.729 494.509,329.633C492.686,324.536 486.855,322.252 481.496,324.535C479.305,325.468 477.53,327.022 476.321,328.881L459.459,290.184Z"/>
                    </g>
                    <g transform="matrix(1,0,0,1,0.396352,9.38105)">
                        <path d="M569.029,392.682C519.914,388.367 412.805,396.063 326.976,404.831C310.801,406.493 295.971,414.582 285.817,427.283C275.662,439.983 271.035,456.23 272.974,472.375C274.467,484.486 277.773,496.692 284.159,507.249C284.159,507.249 276.095,532.042 303.248,548.886C311.468,553.971 320.777,557.031 330.411,557.815C351.027,559.306 406.565,561.761 480.958,552.489C480.958,552.489 549.212,604.641 621.624,560.051C679.086,524.667 684.333,402.813 569.029,392.682Z" style="fill:url(#_Linear2);"/>
                    </g>
                    <g transform="matrix(0.99969,-0.0249114,0.0249114,0.99969,-13.9643,26.3898)">
                        <path d="M286.215,497.524C298.96,506.795 321.193,518.509 347.155,519.722C399.353,522.166 541.196,528.793 541.196,528.793C543.401,528.896 545.108,530.77 545.005,532.976C544.902,535.181 543.028,536.887 540.823,536.784C540.823,536.784 398.979,530.157 346.781,527.713C323.621,526.631 301.924,517.458 285.183,502.289C285.581,499.32 286.215,497.524 286.215,497.524Z" style="fill:rgb(215,68,30);"/>
                    </g>
                </g>
                <g transform="matrix(0.99969,-0.0249114,0.0249114,0.99969,-13.9643,26.3898)">
                    <path d="M441.816,389.513C495.269,387.237 544.802,386.807 573.85,390.09C688.866,403.09 682.65,525.007 623.533,557.55C557.966,593.644 497.067,569.585 478.945,548.103C473.846,542.059 470.711,525.308 470.711,525.308L431.382,523.086L385.083,463.278L441.816,389.513Z" style="fill:rgb(215,68,30);"/>
                </g>
                <g transform="matrix(0.99969,-0.0249114,0.0249114,0.99969,-13.9643,26.3898)">
                    <path d="M470.711,525.308C470.711,525.308 512.932,524.853 536.13,525.34C537.179,525.362 538.057,526.138 538.208,527.176C538.359,528.214 537.738,529.208 536.739,529.528L478.896,548.045C473.826,541.952 470.711,525.308 470.711,525.308Z" style="fill:rgb(113,24,1);"/>
                </g>
            </g>
            <g id="YELLOW-CHARACTER" serif:id="YELLOW CHARACTER">
                <path d="M1246.25,546.71C1247.08,547.486 1206.68,601.406 1132.12,572.668C1118.53,567.431 1055.78,522.246 1099.64,438.314C1111.37,415.873 1162.25,349.777 1275.54,390.502C1289.04,395.354 1313.28,406.282 1356.51,438.314C1372.6,450.237 1496.68,558.991 1567.14,587.021C1581.17,592.606 1583.49,594.266 1595.99,600.257C1599.52,601.951 1602.92,608.468 1589.43,611.353C1589.43,611.353 1602.75,610.689 1597.09,620.558C1597.09,620.558 1588.47,632.379 1583.17,639.648C1580.41,643.435 1575.95,645.616 1571.27,645.477C1567.2,645.352 1562.65,644.801 1560.49,643.039C1560.49,643.039 1551.13,656.639 1530.81,646.086C1530.81,646.086 1522.16,666.755 1481.82,643.039C1464.96,633.13 1451.64,626.912 1438.24,621.748L1438.24,643.039L1795.72,795.37C1795.72,795.37 1808.43,792.44 1828.44,795.37L1712.69,904.149L1428.35,830.522L1428.35,883.132C1428.35,883.132 1452.13,890.769 1454.93,904.149L1267.49,904.149L1267.49,817.355C1267.49,817.355 1089.05,833.922 1121.93,691.41C1125.06,677.842 1168.66,578.689 1267.49,557.271L1246.25,546.71Z" style="fill:url(#_Linear3);"/>
                <path d="M1441.34,744.977L1441.34,744.973L1645.34,820.728L1687.94,749.445L1695.37,752.61L1651.51,825.989C1651.5,826.392 1651.41,826.798 1651.27,827.196C1650.94,828.082 1650.33,828.783 1649.58,829.234L1619.26,879.957L1611.19,877.867L1641.16,827.712L1440.86,753.329L1440.86,753.328L1441.1,749.196L1441.34,744.977ZM1118.64,710.59C1121.54,722.408 1129.11,733.328 1141.77,735.682C1157.21,738.554 1174.6,728.982 1187.31,721.263C1203.82,711.232 1215.78,697.692 1226.97,683.415C1238.55,668.635 1249.3,653.066 1263.03,639.478C1269.59,632.985 1278.56,626.036 1288.12,622.981C1295.03,620.776 1302.23,620.548 1309.19,623.585C1318.11,627.482 1325.35,635.518 1330.79,645.172C1338.58,659.013 1342.68,676.123 1343.34,687.733C1346.4,742.17 1345.04,792.24 1343.98,846.443L1428.35,846.685L1428.35,854.685L1267.49,854.224L1267.49,846.224L1335.98,846.42C1337.03,792.377 1338.41,742.459 1335.35,688.183C1334.75,677.52 1330.97,661.808 1323.82,649.095C1319.29,641.046 1313.43,634.166 1305.99,630.916C1299.54,628.1 1292.8,629.308 1286.57,632.152C1279.73,635.276 1273.48,640.39 1268.66,645.163C1255.17,658.511 1244.64,673.83 1233.27,688.349C1221.49,703.372 1208.83,717.544 1191.46,728.1C1177.25,736.734 1157.58,746.76 1140.3,743.547C1130.62,741.745 1123.15,736.026 1117.97,728.494C1117.75,722.879 1117.96,716.918 1118.64,710.59ZM1438.24,643.039L1445.58,646.168L1440.94,751.416L1435.97,832.495L1428.35,830.522L1428.35,840.694C1427.83,839.968 1427.55,839.065 1427.61,838.106C1427.61,838.106 1438.11,679.397 1438.14,633.498L1438.15,633.178C1438.18,632.75 1438.21,632.324 1438.24,631.906L1438.24,643.039ZM1256.25,551.686C1259.22,551.12 1264.05,550.242 1270.22,549.27L1242.18,525.12C1240.51,523.68 1240.32,521.152 1241.76,519.479C1243.2,517.806 1245.73,517.618 1247.4,519.058L1279.42,546.633C1279.81,546.965 1280.11,547.355 1280.34,547.778C1295.75,545.661 1315.93,543.59 1336.27,543.522C1364.96,543.426 1393.88,547.483 1410.82,560.394C1419.34,566.889 1445.58,587.326 1446.39,625.03C1443.66,623.878 1440.95,622.792 1438.24,621.748L1438.24,621.942C1436.09,589.887 1413.43,572.448 1405.97,566.755C1390.17,554.709 1363.06,551.433 1336.29,551.522C1303.54,551.632 1271.19,557.039 1259.32,559.248C1262,558.532 1264.72,557.871 1267.49,557.271L1256.25,551.686ZM1440.86,753.328L1440.94,751.416L1441.34,744.977L1441.1,749.196L1440.86,753.328Z" style="fill:rgb(253,149,0);"/>
                <path d="M1525.55,651.624L1504.98,638.018C1503.13,636.801 1502.63,634.317 1503.85,632.475C1505.06,630.634 1507.55,630.127 1509.39,631.345L1533.87,647.533C1532.88,647.111 1531.86,646.631 1530.81,646.086C1530.81,646.086 1529.51,649.201 1525.55,651.624ZM1554.65,647.862L1525.11,627.661C1523.28,626.416 1522.82,623.924 1524.06,622.102C1525.31,620.279 1527.8,619.811 1529.62,621.057L1564.11,644.64C1562.64,644.271 1561.36,643.755 1560.49,643.039C1560.49,643.039 1558.59,645.794 1554.65,647.862ZM1598.42,615.478C1591.57,613.857 1587.22,613.982 1584.49,614.796C1583.89,614.976 1583.38,615.215 1582.99,615.446L1585.47,617.774C1587.08,619.284 1587.17,621.817 1585.66,623.428C1584.15,625.039 1581.61,625.121 1580,623.611L1563.94,608.552C1562.33,607.043 1562.24,604.509 1563.75,602.898C1565.26,601.288 1567.8,601.206 1569.41,602.715L1576.98,609.81C1579.8,607.349 1585.82,604.729 1598.2,607.241C1596.93,608.819 1594.26,610.319 1589.43,611.353C1589.43,611.353 1597.56,610.948 1598.42,615.478Z" style="fill:rgb(253,149,0);"/>
                <path d="M1246.82,546.995L1246.25,546.71C1247.08,547.486 1206.68,601.406 1132.12,572.668C1118.53,567.431 1055.78,522.246 1099.64,438.314C1111.37,415.873 1162.25,349.777 1275.54,390.502C1286,394.26 1302.89,401.66 1330.05,419.683C1333.48,433.521 1333.01,457.06 1296.84,469.443C1296.84,469.443 1316.31,519.063 1257.97,526.913C1257.97,526.913 1254.49,536.257 1246.82,546.995Z" style="fill:rgb(253,149,0);"/>
                <path d="M1237.08,817.572L1267.12,697.792C1267.43,696.552 1268.62,695.748 1269.89,695.929C1271.16,696.11 1272.08,697.218 1272.03,698.495L1267.45,817.358C1266.68,817.427 1254.36,818.49 1237.08,817.572ZM1246.23,546.861C1245.49,547.665 1244.72,548.369 1243.95,548.934C1243.95,548.934 1208.85,505.852 1191.05,484.007C1190.3,483.087 1190.34,481.755 1191.15,480.884C1191.95,480.012 1193.28,479.868 1194.25,480.545C1212.64,493.042 1244.95,515.548 1257.15,527.521C1257.15,527.521 1252.28,540.275 1246.33,546.753L1246.25,546.71C1246.27,546.729 1246.26,546.78 1246.23,546.861Z" style="fill:rgb(215,68,30);"/>
                <path d="M1078.02,327.844C1077.26,328.196 1078.29,326.189 1078.32,325.353C1078.38,323.794 1078.4,322.234 1078.44,320.675C1078.55,316.148 1078.37,311.622 1078.4,307.095C1078.47,297.836 1076.44,271.5 1087.28,266.967C1092.68,264.709 1094.13,274.732 1094.21,278.087C1094.52,291.055 1085.52,300.956 1083.66,313.058C1083.57,313.66 1084.08,311.913 1084.31,311.35C1084.79,310.186 1085.25,309.014 1085.75,307.857C1087.17,304.581 1088.6,301.313 1090.08,298.064C1094.75,287.804 1099.29,276.777 1106.21,267.774C1107.85,265.633 1112.66,259.858 1115.97,262.383C1120.89,266.141 1114.21,276.779 1112.03,280.373C1107.24,288.253 1101.04,295.163 1095.87,302.777C1090.62,310.49 1086.39,319.063 1081.03,326.632" style="fill:rgb(255,176,0);"/>
                <g>
                    <g transform="matrix(1.06899,0,0,1.06899,-63.4476,-37.095)">
                        <circle cx="1105.75" cy="355.225" r="40.28" style="fill:rgb(255,176,0);"/>
                    </g>
                    <g transform="matrix(1.36307,0,0,1.36307,-481.383,-170.838)">
                        <circle cx="1105.75" cy="355.225" r="40.28"/>
                    </g>
                    <path d="M1085.05,369.63C1079.09,362.243 1075.53,352.853 1075.53,342.636C1075.53,318.872 1094.82,299.578 1118.58,299.578C1124.84,299.578 1130.78,300.914 1136.15,303.318C1135.02,318.018 1127.02,346.865 1085.05,369.63Z"/>
                </g>
            </g>
            <g id="GREEN-CHARACTER" serif:id="GREEN CHARACTER">
                <g>
                    <path d="M1098.69,968.614C1098.69,968.614 1080,965.75 1093.1,947.381C1096.87,942.1 1112.62,934.91 1121.95,956.738C1121.95,956.738 1139.3,948.511 1143.66,970.333C1143.66,970.333 1159.86,962.496 1165.42,984.501C1165.42,984.501 1181.86,982.406 1184.03,1004.98C1187.27,1038.65 1189.96,1062.84 1191.94,1089.66C1191.94,1089.66 1196.89,1141.13 1233.56,1172.96C1233.56,1172.96 1255.68,1099.37 1336.05,1123.41L1410.92,1153.01C1410.92,1153.01 1453.28,1138.62 1473.61,1168.21C1487.87,1157.43 1510.88,1138.27 1517.13,1132.49C1520.21,1129.64 1526.49,1127.3 1529.82,1129.09C1532.61,1130.59 1534.49,1136.01 1531.21,1139.64C1531.21,1139.64 1538.15,1133.83 1543.85,1138.69C1546.06,1140.57 1547.88,1144.43 1544.95,1151.17C1544.95,1151.17 1552.12,1144.61 1557.38,1149.06C1559.44,1150.79 1563.1,1155.15 1558.26,1162.54C1558.26,1162.54 1566.01,1156.32 1571.05,1161.23C1573.29,1163.41 1575.16,1167.91 1561.9,1184.46C1558.3,1188.94 1554.63,1193.38 1550.89,1197.78C1516.55,1238.68 1459.92,1253.07 1410.23,1233.5C1378.33,1221 1348.95,1209.43 1348.95,1209.43C1348.95,1209.43 1389.64,1283.33 1389.36,1326.11C1389.12,1364.22 1372.57,1403.81 1325.26,1415.32C1314.3,1418 1302.89,1418.31 1291.8,1416.22C1260.81,1410.4 1191.95,1388.47 1199.82,1308.92C1199.82,1308.92 1140.93,1270.4 1102.08,1207.78C1072.14,1159.6 1064.58,1100.81 1081.35,1046.63C1089.94,1018.8 1099.85,982.898 1098.69,968.614Z" style="fill:rgb(168,207,204);"/>
                    <path d="M1525.27,1198.44C1525.27,1198.44 1558.67,1161.91 1558.26,1162.54C1558.26,1162.54 1563.66,1158.2 1568.38,1159.62C1568.34,1159.67 1568.31,1159.71 1568.27,1159.75L1529.72,1202.46C1528.61,1203.69 1526.71,1203.78 1525.48,1202.67C1524.25,1201.57 1524.16,1199.67 1525.27,1198.44ZM1510.17,1188.49C1510.17,1188.49 1545,1151.05 1544.95,1151.17C1544.95,1151.17 1550.81,1145.81 1555.83,1148.07L1514.57,1192.57C1513.45,1193.78 1511.55,1193.86 1510.33,1192.73C1509.12,1191.6 1509.05,1189.7 1510.17,1188.49ZM1531.34,1139.54C1532.17,1138.89 1536.94,1135.43 1541.59,1137.3L1500.63,1181.49C1499.5,1182.71 1497.6,1182.78 1496.39,1181.65C1495.17,1180.53 1495.1,1178.63 1496.23,1177.41L1531.34,1139.54Z" style="fill:rgb(130,181,178);"/>
                    <path d="M1163.6,1003.83C1164.98,997.006 1165.36,984.263 1165.42,984.501C1165.42,984.501 1167.98,984.174 1171.21,985.168C1171.15,990.146 1170.82,998.436 1169.48,1005.02C1169.15,1006.65 1167.57,1007.7 1165.95,1007.37C1164.32,1007.04 1163.27,1005.45 1163.6,1003.83ZM1149.64,968.985C1150.21,974.096 1150.65,982.914 1149.06,994.167C1148.83,995.807 1147.31,996.949 1145.67,996.717C1144.03,996.486 1142.89,994.966 1143.12,993.327C1144.56,983.123 1144.24,975.076 1143.75,970.292C1144.22,970.078 1146.59,969.084 1149.64,968.985ZM1122.92,985.053C1124.73,968.972 1121.61,955.937 1121.95,956.738C1121.95,956.738 1124.25,955.649 1127.38,955.315C1128.81,960.947 1130.5,971.357 1128.88,985.724C1128.69,987.369 1127.21,988.555 1125.56,988.37C1123.92,988.185 1122.73,986.699 1122.92,985.053ZM1093.33,966.664C1093.61,962.163 1093.7,959.203 1093.7,959.203C1093.76,957.548 1095.14,956.246 1096.8,956.299C1098.45,956.351 1099.75,957.737 1099.7,959.392C1099.7,959.392 1098.9,971.186 1098.69,968.614C1098.69,968.614 1095.97,968.197 1093.33,966.664Z" style="fill:rgb(130,181,178);"/>
                </g>
                <g>
                    <path d="M1191.82,1087.99L1191.94,1089.66C1191.94,1089.66 1196.89,1141.13 1233.56,1172.96C1233.56,1172.96 1255.68,1099.37 1336.05,1123.41L1393.83,1146.26L1408.4,1232.78C1377.22,1220.56 1348.95,1209.43 1348.95,1209.43C1348.95,1209.43 1389.64,1283.33 1389.36,1326.11C1389.12,1364.22 1372.57,1403.81 1325.26,1415.32C1314.3,1418 1302.89,1418.31 1291.8,1416.22C1260.81,1410.4 1191.95,1388.47 1199.82,1308.92C1199.82,1308.92 1140.93,1270.4 1102.08,1207.78C1080.07,1172.35 1070.15,1131.19 1073.11,1090.34L1191.82,1087.99Z" style="fill:rgb(130,181,178);"/>
                    <path d="M1199.82,1308.92C1199.82,1308.92 1234.27,1329.6 1262.56,1342.82C1263.88,1343.34 1264.62,1344.75 1264.3,1346.13C1263.98,1347.52 1262.68,1348.45 1261.27,1348.33C1244.35,1347.17 1217.99,1344.19 1200.29,1336.46C1199.06,1328.15 1198.82,1319 1199.82,1308.92ZM1330.18,1249.37C1254.46,1198.32 1229.97,1169.85 1233.56,1172.96C1233.56,1172.96 1234.71,1169.13 1237.45,1163.5C1248.96,1174.94 1279.5,1203.13 1335.77,1241.07C1342.78,1245.79 1366.52,1261.02 1382.5,1287.57C1386.64,1301.3 1389.44,1314.8 1389.36,1326.11C1389.33,1332.16 1388.88,1338.24 1387.96,1344.24C1387.79,1343.74 1387.71,1343.2 1387.71,1342.64C1388.19,1286.07 1340.23,1256.13 1330.18,1249.37ZM1363.3,1238.28C1355.92,1229.64 1342.52,1213.68 1334.67,1204.32C1334.17,1203.73 1334.17,1202.86 1334.67,1202.27C1335.17,1201.68 1336.03,1201.54 1336.69,1201.95L1348.96,1209.45C1349.26,1209.99 1355.67,1221.7 1363.3,1238.28Z" style="fill:rgb(4,71,67);"/>
                </g>
                <g>
                    <g transform="matrix(1,0,0,1,-7.54833,-4.26342)">
                        <circle cx="1462.07" cy="1321.96" r="45.339" style="fill:rgb(168,207,204);"/>
                    </g>
                    <path d="M1468.46,1274.55C1486.67,1280.43 1499.86,1297.54 1499.86,1317.7C1499.86,1342.72 1479.55,1363.04 1454.52,1363.04C1438.11,1363.04 1423.72,1354.3 1415.76,1341.22L1444.74,1326.72C1444.2,1329.07 1444.38,1331.69 1445.42,1334.17C1447.87,1340.02 1454.14,1342.98 1459.41,1340.77C1464.69,1338.56 1466.99,1332.02 1464.54,1326.17C1463.31,1323.22 1461.09,1321.01 1458.53,1319.82L1474.87,1311.64L1468.46,1274.55Z"/>
                </g>
                <g>
                    <path d="M1254.59,1443.52C1254.59,1443.52 1264.18,1441.11 1277.52,1437.75C1325.33,1425.7 1375.32,1446.87 1399.96,1489.57C1399.96,1489.57 1399.96,1489.57 1399.96,1489.57C1418.24,1521.28 1414.5,1561.07 1390.63,1588.81C1380.96,1600.05 1373.35,1608.9 1373.35,1608.9C1373.35,1608.9 1388.53,1608.59 1406.2,1608.22C1435.84,1607.61 1461.91,1627.72 1468.85,1656.55C1469.44,1659.19 1470.09,1661.83 1470.78,1664.45C1475.99,1684.03 1487.71,1701.25 1504.01,1713.27C1510.1,1717.78 1515.75,1723.43 1517.01,1729.44C1517.01,1729.44 1236.86,1729.09 1105.1,1728.92C1078.67,1728.89 1054.54,1713.92 1042.76,1690.27C1030.99,1666.61 1033.59,1638.34 1049.49,1617.23C1049.49,1617.23 1049.49,1617.23 1049.49,1617.23C1049.49,1617.23 948.291,1513.58 952.509,1392.88C954.8,1327.32 1014.44,1289.62 1058.4,1309.01C1133.12,1341.95 1194.1,1392.17 1254.59,1443.52Z" style="fill:url(#_Linear4);"/>
                    <path d="M1115.33,1531.02C1115.33,1531.02 1065.7,1484.19 1030.03,1450.52C1028.57,1449.15 1026.3,1449.12 1024.81,1450.47C1023.33,1451.82 1023.13,1454.08 1024.35,1455.66C1054.79,1495.05 1097.47,1550.28 1097.47,1550.28L1115.33,1531.02Z" style="fill:rgb(4,71,67);"/>
                    <path d="M1373.35,1608.9L1387.12,1608.62C1380.43,1614.43 1371.2,1622.07 1359.68,1630.67L1360.03,1729.24L1350.03,1729.23L1349.71,1637.94C1320.81,1658.49 1280.46,1682.83 1231.51,1701.13C1228.92,1702.1 1226.04,1700.79 1225.07,1698.2C1224.11,1695.62 1225.42,1692.73 1228.01,1691.77C1301.18,1664.41 1354.71,1623.3 1378.69,1602.68L1373.35,1608.9ZM1248.24,1438.14C1250.36,1439.93 1252.47,1441.73 1254.59,1443.52L1268.32,1440.07C1246.62,1449.14 1100.01,1514.15 1038.35,1639.31C1040.68,1631.47 1044.4,1623.98 1049.49,1617.23C1049.49,1617.23 1049.49,1617.23 1049.49,1617.23C1049.49,1617.23 1047.09,1614.77 1043.05,1610.17C1101.49,1515.08 1205.52,1458.39 1248.24,1438.14Z" style="fill:rgb(130,181,178);"/>
                </g>
            </g>
            <g id="COIN-LEFT" serif:id="COIN LEFT" transform="matrix(1,0,0,1,-27.1961,16.2809)">
                <path d="M172.057,1667.51C161.797,1660.37 191.571,1599.84 238.505,1532.43C285.439,1465.03 331.874,1416.1 342.134,1423.25C342.187,1423.28 342.238,1423.32 342.288,1423.36L393.035,1460.86C403.296,1468 373.522,1528.53 326.588,1595.94C279.654,1663.34 233.219,1712.27 222.958,1705.12C222.906,1705.09 222.855,1705.05 222.804,1705.01L172.057,1667.51Z" style="fill:rgb(255,205,128);"/>
                <path d="M335.759,1423.45L335.988,1423.36L336.215,1423.28L336.439,1423.2L336.455,1423.19L336.66,1423.12L336.681,1423.12L336.878,1423.05L336.904,1423.04L337.093,1422.98L337.124,1422.98L337.305,1422.92L337.34,1422.91L337.515,1422.87L337.554,1422.86L337.721,1422.81L337.764,1422.8L337.925,1422.77L337.971,1422.76L338.125,1422.72L338.175,1422.71L338.323,1422.68L338.375,1422.67L338.517,1422.65L338.573,1422.64L338.709,1422.62L338.767,1422.62L338.897,1422.6L338.958,1422.59L339.083,1422.58L339.145,1422.58L339.265,1422.57L339.33,1422.56L339.444,1422.56L339.511,1422.56L339.621,1422.55L339.689,1422.55L339.794,1422.55L339.863,1422.56L339.964,1422.56L340.034,1422.56L340.131,1422.57L340.202,1422.58L340.295,1422.59L340.367,1422.6L340.456,1422.61L340.528,1422.62L340.613,1422.63L340.686,1422.65L340.768,1422.66L340.841,1422.68L340.919,1422.7L340.992,1422.72L341.067,1422.74L341.212,1422.79L341.353,1422.84L341.492,1422.89L341.627,1422.95L341.693,1422.98L341.759,1423.02L341.823,1423.05L341.887,1423.09L341.95,1423.13L342.012,1423.16L342.074,1423.2L342.134,1423.25L346.547,1426.51L346.552,1426.56C346.948,1430.52 346.099,1436.2 343.954,1443.26C342.113,1449.33 339.309,1456.52 335.65,1464.62L384.788,1498.4C383.704,1500.75 382.542,1503.19 381.303,1505.71L332.213,1471.96C331.132,1474.2 329.995,1476.5 328.803,1478.85L376.543,1515.07C375.323,1517.4 374.05,1519.78 372.723,1522.22L325.065,1486.05C316.975,1501.32 306.86,1518.46 295.172,1536.5L341.075,1574.53C339.614,1576.75 338.132,1578.99 336.627,1581.24L290.763,1543.24C286.979,1548.96 283.042,1554.76 278.97,1560.61C265.264,1580.29 251.518,1598.36 238.627,1613.9L285.043,1650.98L285.094,1651.02C283.371,1653.12 281.665,1655.17 279.978,1657.17L233.567,1620.1C233.538,1620.08 233.509,1620.05 233.481,1620.03C230.695,1623.3 227.957,1626.44 225.277,1629.44L270.855,1667.55C270.889,1667.58 270.922,1667.6 270.954,1667.63C269.135,1669.69 267.348,1671.67 265.597,1673.58L219.896,1635.37C209.093,1647.07 199.387,1656.26 191.463,1662.27C185.583,1666.74 180.55,1669.5 176.694,1670.51C176.547,1670.55 176.401,1670.58 176.256,1670.62L172.057,1667.51L171.998,1667.47L171.939,1667.43L171.881,1667.38L171.824,1667.34L171.768,1667.29L171.713,1667.24L171.659,1667.19L171.605,1667.14L171.501,1667.03L171.401,1666.92L171.305,1666.81L171.211,1666.69L171.166,1666.62L171.122,1666.56L171.078,1666.5L171.036,1666.43L170.993,1666.36L170.954,1666.3L170.912,1666.23L170.875,1666.16L170.834,1666.08L170.8,1666.02L170.76,1665.93L170.729,1665.87L170.689,1665.78L170.661,1665.72L170.623,1665.62L170.596,1665.56L170.559,1665.46L170.536,1665.4L170.5,1665.29L170.478,1665.23L170.444,1665.12L170.424,1665.06L170.391,1664.94L170.374,1664.88L170.343,1664.76L170.327,1664.7L170.297,1664.57L170.284,1664.52L170.256,1664.38L170.244,1664.33L170.218,1664.19L170.208,1664.13L170.183,1663.99L170.175,1663.93L170.152,1663.78L170.146,1663.73L170.125,1663.57L170.12,1663.53L170.101,1663.35L170.097,1663.31L170.081,1663.13L170.078,1663.1L170.065,1662.91L170.062,1662.88L170.052,1662.68L170.05,1662.65L170.042,1662.44L170.041,1662.42L170.036,1662.21L170.036,1662.19L170.034,1661.95L170.035,1661.71L170.04,1661.46C170.176,1656.15 171.688,1656.08 171.655,1659.22C171.645,1660.2 171.713,1661.07 171.897,1661.8C172.011,1662.26 172.096,1662.67 172.4,1662.88C172.704,1663.09 173.115,1663.03 173.585,1662.98C174.339,1662.89 175.174,1662.66 176.093,1662.31C179.02,1661.19 182.555,1658.99 186.628,1655.9C207.185,1640.3 239.859,1602.78 272.404,1556.04C304.95,1509.3 328.803,1465.63 336.299,1440.94C337.785,1436.05 338.618,1431.97 338.651,1428.84C338.661,1427.86 338.593,1426.99 338.409,1426.25C338.295,1425.79 338.21,1425.39 337.906,1425.18C337.602,1424.96 337.191,1425.03 336.721,1425.08C335.966,1425.16 335.132,1425.4 334.213,1425.75C331.286,1426.87 330.829,1425.42 335.759,1423.45Z" style="fill:rgb(254,164,36);"/>
            </g>
            <g id="COIN-PILE" serif:id="COIN PILE">
                <path d="M1590.61,1601.05C1583.21,1599.81 1577.56,1593.37 1577.56,1585.62L1577.56,1554.32C1577.56,1545.68 1584.57,1538.66 1593.21,1538.66L1816.88,1538.66C1825.52,1538.66 1832.54,1545.68 1832.54,1554.32L1832.54,1585.62C1832.54,1593.37 1826.89,1599.81 1819.49,1601.05C1826.89,1602.3 1832.54,1608.74 1832.54,1616.49L1832.54,1647.79C1832.54,1655.08 1827.54,1661.22 1820.78,1662.95C1827.37,1664.8 1832.2,1670.85 1832.2,1678.02L1832.2,1709.33C1832.2,1717.96 1825.19,1724.98 1816.55,1724.98L1592.88,1724.98C1584.24,1724.98 1577.23,1717.96 1577.23,1709.33L1577.23,1678.02C1577.23,1670.73 1582.22,1664.6 1588.98,1662.86C1582.39,1661.01 1577.56,1654.96 1577.56,1647.79L1577.56,1616.49C1577.56,1608.74 1583.21,1602.3 1590.61,1601.05Z" style="fill:rgb(255,195,103);"/>
                <path d="M1796.62,1593.36L1830.49,1593.36C1828.2,1597.37 1824.2,1600.26 1819.49,1601.05C1819.97,1601.13 1820.45,1601.24 1820.92,1601.36L1816,1601.36L1816,1655.02L1830.77,1655.02C1828.74,1658.9 1825.12,1661.84 1820.78,1662.95C1820.86,1662.97 1820.93,1662.99 1821,1663.02L1794.91,1663.02L1794.91,1724.98L1786.91,1724.98L1786.91,1663.02L1710.98,1663.02L1710.98,1724.98L1702.98,1724.98L1702.98,1663.02L1638.25,1663.02L1638.25,1724.98L1630.25,1724.98L1630.25,1663.02L1622.1,1663.02L1622.1,1724.98L1614.1,1724.98L1614.1,1663.02L1588.42,1663.02C1588.61,1662.96 1588.79,1662.91 1588.98,1662.86C1584.79,1661.68 1581.3,1658.81 1579.33,1655.02L1595.46,1655.02L1595.46,1601.36L1589.18,1601.36C1589.64,1601.24 1590.12,1601.13 1590.61,1601.05C1585.9,1600.26 1581.9,1597.37 1579.61,1593.36L1623.31,1593.36L1623.31,1538.66L1631.31,1538.66L1631.31,1593.36L1648.43,1593.36L1648.43,1538.66L1656.43,1538.66L1656.43,1593.36L1696.7,1593.36L1696.7,1538.66L1704.7,1538.66L1704.7,1593.36L1788.62,1593.36L1788.62,1538.66L1796.62,1538.66L1796.62,1593.36ZM1603.46,1601.36L1603.46,1655.02L1675.48,1655.02L1675.48,1601.36L1603.46,1601.36ZM1683.48,1601.36L1683.48,1655.02L1729.4,1655.02L1729.4,1601.36L1683.48,1601.36ZM1737.4,1601.36L1737.4,1655.02L1749.24,1655.02L1749.24,1601.36L1737.4,1601.36ZM1757.24,1601.36L1757.24,1655.02L1808,1655.02L1808,1601.36L1757.24,1601.36Z" style="fill:rgb(254,164,36);"/>
            </g>
            <g id="COIN-RIGHT" serif:id="COIN RIGHT">
                <g>
                    <path d="M1867.64,1456.81C1910.12,1442.56 1966.52,1478.14 1997.07,1540.15C2028.13,1603.2 2021.25,1670.78 1982.39,1694.77L1982.58,1695.17L1941.26,1716.63C1940.04,1717.35 1938.79,1718.03 1937.51,1718.66C1936.97,1718.92 1936.42,1719.18 1935.88,1719.43L1934.22,1720.29L1934.16,1720.18C1891.3,1738.03 1832.37,1702.19 1800.88,1638.28C1768.57,1572.69 1777.32,1502.21 1820.41,1480.98C1820.41,1480.98 1857.72,1461.12 1860.44,1459.78C1862.55,1458.74 1864.7,1457.84 1866.89,1457.07L1867.59,1456.71L1867.64,1456.81Z" style="fill:rgb(255,205,128);"/>
                    <g transform="matrix(0.988188,-0.445111,0.449996,0.999033,-698.686,842.643)">
                        <ellipse cx="1929.11" cy="1593.42" rx="65.501" ry="99.111" style="fill:rgb(254,164,36);"/>
                    </g>
                    <path d="M1886.49,1453.69L1887.1,1453.68C1881.36,1454.82 1875.77,1456.68 1870.42,1459.32C1852.31,1468.24 1839.62,1484.64 1832.8,1505.04C1822.33,1536.37 1825.63,1577.01 1844.5,1615.31C1863.37,1653.62 1893.58,1681.01 1924.81,1691.79C1945.13,1698.81 1965.87,1698.75 1983.98,1689.83C1989.34,1687.18 1994.22,1683.89 1998.62,1680.03L1998.47,1680.21L1998.33,1680.4L1998.19,1680.58L1997.95,1680.88L1997.82,1681.05L1997.65,1681.25L1997.53,1681.4L1997.5,1681.44L1997.27,1681.71L1997.14,1681.87L1996.94,1682.11L1996.87,1682.2L1996.79,1682.28L1996.58,1682.54L1996.46,1682.68L1996.19,1682.99L1996.09,1683.1L1995.87,1683.35L1995.76,1683.48L1995.48,1683.79L1995.38,1683.9L1995.15,1684.15L1995.05,1684.26L1994.76,1684.58L1994.66,1684.69L1994.41,1684.95L1994.33,1685.03L1994.03,1685.35L1993.93,1685.45L1993.64,1685.75L1993.61,1685.79L1993.58,1685.81L1993.28,1686.11L1993.18,1686.21L1992.87,1686.53L1992.8,1686.59L1992.52,1686.86L1992.43,1686.95L1992.11,1687.26L1992.03,1687.34L1991.74,1687.6L1991.67,1687.68L1991.33,1687.99L1991.25,1688.06L1990.95,1688.34L1990.89,1688.39L1990.55,1688.69L1990.46,1688.77L1990.12,1689.08L1990.1,1689.09L1989.75,1689.39L1989.66,1689.47L1989.31,1689.77L1989.26,1689.81L1988.94,1690.08L1988.85,1690.14L1988.5,1690.44L1988.42,1690.49L1988.11,1690.75L1988.04,1690.81L1987.67,1691.09L1987.59,1691.16L1987.25,1691.42L1987.21,1691.45L1986.83,1691.74L1986.75,1691.8L1986.37,1692.08L1985.98,1692.36L1985.89,1692.43L1985.51,1692.7L1985.47,1692.73L1985.12,1692.98L1985.03,1693.04L1984.65,1693.3L1984.58,1693.35L1984.23,1693.58L1984.16,1693.63L1983.77,1693.89L1983.69,1693.95L1983.33,1694.18L1983.28,1694.21L1982.88,1694.46L1982.79,1694.52L1982.39,1694.77L1982.58,1695.17L1965.89,1703.84C1959.1,1704.91 1952.13,1705.09 1945.09,1704.42C1945.06,1704.44 1945.02,1704.46 1944.98,1704.48L1908.43,1724.72C1904,1724.57 1899.5,1724 1894.97,1723.03L1932.38,1702.31C1928.98,1701.51 1925.58,1700.52 1922.19,1699.35C1910.39,1695.27 1898.71,1688.97 1887.66,1680.7L1853.03,1702.94C1850.81,1701.28 1848.6,1699.53 1846.41,1697.69L1881.04,1675.45C1878.47,1673.29 1875.94,1671.02 1873.46,1668.65L1837.99,1690.05C1836.05,1688.16 1834.13,1686.2 1832.25,1684.18L1867.66,1662.8C1855.99,1650.44 1845.61,1635.66 1837.33,1618.85C1835.37,1614.87 1833.57,1610.87 1831.93,1606.85L1795.18,1625.65C1794.16,1623.15 1793.19,1620.65 1792.28,1618.15L1829.05,1599.34C1823.43,1583.64 1820.2,1567.86 1819.25,1552.71L1781.66,1568.45C1781.48,1565.57 1781.39,1562.72 1781.38,1559.9L1818.95,1544.16C1818.86,1531.89 1820.3,1520.13 1823.19,1509.28L1786,1525.29C1787.05,1521.72 1788.28,1518.28 1789.69,1514.99L1825.56,1499.55L1825.93,1500.42C1830.35,1488.05 1836.81,1477.11 1845.18,1468.24C1845.18,1468.24 1856.81,1461.64 1860.1,1459.95L1860.44,1459.78C1862.55,1458.74 1864.7,1457.84 1866.89,1457.07L1867.59,1456.71L1867.64,1456.81L1868.09,1456.66L1868.16,1456.64L1868.6,1456.5L1868.68,1456.47L1869.12,1456.34L1869.17,1456.32L1869.6,1456.19L1869.66,1456.17L1870.1,1456.05L1870.18,1456.02L1870.62,1455.9L1870.69,1455.88L1871.13,1455.76L1871.16,1455.75L1871.61,1455.63L1871.69,1455.61L1872.14,1455.5L1872.21,1455.48L1872.67,1455.37L1872.68,1455.37L1873.15,1455.26L1873.21,1455.24L1873.66,1455.14L1873.74,1455.13L1874.2,1455.03L1874.24,1455.02L1874.7,1454.92L1874.73,1454.92L1875.2,1454.82L1875.27,1454.81L1875.74,1454.72L1875.79,1454.71L1876.27,1454.62L1876.76,1454.54L1876.81,1454.53L1877.29,1454.46L1877.34,1454.45L1877.83,1454.37L1878.33,1454.3L1878.36,1454.3L1878.84,1454.23L1878.9,1454.22L1879.38,1454.16L1879.42,1454.16L1879.91,1454.1L1879.92,1454.1L1880.41,1454.05L1880.47,1454.04L1880.94,1453.99L1881.01,1453.98L1881.5,1453.94L1881.97,1453.9L1882.05,1453.89L1882.51,1453.86L1882.61,1453.85L1883.06,1453.82L1883.15,1453.81L1883.44,1453.8L1883.87,1453.77L1884.03,1453.76L1884.55,1453.74L1884.61,1453.74L1885.22,1453.71L1885.84,1453.7L1885.85,1453.7L1886.46,1453.69L1886.49,1453.69Z" style="fill:rgb(254,164,36);"/>
                </g>
                <g transform="matrix(1.06161,0.103884,0.0723352,1.05803,652.489,1075.26)">
                    <g transform="matrix(168.886,-75.1162,75.4425,169.619,1155.79,433.379)">
                        <path d="M0.084,-0.173C0.141,-0.126 0.208,-0.103 0.286,-0.102C0.379,-0.103 0.425,-0.136 0.427,-0.201C0.427,-0.254 0.396,-0.286 0.334,-0.297C0.305,-0.301 0.274,-0.305 0.24,-0.31C0.179,-0.32 0.132,-0.343 0.1,-0.378C0.067,-0.414 0.051,-0.458 0.051,-0.51C0.051,-0.572 0.071,-0.622 0.113,-0.66C0.153,-0.698 0.21,-0.717 0.283,-0.718C0.372,-0.716 0.449,-0.691 0.514,-0.644L0.454,-0.555C0.401,-0.59 0.342,-0.609 0.278,-0.61C0.245,-0.61 0.217,-0.602 0.195,-0.585C0.172,-0.568 0.16,-0.542 0.159,-0.508C0.159,-0.487 0.167,-0.469 0.183,-0.452C0.199,-0.435 0.225,-0.424 0.26,-0.417C0.279,-0.414 0.306,-0.41 0.34,-0.406C0.407,-0.397 0.456,-0.373 0.488,-0.334C0.519,-0.296 0.535,-0.252 0.535,-0.201C0.532,-0.065 0.448,0.004 0.285,0.006C0.18,0.006 0.089,-0.027 0.013,-0.092L0.084,-0.173Z" style="fill:rgb(255,205,128);fill-rule:nonzero;"/>
                    </g>
                    <g transform="matrix(0.997551,-0.0699429,0.0699429,0.997551,-10.4887,84.6732)">
                        <path d="M1135.29,271.097L1178.59,431.431L1200.38,424.752L1153.79,265.426L1135.29,271.097Z" style="fill:rgb(255,205,128);"/>
                    </g>
                </g>
            </g>
        </g>
    </g>
    <defs>
        <linearGradient id="_Linear1" x1="0" y1="0" x2="1" y2="0" gradientUnits="userSpaceOnUse" gradientTransform="matrix(-193.361,-518.418,518.418,-193.361,747.761,970.439)"><stop offset="0" style="stop-color:rgb(232,97,53);stop-opacity:1"/><stop offset="0.59" style="stop-color:rgb(236,109,71);stop-opacity:1"/><stop offset="0.8" style="stop-color:rgb(246,136,111);stop-opacity:1"/><stop offset="1" style="stop-color:rgb(255,163,150);stop-opacity:1"/></linearGradient>
        <linearGradient id="_Linear2" x1="0" y1="0" x2="1" y2="0" gradientUnits="userSpaceOnUse" gradientTransform="matrix(-357.226,-226.309,226.309,-357.226,466.719,484.764)"><stop offset="0" style="stop-color:rgb(232,97,53);stop-opacity:1"/><stop offset="1" style="stop-color:rgb(255,163,150);stop-opacity:1"/></linearGradient>
        <linearGradient id="_Linear3" x1="0" y1="0" x2="1" y2="0" gradientUnits="userSpaceOnUse" gradientTransform="matrix(79.4304,437.257,-437.257,79.4304,1456.37,640.835)"><stop offset="0" style="stop-color:rgb(255,176,0);stop-opacity:1"/><stop offset="1" style="stop-color:rgb(253,149,0);stop-opacity:1"/></linearGradient>
        <linearGradient id="_Linear4" x1="0" y1="0" x2="1" y2="0" gradientUnits="userSpaceOnUse" gradientTransform="matrix(-247.194,-413.158,413.158,-247.194,1150.07,1605.86)"><stop offset="0" style="stop-color:rgb(168,207,204);stop-opacity:1"/><stop offset="0.58" style="stop-color:rgb(185,213,209);stop-opacity:1"/><stop offset="0.8" style="stop-color:rgb(221,227,220);stop-opacity:1"/><stop offset="1" style="stop-color:rgb(255,240,230);stop-opacity:1"/></linearGradient>
    </defs>
</svg>
