<?xml version="1.0" encoding="UTF-8" standalone="no"?>
<!DOCTYPE svg PUBLIC "-//W3C//DTD SVG 1.1//EN" "http://www.w3.org/Graphics/SVG/1.1/DTD/svg11.dtd">
<svg width="100%" height="100%" viewBox="0 0 2732 2048" version="1.1" xmlns="http://www.w3.org/2000/svg" xmlns:xlink="http://www.w3.org/1999/xlink" xml:space="preserve" xmlns:serif="http://www.serif.com/" style="fill-rule:evenodd;clip-rule:evenodd;stroke-linejoin:round;stroke-miterlimit:2;">
    <g transform="matrix(1,0,0,1,-112.988,-33.6625)">
        <g id="_2--INCOME-INEQUALITY" serif:id="2 -INCOME INEQUALITY">
            <g id="CHARACTER-2" serif:id="CHARACTER 2">
                <g id="GREEN-CHARACTER" serif:id="GREEN CHARACTER">
                    <g>
                        <g>
                            <path d="M1154.36,986.542C1154.36,986.542 976.795,966.598 908.036,1094.93C884.898,1138.11 713.4,1538.54 695.22,1696.35C695.22,1696.35 653.921,1709.41 648.185,1730.61L891.471,1730.61C894.049,1730.61 896.375,1729.06 897.369,1726.68C915.121,1684.21 1070.9,1311.49 1070.9,1311.49C1070.9,1311.49 1090.93,1649.35 1095.02,1718.38C1095.43,1725.25 1101.12,1730.61 1108,1730.61C1154.12,1730.61 1314.76,1730.61 1314.76,1730.61C1314.76,1730.61 1309.06,1708.34 1267.34,1696.35C1267.34,1696.35 1289.9,1170.78 1227.27,1039.19L1154.36,986.542Z" style="fill:url(#_Linear1);"/>
                            <path d="M1036.41,1394.01L1058.37,1172.45C1058.52,1170.91 1059.83,1169.75 1061.38,1169.79C1062.92,1169.83 1064.17,1171.06 1064.24,1172.61L1070.5,1312.45L1036.41,1394.01Z" style="fill:rgb(19,82,78);"/>
                            <path d="M1271.29,1493.85C1271.29,1497.21 1271.28,1500.54 1271.27,1503.85L1082.3,1503.85L1081.71,1493.85L1271.29,1493.85ZM748.574,1493.85L994.682,1493.85L990.503,1503.85L745.218,1503.85L745.271,1503.69C746.332,1500.51 747.399,1497.34 748.471,1494.16L748.574,1493.85Z" style="fill:rgb(130,181,178);"/>
                        </g>
                        <g>
                            <g transform="matrix(1,0,0,1,0.542871,-12.7912)">
                                <circle cx="1017.67" cy="626.25" r="65.348" style="fill:rgb(168,207,204);"/>
                            </g>
                            <path d="M1013.39,548.287C1016.69,561.606 1021.46,595.194 996.632,624.872C994,620.61 989.237,617.76 983.804,617.76C975.523,617.76 968.801,624.378 968.801,632.528C968.801,640.679 975.523,647.297 983.804,647.297C985.236,647.297 986.622,647.098 987.935,646.728C988.122,651.875 986.791,659.071 980.479,666.801C963.779,654.961 952.869,635.474 952.869,613.459C952.869,579.015 979.574,550.76 1013.39,548.287Z"/>
                            <path d="M964.508,646.524C962.65,647.614 957.971,647.45 955.843,647.877C948.863,649.276 941.923,650.899 935.013,652.607C913.642,657.888 892.575,664.243 872.638,673.683C858.133,680.551 842.946,689.245 836.083,704.465C826.107,726.589 843.837,746.446 866.887,744.368C889.117,742.364 906.564,726.258 921.376,711.112C938.706,693.391 958.494,674.29 971.781,653.141"/>
                        </g>
                        <g>
                            <path d="M888.234,793.406C877.174,805.19 779.874,911.565 706.766,993.632C682.238,1021.39 680.016,1062.37 701.399,1092.62C701.396,1092.63 701.397,1092.63 701.397,1092.63C720.178,1119.2 754.171,1130.29 785.008,1119.91C818.421,1108.65 864.054,1082.65 917.159,1024.4C944.135,994.809 965.58,967.79 983.276,951.249C983.276,951.249 1060.91,976.224 1100.84,933.416C1100.84,933.416 1198.32,1057.97 1292.66,1107.62C1329.97,1127.02 1375.94,1114 1397.53,1077.91C1407.58,1061.25 1411.8,1041.19 1400.49,1019.41C1350.97,924.013 1273.21,851.831 1154.36,737.558C1131.29,715.37 1090.95,683.679 1012.82,701.764C983.383,708.578 947.501,730.259 888.234,793.406Z" style="fill:rgb(168,207,204);"/>
                            <path d="M1059.27,871.822C1059.27,871.822 1061.83,871.162 1064.85,871.435C1067.41,871.666 1070.44,872.571 1072,875.793C1074.09,880.126 1070.93,883.703 1066.11,887.358C1056.34,894.772 1039.13,901.256 1023.89,907.461C1021.84,908.293 1020.86,910.629 1021.69,912.674C1022.52,914.718 1024.86,915.703 1026.9,914.87C1042.83,908.389 1060.74,901.477 1070.95,893.731C1079.47,887.268 1082.9,879.982 1079.2,872.316C1076.18,866.061 1070.54,863.917 1065.57,863.467C1061.06,863.06 1057.23,864.088 1057.23,864.088C1055.09,864.652 1053.82,866.843 1054.38,868.977C1054.95,871.112 1057.14,872.387 1059.27,871.822Z" style="fill:rgb(130,181,178);"/>
                            <path d="M1090.25,855.476C1090.25,855.476 1095.01,850.861 1101.49,847.178C1105.54,844.879 1110.28,842.881 1114.93,842.905C1116.83,842.908 1118.62,843.733 1119.85,845.165C1121.08,846.596 1121.62,848.492 1121.33,850.356C1120.55,854.847 1118.41,860.944 1112.89,866.762C1105.3,874.767 1086.09,898.936 1024.91,906.683C1022.72,906.96 1021.17,908.964 1021.45,911.154C1021.73,913.344 1023.73,914.897 1025.92,914.62C1090.49,906.441 1110.68,880.719 1118.7,872.268C1125.6,864.998 1128.23,857.363 1129.23,851.651C1129.88,847.401 1128.67,843.161 1125.93,839.959C1123.18,836.757 1119.18,834.911 1114.96,834.905C1108.96,834.875 1102.77,837.251 1097.54,840.221C1090.11,844.441 1084.67,849.74 1084.67,849.74C1083.09,851.279 1083.05,853.814 1084.59,855.397C1086.13,856.979 1088.66,857.015 1090.25,855.476Z" style="fill:rgb(130,181,178);"/>
                            <path d="M1100.65,881.689C1100.65,881.689 1090.4,907.851 1080.28,917.962C1078.72,919.523 1078.72,922.058 1080.28,923.619C1081.84,925.181 1084.38,925.181 1085.94,923.62C1096.84,912.723 1108.09,884.637 1108.09,884.637C1108.9,882.585 1107.9,880.258 1105.84,879.444C1103.79,878.631 1101.46,879.637 1100.65,881.689Z" style="fill:rgb(130,181,178);"/>
                            <path d="M1069.84,898.948L1069.84,908.363C1069.84,910.571 1071.63,912.363 1073.84,912.363C1076.04,912.363 1077.84,910.571 1077.84,908.363L1077.84,898.948C1077.84,896.741 1076.04,894.948 1073.84,894.948C1071.63,894.948 1069.84,896.741 1069.84,898.948Z" style="fill:rgb(130,181,178);"/>
                            <path d="M1098.45,747.788C1098.45,747.788 1092.05,750.44 1089.04,757.735C1087.19,762.213 1086.51,768.577 1090.01,777.319C1094.05,787.392 1104.44,817.208 1090.32,840.159C1089.16,842.039 1089.75,844.504 1091.62,845.662C1093.51,846.819 1095.97,846.232 1097.13,844.352C1112.87,818.783 1101.93,785.566 1097.43,774.342C1095.01,768.283 1095.15,763.892 1096.43,760.789C1098.12,756.714 1101.59,755.144 1101.59,755.144C1103.62,754.276 1104.57,751.923 1103.7,749.893C1102.83,747.864 1100.48,746.92 1098.45,747.788Z" style="fill:rgb(130,181,178);"/>
                            <path d="M945.739,992.07C936.951,1002.18 927.458,1013.1 917.159,1024.4C864.054,1082.65 818.421,1108.65 785.008,1119.91C754.171,1130.29 720.178,1119.2 701.397,1092.63C701.397,1092.63 701.396,1092.63 701.399,1092.62C680.016,1062.37 682.238,1021.39 706.766,993.632C779.874,911.565 877.174,805.19 888.234,793.406C947.501,730.259 983.383,708.578 1012.82,701.764C1090.95,683.679 1131.29,715.37 1154.36,737.558C1273.21,851.831 1350.97,924.013 1400.49,1019.41C1411.8,1041.19 1407.58,1061.25 1397.53,1077.91C1380.09,1107.06 1346.74,1121.16 1314.9,1115.28L1287.85,1105.03C1255.27,1087.03 1222.51,1060.52 1193.7,1033.68C1177.3,1016.64 1166.06,1003.66 1166.06,1003.66L1213.85,885.645L1136.88,831.067C1133.64,808.739 1132.36,794.469 1125.45,779.673C1123.57,775.625 1121.26,771.538 1118.37,767.236C1104.94,747.207 1096.48,759.129 1096.48,759.129C1090.24,751.426 1084.45,747.878 1080.59,746.249C1078.55,745.438 1076.26,745.581 1074.34,746.639C1072.43,747.697 1071.09,749.559 1070.69,751.712C1069.76,757.006 1073,762.975 1074.75,765.715C1075.29,766.545 1075.91,767.322 1076.6,768.034C1114.53,807.246 1093.56,851.261 1093.56,851.261C1074.82,874.328 1041.36,873.781 1041.36,873.781C1016.89,875.75 1001.5,868.206 992.772,861.327C979.794,851.128 962.629,847.964 946.867,852.867C908.397,865.127 866.887,901.648 866.887,901.648L945.739,992.07Z" style="fill:url(#_Linear2);"/>
                            <path d="M983.387,951.284L1022.6,907.429C1022.6,907.429 1069.85,929.001 1084.82,912.124L1103.81,937.139C1101.86,934.73 1100.84,933.416 1100.84,933.416C1061.79,975.286 986.659,952.311 983.387,951.284Z" style="fill:rgb(130,181,178);"/>
                            <path d="M875.684,894.383C870.146,898.781 866.887,901.648 866.887,901.648L873.339,909.047L756.082,1006.25C753.957,1008.01 750.803,1007.71 749.041,1005.59C747.28,1003.46 747.575,1000.31 749.7,998.549L874.452,895.134C874.834,894.818 875.25,894.567 875.684,894.383ZM1208.09,881.56C1209.14,881.626 1210.19,882.025 1211.05,882.77L1325.24,981.722C1327.32,983.53 1327.55,986.69 1325.74,988.775C1323.93,990.861 1320.77,991.087 1318.69,989.28L1210.02,895.111L1213.85,885.645L1208.09,881.56ZM887.058,885.719C887.647,876.09 889.316,857.252 893.846,840.77C894.334,839.25 895.765,838.233 897.361,838.272C898.957,838.311 900.337,839.396 900.75,840.938C903.208,850.059 906.578,862.614 908.848,871.076C900.802,875.993 893.366,881.109 887.058,885.719ZM1162.67,849.358L1168.03,823.841C1168.23,822.886 1169,822.153 1169.96,821.995C1170.92,821.837 1171.88,822.286 1172.37,823.126C1175.4,829.819 1179.96,842.71 1182.17,863.186L1162.67,849.358Z" style="fill:rgb(19,82,78);"/>
                        </g>
                    </g>
                </g>
                <g id="HOLD-COIN" serif:id="HOLD COIN" transform="matrix(1,0,0,1,-0.663213,-9.56306)">
                    <g transform="matrix(0.989104,0,0,0.97553,10.8951,17.823)">
                        <circle cx="1038.99" cy="824.953" r="64.215" style="fill:rgb(255,205,128);"/>
                    </g>
                    <g transform="matrix(0.828837,0,0,0.817462,177.27,147.826)">
                        <circle cx="1038.99" cy="824.953" r="64.215" style="fill:rgb(255,176,0);"/>
                    </g>
                    <g transform="matrix(0.49913,0.188391,-0.184731,0.489433,516.527,430.214)">
                        <g transform="matrix(168.886,-75.1162,75.4425,169.619,1155.79,433.379)">
                            <path d="M0.084,-0.173C0.141,-0.126 0.208,-0.103 0.286,-0.102C0.379,-0.103 0.425,-0.136 0.427,-0.201C0.427,-0.254 0.396,-0.286 0.334,-0.297C0.305,-0.301 0.274,-0.305 0.24,-0.31C0.179,-0.32 0.132,-0.343 0.1,-0.378C0.067,-0.414 0.051,-0.458 0.051,-0.51C0.051,-0.572 0.071,-0.622 0.113,-0.66C0.153,-0.698 0.21,-0.717 0.283,-0.718C0.372,-0.716 0.449,-0.691 0.514,-0.644L0.454,-0.555C0.401,-0.59 0.342,-0.609 0.278,-0.61C0.245,-0.61 0.217,-0.602 0.195,-0.585C0.172,-0.568 0.16,-0.542 0.159,-0.508C0.159,-0.487 0.167,-0.469 0.183,-0.452C0.199,-0.435 0.225,-0.424 0.26,-0.417C0.279,-0.414 0.306,-0.41 0.34,-0.406C0.407,-0.397 0.456,-0.373 0.488,-0.334C0.519,-0.296 0.535,-0.252 0.535,-0.201C0.532,-0.065 0.448,0.004 0.285,0.006C0.18,0.006 0.089,-0.027 0.013,-0.092L0.084,-0.173Z" style="fill:rgb(255,205,128);fill-rule:nonzero;"/>
                        </g>
                        <g transform="matrix(0.997551,-0.0699429,0.0699429,0.997551,-10.4887,84.6732)">
                            <path d="M1135.29,271.097L1178.59,431.431L1200.38,424.752L1153.79,265.426L1135.29,271.097Z" style="fill:rgb(255,205,128);"/>
                        </g>
                    </g>
                </g>
                <g id="SMALL-COINS-PILE" serif:id="SMALL COINS PILE">
                    <path d="M789.358,1579.44C783.32,1578.35 778.736,1573.06 778.736,1566.71L778.736,1540.83C778.736,1533.69 784.534,1527.89 791.675,1527.89L937.02,1527.89C944.162,1527.89 949.96,1533.69 949.96,1540.83L949.96,1566.71C949.96,1573.06 945.376,1578.35 939.338,1579.44C945.376,1580.54 949.96,1585.83 949.96,1592.18L949.96,1618.06C949.96,1624.41 945.376,1629.69 939.338,1630.79C945.376,1631.88 949.96,1637.17 949.96,1643.52L949.96,1669.4C949.96,1675.75 945.376,1681.04 939.338,1682.13C945.376,1683.23 949.96,1688.51 949.96,1694.86L949.96,1720.74C949.96,1727.88 944.162,1733.68 937.02,1733.68L791.675,1733.68C784.534,1733.68 778.736,1727.88 778.736,1720.74L778.736,1694.86C778.736,1688.51 783.32,1683.23 789.358,1682.13C783.32,1681.04 778.736,1675.75 778.736,1669.4L778.736,1643.52C778.736,1637.17 783.32,1631.88 789.358,1630.79C783.32,1629.69 778.736,1624.41 778.736,1618.06L778.736,1592.18C778.736,1585.83 783.32,1580.54 789.358,1579.44Z" style="fill:rgb(255,205,128);"/>
                    <path d="M915.651,1527.89L915.651,1569.3L949.217,1569.3C949.379,1569.3 949.539,1569.31 949.696,1569.32C948.689,1574.24 944.892,1578.14 940.035,1579.3L939.777,1579.3L939.777,1579.36C939.632,1579.39 939.486,1579.42 939.338,1579.44C939.486,1579.47 939.632,1579.5 939.777,1579.53L939.777,1620.63L949.217,1620.63C949.379,1620.63 949.54,1620.64 949.698,1620.65C948.696,1625.56 944.916,1629.46 940.075,1630.63L929.381,1630.63L929.381,1671.97L949.217,1671.97C949.38,1671.97 949.541,1671.97 949.7,1671.99C948.704,1676.88 944.94,1680.78 940.115,1681.97L913.592,1681.97L913.592,1733.68L903.592,1733.68L903.592,1681.97L894.129,1681.97L894.129,1733.68L884.129,1733.68L884.129,1681.97L817.715,1681.97L817.715,1733.68L807.715,1733.68L807.715,1681.97L788.581,1681.97C783.749,1680.78 779.98,1676.87 778.991,1671.97L841.826,1671.97L841.826,1630.63L788.621,1630.63C783.772,1629.46 779.987,1625.55 778.993,1620.63L793.398,1620.63L793.398,1579.3L788.661,1579.3C783.797,1578.14 779.996,1574.22 778.995,1569.3L820.993,1569.3L820.993,1527.89L830.993,1527.89L830.993,1569.3L885.343,1569.3L885.343,1527.89L895.343,1527.89L895.343,1569.3L905.651,1569.3L905.651,1527.89L915.651,1527.89ZM851.826,1630.63L851.826,1671.97L859.385,1671.97L859.385,1630.63L851.826,1630.63ZM869.385,1630.63L869.385,1671.97L919.381,1671.97L919.381,1630.63L869.385,1630.63ZM803.398,1579.3L803.398,1620.63L877.953,1620.63L877.953,1579.3L803.398,1579.3ZM887.953,1579.3L887.953,1620.63L929.777,1620.63L929.777,1579.3L887.953,1579.3Z" style="fill:rgb(253,164,37);"/>
                </g>
            </g>
            <g id="CHARACTER-21" serif:id="CHARACTER 2">
                <g id="TALL-COIN-PILE-" serif:id="TALL COIN PILE " transform="matrix(1,0,0,1.0207,3.92294,-17.1615)">
                    <g transform="matrix(1,0,0,0.979722,-3.92294,16.8135)">
                        <path d="M2133.59,890.287C2126.75,886.91 2122.04,879.86 2122.04,871.719L2122.04,830.331C2122.04,818.909 2131.31,809.637 2142.73,809.637L2456.99,809.637C2468.41,809.637 2477.68,818.909 2477.68,830.331L2477.68,871.719C2477.68,879.86 2472.97,886.91 2466.12,890.287C2472.97,893.665 2477.68,900.715 2477.68,908.856L2477.68,950.244C2477.68,957.402 2474.04,963.716 2468.51,967.432C2474.04,971.149 2477.68,977.462 2477.68,984.62L2477.68,1026.01C2477.68,1033.17 2474.04,1039.48 2468.51,1043.2C2474.04,1046.91 2477.68,1053.23 2477.68,1060.38L2477.68,1101.77C2477.68,1108.93 2474.04,1115.24 2468.51,1118.96C2474.04,1122.68 2477.68,1128.99 2477.68,1136.15L2477.68,1177.54C2477.68,1184.69 2474.04,1191.01 2468.51,1194.73C2474.04,1198.44 2477.68,1204.76 2477.68,1211.91L2477.68,1253.3C2477.68,1260.46 2474.04,1266.77 2468.51,1270.49C2474.04,1274.21 2477.68,1280.52 2477.68,1287.68L2477.68,1329.07C2477.68,1336.22 2474.04,1342.54 2468.51,1346.25C2474.04,1349.97 2477.68,1356.28 2477.68,1363.44L2477.68,1404.83C2477.68,1411.99 2474.04,1418.3 2468.51,1422.02C2474.04,1425.74 2477.68,1432.05 2477.68,1439.21L2477.68,1480.6C2477.68,1487.75 2474.04,1494.07 2468.51,1497.78C2474.04,1501.5 2477.68,1507.81 2477.68,1514.97L2477.68,1556.36C2477.68,1563.52 2474.04,1569.83 2468.51,1573.55C2474.04,1577.26 2477.68,1583.58 2477.68,1590.74L2477.68,1632.12C2477.68,1639.28 2474.04,1645.6 2468.51,1649.31C2474.04,1653.03 2477.68,1659.34 2477.68,1666.5L2477.68,1707.89C2477.68,1719.31 2468.41,1728.58 2456.99,1728.58L2142.73,1728.58C2131.31,1728.58 2122.04,1719.31 2122.04,1707.89L2122.04,1666.5C2122.04,1659.34 2125.68,1653.03 2131.21,1649.31C2125.68,1645.6 2122.04,1639.28 2122.04,1632.12L2122.04,1590.74C2122.04,1583.58 2125.68,1577.26 2131.21,1573.55C2125.68,1569.83 2122.04,1563.52 2122.04,1556.36L2122.04,1514.97C2122.04,1507.81 2125.68,1501.5 2131.21,1497.78C2125.68,1494.07 2122.04,1487.75 2122.04,1480.6L2122.04,1439.21C2122.04,1432.05 2125.68,1425.74 2131.21,1422.02C2125.68,1418.3 2122.04,1411.99 2122.04,1404.83L2122.04,1363.44C2122.04,1356.28 2125.68,1349.97 2131.21,1346.25C2125.68,1342.54 2122.04,1336.22 2122.04,1329.07L2122.04,1287.68C2122.04,1280.52 2125.68,1274.21 2131.21,1270.49C2125.68,1266.77 2122.04,1260.46 2122.04,1253.3L2122.04,1211.91C2122.04,1204.76 2125.68,1198.44 2131.21,1194.73C2125.68,1191.01 2122.04,1184.69 2122.04,1177.54L2122.04,1136.15C2122.04,1128.99 2125.68,1122.68 2131.21,1118.96C2125.68,1115.24 2122.04,1108.93 2122.04,1101.77L2122.04,1060.38C2122.04,1053.23 2125.68,1046.91 2131.21,1043.2C2125.68,1039.48 2122.04,1033.17 2122.04,1026.01L2122.04,984.62C2122.04,977.462 2125.68,971.149 2131.21,967.432C2125.68,963.716 2122.04,957.402 2122.04,950.244L2122.04,908.856C2122.04,900.715 2126.75,893.665 2133.59,890.287Z" style="fill:rgb(255,205,128);"/>
                    </g>
                    <g transform="matrix(1,0,0,0.979722,-3.92294,16.8135)">
                        <path d="M2381.06,809.637L2381.06,879.787L2419.36,879.787C2419.87,877.57 2421.86,875.914 2424.23,875.914C2426.6,875.914 2428.59,877.57 2429.1,879.787L2476.04,879.787C2474.24,884.031 2471.07,887.551 2467.08,889.787L2429.23,889.787L2429.23,957.699L2476.29,957.699C2474.75,961.687 2472.01,965.08 2468.51,967.432C2468.64,967.519 2468.76,967.608 2468.89,967.699L2460.12,967.699L2460.12,1035.13C2460.12,1035.29 2460.11,1035.45 2460.1,1035.61L2475.32,1035.61C2473.71,1038.67 2471.36,1041.28 2468.51,1043.2C2469.57,1043.91 2470.56,1044.72 2471.47,1045.61L2418.7,1045.61L2418.7,1109.75L2476.08,1109.75C2474.51,1113.51 2471.85,1116.71 2468.51,1118.96C2468.88,1119.21 2469.25,1119.48 2469.6,1119.75L2448.74,1119.75L2448.74,1185.44L2476.11,1185.44C2474.54,1189.24 2471.87,1192.46 2468.51,1194.73C2468.85,1194.95 2469.18,1195.19 2469.51,1195.44L2413.24,1195.44L2413.24,1261.23L2476.11,1261.23C2474.53,1265.01 2471.87,1268.23 2468.51,1270.49C2468.86,1270.73 2469.2,1270.97 2469.53,1271.23L2446.67,1271.23L2446.67,1337.63L2475.82,1337.63C2474.23,1341.14 2471.68,1344.12 2468.51,1346.25C2469.14,1346.68 2469.75,1347.14 2470.33,1347.63L2403.42,1347.63L2403.42,1412.5L2476.21,1412.5C2474.65,1416.39 2471.95,1419.71 2468.51,1422.02C2468.74,1422.17 2468.96,1422.33 2469.18,1422.5L2432.5,1422.5L2432.5,1487.31L2476.56,1487.31C2475.17,1491.36 2472.57,1494.84 2469.18,1497.31L2400.25,1497.31L2400.25,1564.15L2476.16,1564.15C2474.6,1567.99 2471.91,1571.26 2468.51,1573.55C2468.79,1573.74 2469.07,1573.94 2469.35,1574.15L2438.7,1574.15L2438.7,1638.94L2476.53,1638.94C2475.11,1643 2472.47,1646.48 2469.04,1648.94L2367.89,1648.94L2367.89,1728.58L2357.89,1728.58L2357.89,1648.94L2337.69,1648.94L2337.69,1728.58L2327.69,1728.58L2327.69,1648.94L2196.34,1648.94L2196.34,1728.58L2186.34,1728.58L2186.34,1648.94L2130.68,1648.94C2127.25,1646.48 2124.61,1643 2123.19,1638.94L2140.96,1638.94L2140.96,1574.15L2130.37,1574.15C2130.64,1573.94 2130.92,1573.74 2131.21,1573.55C2127.81,1571.26 2125.12,1567.99 2123.55,1564.15L2187.79,1564.15L2187.79,1497.31L2130.54,1497.31C2127.15,1494.84 2124.54,1491.36 2123.15,1487.31L2148.15,1487.31L2148.15,1422.5L2130.53,1422.5C2130.75,1422.33 2130.98,1422.17 2131.21,1422.02C2127.77,1419.71 2125.06,1416.39 2123.51,1412.5L2177.82,1412.5L2177.82,1347.63L2129.38,1347.63C2129.97,1347.14 2130.57,1346.68 2131.21,1346.25C2128.04,1344.12 2125.49,1341.14 2123.89,1337.63L2145.63,1337.63L2145.63,1271.23L2130.18,1271.23C2130.52,1270.97 2130.86,1270.73 2131.21,1270.49C2127.85,1268.23 2125.18,1265.01 2123.61,1261.23L2181.42,1261.23L2181.42,1195.44L2130.21,1195.44C2130.54,1195.19 2130.87,1194.95 2131.21,1194.73C2127.84,1192.46 2125.17,1189.24 2123.6,1185.44L2138.66,1185.44L2138.66,1119.75L2130.11,1119.75C2130.47,1119.48 2130.84,1119.21 2131.21,1118.96C2127.86,1116.71 2125.21,1113.51 2123.63,1109.75L2156.3,1109.75L2156.3,1045.61L2128.25,1045.61C2129.16,1044.72 2130.15,1043.91 2131.21,1043.2C2128.36,1041.28 2126.01,1038.67 2124.4,1035.61L2215.13,1035.61L2215.13,967.699L2163.92,967.699C2163.27,968.006 2162.55,968.177 2161.79,968.177C2161.02,968.177 2160.3,968.006 2159.65,967.699L2130.82,967.699C2130.95,967.608 2131.08,967.519 2131.21,967.432C2127.71,965.08 2124.97,961.687 2123.42,957.699L2156.79,957.699L2156.79,889.787L2132.64,889.787C2128.65,887.551 2125.47,884.03 2123.67,879.787L2156.91,879.787C2157.43,877.57 2159.41,875.914 2161.79,875.914C2164.16,875.914 2166.15,877.57 2166.66,879.787L2229.5,879.787L2229.5,809.637L2239.5,809.637L2239.5,879.787L2250.35,879.787L2250.35,809.637L2260.35,809.637L2260.35,879.787L2289.09,879.787C2289.6,877.57 2291.59,875.914 2293.97,875.914C2296.34,875.914 2298.33,877.57 2298.84,879.787L2314,879.787C2314.52,877.57 2316.5,875.914 2318.88,875.914C2321.25,875.914 2323.24,877.57 2323.75,879.787L2371.06,879.787L2371.06,809.637L2381.06,809.637ZM2150.96,1574.15L2150.96,1638.94L2240.4,1638.94L2240.4,1574.15L2150.96,1574.15ZM2250.4,1574.15L2250.4,1638.94L2265.68,1638.94L2265.68,1574.15L2250.4,1574.15ZM2275.68,1574.15L2275.68,1638.94L2428.7,1638.94L2428.7,1574.15L2275.68,1574.15ZM2197.79,1497.31L2197.79,1564.15L2290.68,1564.15L2290.68,1497.31L2197.79,1497.31ZM2371.17,1497.31L2300.68,1497.31L2300.68,1564.15L2371.14,1564.15L2371.14,1497.84L2371.17,1497.31ZM2381.14,1564.15L2390.25,1564.15L2390.25,1497.31L2381.11,1497.31C2381.13,1497.48 2381.14,1497.66 2381.14,1497.84L2381.14,1564.15ZM2359.71,1422.5L2359.71,1487.31L2422.5,1487.31L2422.5,1422.5L2359.71,1422.5ZM2250.68,1487.31L2349.71,1487.31L2349.71,1422.5L2250.59,1422.5C2250.65,1422.8 2250.68,1423.11 2250.68,1423.42L2250.68,1487.31ZM2240.76,1422.5L2158.15,1422.5L2158.15,1487.31L2240.68,1487.31L2240.68,1423.42C2240.68,1423.12 2240.7,1422.81 2240.76,1422.51L2240.76,1422.5ZM2322.44,1347.63L2322.44,1412.5L2393.42,1412.5L2393.42,1347.63L2322.44,1347.63ZM2299.85,1347.63L2299.85,1412.5L2312.44,1412.5L2312.44,1347.63L2299.85,1347.63ZM2187.82,1347.63L2187.82,1412.5L2289.85,1412.5L2289.85,1347.63L2187.82,1347.63ZM2231.61,1271.23L2231.61,1337.63L2354.01,1337.63L2354.01,1271.23L2231.61,1271.23ZM2155.63,1271.23L2155.63,1337.63L2221.61,1337.63L2221.61,1271.23L2155.63,1271.23ZM2364.01,1271.23L2364.01,1337.63L2436.67,1337.63L2436.67,1271.23L2364.01,1271.23ZM2278.02,1195.44L2278.02,1261.23L2287.94,1261.23L2287.94,1195.44L2278.02,1195.44ZM2227.48,1261.23L2268.02,1261.23L2268.02,1195.44L2191.42,1195.44L2191.42,1261.23L2225.74,1261.23C2226.02,1261.18 2226.31,1261.15 2226.61,1261.15C2226.91,1261.15 2227.2,1261.18 2227.48,1261.23ZM2297.94,1195.44L2297.94,1261.23L2403.24,1261.23L2403.24,1195.44L2297.94,1195.44ZM2409.73,1185.44L2438.74,1185.44L2438.74,1119.75L2356.88,1119.75L2356.88,1185.44L2406.75,1185.44C2407.22,1185.29 2407.72,1185.21 2408.24,1185.21C2408.76,1185.21 2409.26,1185.29 2409.73,1185.44ZM2332.79,1119.75L2332.79,1185.44L2346.88,1185.44L2346.88,1119.75L2332.79,1119.75ZM2148.66,1119.75L2148.66,1185.44L2246.64,1185.44L2246.64,1119.75L2148.66,1119.75ZM2256.64,1119.75L2256.64,1185.44L2322.79,1185.44L2322.79,1119.75L2256.64,1119.75ZM2166.3,1045.61L2166.3,1109.75L2178.51,1109.75L2178.51,1045.61L2166.3,1045.61ZM2303.61,1045.61L2303.61,1109.75L2408.7,1109.75L2408.7,1045.61L2303.61,1045.61ZM2188.51,1045.61L2188.51,1109.75L2293.61,1109.75L2293.61,1045.61L2188.51,1045.61ZM2242.83,967.699L2225.13,967.699L2225.13,1035.61L2242.86,1035.61C2242.84,1035.45 2242.83,1035.29 2242.83,1035.13L2242.83,967.699ZM2363.73,967.699L2321.01,967.699C2320.37,968.006 2319.64,968.177 2318.88,968.177C2318.11,968.177 2317.39,968.006 2316.74,967.699L2296.1,967.699C2295.45,968.006 2294.73,968.177 2293.97,968.177C2293.2,968.177 2292.48,968.006 2291.83,967.699L2252.83,967.699L2252.83,1035.13C2252.83,1035.29 2252.83,1035.45 2252.81,1035.61L2363.75,1035.61C2363.73,1035.45 2363.73,1035.29 2363.73,1035.13L2363.73,967.699ZM2450.12,967.699L2426.37,967.699C2425.72,968.006 2425,968.177 2424.23,968.177C2423.47,968.177 2422.74,968.006 2422.1,967.699L2373.73,967.699L2373.73,1035.13C2373.73,1035.29 2373.72,1035.45 2373.7,1035.61L2450.14,1035.61C2450.13,1035.45 2450.12,1035.29 2450.12,1035.13L2450.12,967.699ZM2166.79,889.787L2166.79,957.699L2288.97,957.699L2288.97,889.787L2166.79,889.787ZM2298.97,889.787L2298.97,957.699L2313.88,957.699L2313.88,889.787L2298.97,889.787ZM2323.88,889.787L2323.88,957.699L2419.23,957.699L2419.23,889.787L2323.88,889.787Z" style="fill:rgb(253,164,37);"/>
                    </g>
                </g>
                <g id="MEDIUM-COIN-PILE" serif:id="MEDIUM COIN PILE" transform="matrix(1,0,0,1.0207,-525.408,-14.3625)">
                    <g transform="matrix(1,0,0,0.979722,525.408,14.0713)">
                        <path d="M1601.88,1349.05C1596.35,1345.34 1592.71,1339.02 1592.71,1331.87L1592.71,1290.48C1592.71,1279.06 1601.98,1269.78 1613.4,1269.78L1927.65,1269.78C1939.08,1269.78 1948.35,1279.06 1948.35,1290.48L1948.35,1331.87C1948.35,1339.02 1944.71,1345.34 1939.18,1349.05C1944.71,1352.77 1948.35,1359.08 1948.35,1366.24L1948.35,1407.63C1948.35,1414.79 1944.71,1421.1 1939.18,1424.82C1944.71,1428.53 1948.35,1434.85 1948.35,1442.01L1948.35,1483.39C1948.35,1490.55 1944.71,1496.87 1939.18,1500.58C1944.71,1504.3 1948.35,1510.61 1948.35,1517.77L1948.35,1559.16C1948.35,1566.32 1944.71,1572.63 1939.18,1576.35C1944.71,1580.06 1948.35,1586.38 1948.35,1593.53L1948.35,1634.92C1948.35,1642.08 1944.71,1648.39 1939.18,1652.11C1944.71,1655.83 1948.35,1662.14 1948.35,1669.3L1948.35,1710.69C1948.35,1722.11 1939.08,1731.38 1927.65,1731.38L1613.4,1731.38C1601.98,1731.38 1592.71,1722.11 1592.71,1710.69L1592.71,1669.3C1592.71,1662.14 1596.35,1655.83 1601.88,1652.11C1596.35,1648.39 1592.71,1642.08 1592.71,1634.92L1592.71,1593.53C1592.71,1586.38 1596.35,1580.06 1601.88,1576.35C1596.35,1572.63 1592.71,1566.32 1592.71,1559.16L1592.71,1517.77C1592.71,1510.61 1596.35,1504.3 1601.88,1500.58C1596.35,1496.87 1592.71,1490.55 1592.71,1483.39L1592.71,1442.01C1592.71,1434.85 1596.35,1428.53 1601.88,1424.82C1596.35,1421.1 1592.71,1414.79 1592.71,1407.63L1592.71,1366.24C1592.71,1359.08 1596.35,1352.77 1601.88,1349.05Z" style="fill:rgb(255,205,128);"/>
                    </g>
                    <g transform="matrix(1,0,0,0.979722,525.408,14.0713)">
                        <path d="M1874.5,1340.55L1946.44,1340.55C1944.84,1344.01 1942.31,1346.95 1939.18,1349.05C1939.86,1349.51 1940.51,1350.01 1941.14,1350.55L1911.47,1350.55L1911.47,1415.3L1911.47,1415.31L1946.87,1415.31C1945.32,1419.2 1942.61,1422.51 1939.18,1424.82C1939.41,1424.98 1939.65,1425.14 1939.88,1425.31L1880.66,1425.31L1880.66,1489.63C1880.66,1489.92 1880.64,1490.2 1880.59,1490.47L1947.1,1490.47C1945.61,1494.56 1942.87,1498.05 1939.34,1500.47L1921.09,1500.47L1921.09,1565.22C1921.09,1565.5 1921.06,1565.78 1921.02,1566.05L1947.17,1566.05C1945.73,1570.12 1943.06,1573.6 1939.6,1576.05L1885.11,1576.05L1885.11,1641.94L1947.12,1641.94C1945.65,1646.03 1942.93,1649.51 1939.42,1651.94L1918.64,1651.94L1918.64,1731.38L1908.64,1731.38L1908.64,1651.94L1844.13,1651.94C1844.13,1652.03 1844.14,1652.11 1844.14,1652.19L1844.14,1731.38L1834.14,1731.38L1834.14,1652.19C1834.14,1652.11 1834.14,1652.03 1834.14,1651.94L1784.82,1651.94C1784.18,1652.24 1783.48,1652.4 1782.74,1652.4C1781.99,1652.4 1781.29,1652.24 1780.65,1651.94L1716.58,1651.94L1716.58,1731.38L1706.58,1731.38L1706.58,1651.94L1689.1,1651.94L1689.1,1731.38L1679.1,1731.38L1679.1,1651.94L1601.63,1651.94C1598.12,1649.51 1595.4,1646.03 1593.93,1641.94L1662.93,1641.94L1662.93,1576.05L1601.45,1576.05C1598,1573.6 1595.32,1570.12 1593.88,1566.05L1619.28,1566.05L1619.28,1500.47L1601.72,1500.47C1598.18,1498.05 1595.44,1494.56 1593.95,1490.47L1655.34,1490.47L1655.34,1425.31L1601.17,1425.31C1601.41,1425.14 1601.64,1424.98 1601.88,1424.82C1598.44,1422.51 1595.74,1419.2 1594.18,1415.31L1616.05,1415.31L1616.05,1350.55L1599.92,1350.55C1600.54,1350.01 1601.19,1349.51 1601.88,1349.05C1598.74,1346.95 1596.22,1344.01 1594.61,1340.55L1640.58,1340.55L1640.58,1269.78L1650.58,1269.78L1650.58,1340.55L1660.82,1340.55L1660.82,1269.78L1670.82,1269.78L1670.82,1340.55L1762.66,1340.55L1762.66,1269.78L1772.66,1269.78L1772.66,1340.55L1864.5,1340.55L1864.5,1269.78L1874.5,1269.78L1874.5,1340.55ZM1672.93,1576.05L1672.93,1641.94L1777.74,1641.94L1777.74,1576.05L1672.93,1576.05ZM1787.74,1576.05L1787.74,1641.94L1855.31,1641.94L1855.31,1576.05L1787.74,1576.05ZM1865.31,1576.05L1865.31,1641.94L1875.11,1641.94L1875.11,1576.05L1865.31,1576.05ZM1629.28,1500.47L1629.28,1566.05L1710.18,1566.05L1710.18,1500.47L1629.28,1500.47ZM1818.28,1500.47L1720.18,1500.47L1720.18,1566.05L1818.55,1566.05C1818.38,1565.54 1818.28,1564.99 1818.28,1564.42L1818.28,1500.47ZM1911.09,1500.47L1828.28,1500.47L1828.28,1564.42C1828.28,1564.99 1828.19,1565.54 1828.01,1566.05L1911.15,1566.05C1911.11,1565.78 1911.09,1565.5 1911.09,1565.22L1911.09,1500.47ZM1665.34,1425.31L1665.34,1490.47L1742.18,1490.47L1742.18,1425.31L1665.34,1425.31ZM1752.18,1425.31L1752.18,1490.47L1764,1490.47L1764,1425.31L1752.18,1425.31ZM1870.66,1425.31L1774,1425.31L1774,1490.47L1821.74,1490.47C1822.22,1490.31 1822.74,1490.23 1823.28,1490.23C1823.82,1490.23 1824.34,1490.31 1824.83,1490.47L1870.74,1490.47C1870.69,1490.2 1870.66,1489.92 1870.66,1489.63L1870.66,1425.31ZM1626.05,1350.55L1626.05,1415.31L1714.11,1415.31L1714.11,1350.55L1626.05,1350.55ZM1724.11,1350.55L1724.11,1415.31L1803.73,1415.31L1803.73,1350.55L1724.11,1350.55ZM1813.73,1350.55L1813.73,1415.31L1827.11,1415.31L1827.11,1350.55L1813.73,1350.55ZM1901.47,1350.55L1837.11,1350.55L1837.11,1415.31L1901.47,1415.31L1901.47,1415.3L1901.47,1350.55Z" style="fill:rgb(253,164,37);"/>
                    </g>
                </g>
                <g id="HUGE-COIN" serif:id="HUGE COIN">
                    <path d="M1948.46,1052.85L1948.46,1052.85L2044.79,1052.85C2210.52,1052.85 2345.08,1209.09 2345.08,1401.53C2345.08,1579.09 2230.71,1728.58 2082.82,1750.21C2070.42,1752.03 1949.11,1750.21 1949.11,1750.21C1783.38,1750.21 1648.82,1593.97 1648.82,1401.53C1648.82,1209.34 1783.03,1053.25 1948.46,1052.85Z" style="fill:rgb(253,164,37);"/>
                    <g transform="matrix(1.04383,0,0,1.06025,-98.5986,-105.457)">
                        <ellipse cx="1961.72" cy="1421.35" rx="287.675" ry="328.867" style="fill:rgb(255,205,128);"/>
                    </g>
                    <g>
                        <g transform="matrix(1.37478,-1.30485,1.3584,1.4312,-1517.55,1516.22)">
                            <g transform="matrix(0.750143,0.764404,-0.610086,0.598704,694.344,-893.916)">
                                <path d="M1813.36,1001.02L1808.35,1001.02L1808.35,991.66L1817.09,991.66C1819.16,991.66 1820.83,993.756 1820.83,996.34L1820.83,1012.17C1828.48,1012.6 1835.82,1014.14 1842.84,1016.78C1851.81,1020.15 1860.27,1025.32 1868.21,1032.28C1869.11,1033.06 1869.68,1034.3 1869.79,1035.66C1869.89,1037.02 1869.52,1038.37 1868.76,1039.36L1851.92,1061.3C1850.65,1062.95 1848.62,1063.21 1847.11,1061.91C1839.28,1055.18 1830.52,1051.08 1820.83,1049.6L1820.83,1102.35C1856.92,1111.93 1874.26,1133.58 1873.77,1165.98C1873.56,1183.58 1868.33,1198.16 1858.14,1209.67C1848.83,1220.57 1836.41,1227.59 1820.83,1230.58L1820.83,1257.78C1820.83,1260.36 1819.16,1262.45 1817.09,1262.45L1808.51,1262.45L1808.51,1253.1L1813.36,1253.1L1813.36,1226.49C1813.36,1224.12 1814.77,1222.13 1816.65,1221.85C1831.98,1219.53 1844.13,1213.26 1853.09,1202.78C1861.73,1193.02 1866.12,1180.7 1866.3,1165.82C1866.74,1136.67 1849.77,1118.79 1816.39,1110.78C1814.63,1110.35 1813.36,1108.42 1813.36,1106.18L1813.36,1044.46C1813.36,1043.17 1813.79,1041.94 1814.54,1041.05C1815.29,1040.17 1816.3,1039.71 1817.33,1039.8C1828.9,1040.71 1839.35,1044.79 1848.67,1052.02L1860.27,1036.91C1854.07,1032.05 1847.55,1028.32 1840.69,1025.75C1833.2,1022.93 1825.33,1021.49 1817.06,1021.4C1815.01,1021.38 1813.36,1019.29 1813.36,1016.72L1813.36,1001.02ZM1820.83,1192.73C1826.26,1190.67 1830.23,1187.77 1832.62,1183.82C1834.11,1181.27 1835.2,1178.4 1835.89,1175.22L1843.1,1177.71C1842.15,1182.01 1840.66,1185.89 1838.61,1189.41C1834.69,1195.88 1827.84,1200.68 1817.87,1203.33C1816.77,1203.62 1815.62,1203.28 1814.74,1202.39C1813.87,1201.5 1813.36,1200.16 1813.36,1198.75L1813.36,1165.67L1820.83,1165.67L1820.83,1192.73ZM1779.95,1060.38C1781.26,1056.15 1782.97,1052.63 1785.04,1049.8C1785.09,1049.73 1785.15,1049.66 1785.2,1049.59C1789.87,1043.94 1795.42,1040.68 1801.83,1039.81C1802.88,1039.67 1803.94,1040.1 1804.73,1040.98C1805.52,1041.87 1805.97,1043.14 1805.97,1044.46L1805.97,1071.55L1798.5,1071.55L1798.5,1050.19C1795.52,1051.37 1792.85,1053.38 1790.48,1056.22C1789.01,1058.26 1787.83,1060.81 1786.89,1063.84C1786.87,1063.92 1786.84,1064 1786.81,1064.08C1785.68,1067.22 1785.16,1071.03 1785.16,1075.46L1777.69,1075.46C1777.69,1069.59 1778.47,1064.57 1779.95,1060.38Z" style="fill:rgb(253,163,31);"/>
                            </g>
                            <g transform="matrix(0.750143,0.764404,-0.610086,0.598704,694.344,-893.916)">
                                <path d="M1783.26,1095.07C1779.58,1089.81 1777.69,1083.29 1777.69,1075.46L1785.16,1075.46C1785.16,1080.83 1786.37,1085.33 1788.9,1088.93L1788.99,1089.06C1790.97,1092.1 1794.16,1094.5 1798.5,1096.46L1798.5,1071.55L1805.97,1071.55L1805.97,1102.78C1805.97,1104.23 1805.43,1105.6 1804.51,1106.49C1803.6,1107.37 1802.4,1107.68 1801.28,1107.31C1792.62,1104.45 1786.67,1100.24 1783.26,1095.07Z" style="fill:rgb(253,163,31);"/>
                            </g>
                            <g transform="matrix(0.750143,0.764404,-0.610086,0.598704,694.344,-893.916)">
                                <path d="M1820.83,1143.28L1820.83,1165.67L1813.36,1165.67L1813.36,1137.6C1813.36,1136.23 1813.84,1134.93 1814.67,1134.04C1815.51,1133.15 1816.61,1132.76 1817.69,1132.98C1828.12,1135.11 1835.08,1139.32 1838.8,1144.95L1838.88,1145.09C1842.5,1151.01 1844.33,1157.85 1844.33,1165.63C1844.33,1169.98 1843.91,1174.01 1843.1,1177.71L1835.89,1175.22C1836.54,1172.28 1836.86,1169.08 1836.86,1165.63C1836.86,1160.04 1835.58,1155.12 1833,1150.86C1830.66,1147.36 1826.57,1144.94 1820.83,1143.28Z" style="fill:rgb(253,163,31);"/>
                            </g>
                            <g transform="matrix(0.750143,0.764404,-0.610086,0.598704,694.344,-893.916)">
                                <path d="M1798.5,1137.85C1763.8,1128.18 1747.32,1107.1 1748.11,1075.93C1748.41,1057.14 1753.22,1042.45 1762.31,1031.75C1770.63,1021.96 1782.66,1015.49 1798.5,1012.61L1798.5,996.34C1798.5,993.756 1800.17,991.66 1802.23,991.66L1808.35,991.66L1808.35,1001.02L1805.97,1001.02L1805.97,1016.72C1805.97,1019.1 1804.55,1021.1 1802.66,1021.37C1787.11,1023.64 1775.33,1029.26 1767.42,1038.57C1759.72,1047.64 1755.84,1060.19 1755.58,1076.18C1754.87,1104.1 1771.01,1121.4 1802.97,1129.48C1804.71,1129.92 1805.97,1131.84 1805.97,1134.06L1805.97,1198.75C1805.97,1200.07 1805.52,1201.32 1804.75,1202.21C1803.97,1203.1 1802.93,1203.53 1801.88,1203.41C1792.53,1202.31 1784.61,1199.69 1778.13,1195.62C1772.43,1192.42 1767.33,1188.45 1762.82,1183.7L1748.51,1198.8C1755.42,1204.94 1763.08,1210.12 1771.46,1214.35C1781.24,1219.15 1791.51,1221.63 1802.28,1221.81C1804.33,1221.85 1805.97,1223.93 1805.97,1226.49L1805.97,1253.1L1808.51,1253.1L1808.51,1262.45L1802.23,1262.45C1800.17,1262.45 1798.5,1260.36 1798.5,1257.78L1798.5,1231.02C1788.14,1230.38 1778.22,1227.72 1768.71,1223.05C1758.08,1217.69 1748.59,1210.91 1740.2,1202.72C1739.32,1201.86 1738.79,1200.53 1738.77,1199.12C1738.74,1197.71 1739.23,1196.36 1740.09,1195.45L1760.48,1173.94C1761.92,1172.41 1764.06,1172.48 1765.44,1174.11C1769.95,1179.42 1775.23,1183.75 1781.25,1187.12L1781.41,1187.21C1786.21,1190.24 1791.91,1192.32 1798.5,1193.49L1798.5,1137.85Z" style="fill:rgb(253,163,31);"/>
                            </g>
                        </g>
                        <g transform="matrix(0.787034,0,0,0.876066,390.738,156.771)">
                            <path d="M1961.72,1101.61C2115.62,1101.61 2239.23,1245.4 2239.23,1421.35C2239.23,1597.29 2115.62,1741.08 1961.72,1741.08C1956.11,1741.08 1951.55,1745.17 1951.55,1750.21C1951.55,1755.25 1956.11,1759.35 1961.72,1759.35C2125.36,1759.35 2259.55,1608.42 2259.55,1421.35C2259.55,1234.27 2125.36,1083.35 1961.72,1083.35C1956.11,1083.35 1951.55,1087.44 1951.55,1092.48C1951.55,1097.52 1956.11,1101.61 1961.72,1101.61Z" style="fill:rgb(253,164,37);"/>
                        </g>
                        <g transform="matrix(0.787034,0,0,0.876066,390.738,156.771)">
                            <path d="M1961.72,1741.08C1807.81,1741.08 1684.21,1597.29 1684.21,1421.35C1684.21,1245.4 1807.81,1101.61 1961.72,1101.61C1967.33,1101.61 1971.88,1097.52 1971.88,1092.48C1971.88,1087.44 1967.33,1083.35 1961.72,1083.35C1798.08,1083.35 1663.88,1234.27 1663.88,1421.35C1663.88,1608.42 1798.08,1759.35 1961.72,1759.35C1967.33,1759.35 1971.88,1755.25 1971.88,1750.21C1971.88,1745.17 1967.33,1741.08 1961.72,1741.08Z" style="fill:rgb(253,164,37);"/>
                        </g>
                    </g>
                    <path d="M2168.94,1721.6L2054.36,1721.6C2049.95,1721.6 2046.36,1718.01 2046.36,1713.6C2046.36,1709.18 2049.95,1705.6 2054.36,1705.6L2191.99,1705.6C2192.92,1705.6 2193.81,1705.76 2194.64,1706.05C2186.32,1711.7 2177.75,1716.89 2168.94,1721.6ZM2299.66,1586.89C2296.76,1592.32 2293.75,1597.66 2290.61,1602.89L2180.58,1602.89C2176.16,1602.89 2172.58,1599.31 2172.58,1594.89C2172.58,1590.47 2176.16,1586.89 2180.58,1586.89L2299.66,1586.89ZM2321.37,1538.05C2319.41,1543.46 2317.33,1548.79 2315.16,1554.05L2191.99,1554.05C2187.57,1554.05 2183.99,1550.47 2183.99,1546.05C2183.99,1541.64 2187.57,1538.05 2191.99,1538.05L2321.37,1538.05ZM2344.26,1375.66C2344.6,1380.97 2344.83,1386.3 2344.96,1391.66L2235.09,1391.66C2230.67,1391.66 2227.09,1388.08 2227.09,1383.66C2227.09,1379.25 2230.67,1375.66 2235.09,1375.66L2344.26,1375.66ZM2326.78,1281.48C2328.44,1286.76 2330.01,1292.1 2331.46,1297.48L2211.76,1297.48C2207.35,1297.48 2203.76,1293.9 2203.76,1289.48C2203.76,1285.07 2207.35,1281.48 2211.76,1281.48L2326.78,1281.48ZM2310.36,1238.73C2312.75,1243.99 2315.04,1249.32 2317.2,1254.73L2207.45,1254.73C2203.04,1254.73 2199.45,1251.15 2199.45,1246.73C2199.45,1242.32 2203.04,1238.73 2207.45,1238.73L2310.36,1238.73ZM2203.93,1105.86C2210.83,1110.88 2217.54,1116.21 2224.06,1121.86L2097.46,1121.86C2093.05,1121.86 2089.46,1118.27 2089.46,1113.86C2089.46,1109.44 2093.05,1105.86 2097.46,1105.86L2203.93,1105.86Z" style="fill:rgb(255,205,128);"/>
                </g>
                <g id="BILLS">
                    <g transform="matrix(1.06613,-0.0623512,0.068859,1.1774,-173.372,-19.7288)">
                        <path d="M1708.71,510.82C1716.66,490.507 1739.33,432.441 1754.64,406.768L1830.47,449.386C1830.47,449.386 1789.6,557.982 1780.28,589.251L1690.46,564.814C1694.34,547.713 1700.71,531.256 1708.71,510.82Z" style="fill:rgb(130,181,178);"/>
                    </g>
                    <g transform="matrix(1.10834,0,0,1.15995,-234.76,-81.3255)">
                        <circle cx="1770.83" cy="476.611" r="26.204" style="fill:rgb(168,207,204);fill-opacity:0.63;"/>
                    </g>
                    <path d="M1707.24,508.895C1711.97,495.71 1738.36,427.321 1754.64,406.768L1830.47,449.386C1830.47,449.386 1789.6,557.982 1780.28,589.251L1690.46,564.814C1694.34,547.713 1699.84,529.516 1707.24,508.895Z" style="fill:rgb(168,207,204);"/>
                    <g transform="matrix(1.10834,0,0,1.15995,-202.961,-50.224)">
                        <circle cx="1770.83" cy="476.611" r="26.204" style="fill:rgb(130,181,178);"/>
                    </g>
                </g>
                <g id="ORANGE-CHARACTER" serif:id="ORANGE CHARACTER">
                    <g transform="matrix(1.07753,0,0,1.07753,-207.58,-7.55855)">
                        <circle cx="1999.85" cy="425.164" r="59.449" style="fill:rgb(232,97,53);"/>
                    </g>
                    <path d="M1904.71,402.756C1916.04,392.655 1930.97,386.512 1947.32,386.512C1982.68,386.512 2011.38,415.216 2011.38,450.57C2011.38,462.7 2008,474.048 2002.14,483.719C1954.57,462.348 1961.54,410.787 1961.54,410.787C1935.39,419.33 1915.86,410.678 1904.71,402.756Z"/>
                    <g>
                        <g>
                            <path d="M1672.82,1264.73C1672.82,1264.73 1654.09,1228.49 1672.82,1201.34L1639.57,1142.92C1639.57,1142.92 1623.41,1132.57 1605.06,1120.81C1563.57,1094.22 1539.77,1047.23 1542.88,998.059C1543.12,994.312 1543.55,990.876 1544.2,987.871C1525.12,969.869 1509.36,929.463 1515.16,890.802C1515.16,890.801 1515.16,890.801 1515.16,890.801C1523.23,836.954 1567.96,796.151 1622.32,793.054C1709.8,788.092 1859.93,784.701 1952.23,811.17L1931.47,759.488C1931.47,759.488 1783.77,812.303 1746.36,691.018C1661.57,725.256 1567.15,750.284 1473.79,763.827C1434.76,769.507 1396.25,750.584 1376.9,716.213C1376.86,716.237 1376.86,716.237 1376.86,716.237C1360.49,687.165 1365.72,650.72 1389.6,627.42C1413.61,604.255 1454.56,574.289 1524.49,539.813C1524.49,539.813 1594.54,502.771 1635.56,481.08C1653.89,471.39 1675.62,470.546 1694.64,478.787C1735.05,496.289 1801.81,525.212 1801.81,525.212L1809.61,505.525C1855.97,513.245 1901.52,527.289 1946.18,544.669C1993.61,563.186 2030.36,601.808 2046.49,650.091C2086.21,768.991 2161.21,997.282 2171.05,1054.47L2199.17,1054.47C2214.97,1054.47 2228.66,1065.43 2232.11,1080.85C2234.8,1092.9 2237.4,1104.53 2237.4,1104.53C2237.4,1104.53 2255.31,1124.56 2260.55,1142.92C2262.68,1150.4 2250.75,1159.12 2237.4,1145.11C2233.45,1140.96 2195.09,1110.69 2177.86,1108.8C2164.68,1107.35 2153.02,1105.84 2142.15,1104.51C2108.78,1100.42 2079.16,1081.16 2061.87,1052.31C2050.31,1033.03 2039.68,1015.29 2039.68,1015.29C2039.68,1015.29 2003.64,1073.09 1904.71,1062.66L1920.08,1262.46C1920.08,1262.46 1900.34,1257.79 1893.74,1225.53C1893.74,1225.53 1782.25,1210.68 1718.75,1183.79C1718.75,1183.79 1693.7,1208.66 1672.82,1264.73Z" style="fill:url(#_Linear3);"/>
                            <path d="M2170.53,1051.61C2170.72,1052.61 2170.89,1053.56 2171.05,1054.47L2184.36,1054.47C2190.8,1058.99 2200.59,1066.09 2211.2,1074.55L2214.61,1070.71C2216.08,1069.06 2218.61,1068.91 2220.26,1070.38C2221.91,1071.84 2222.06,1074.37 2220.59,1076.02L2217.42,1079.59C2223.44,1084.56 2229.56,1089.88 2235.35,1095.34L2237.4,1104.53L2172.23,1055.83C2170.8,1054.89 2170.17,1053.18 2170.53,1051.61Z" style="fill:rgb(215,68,30);"/>
                            <path d="M1790.2,1206.05L1845.59,1048.79C1846.51,1046.18 1849.37,1044.81 1851.97,1045.73C1854.57,1046.65 1855.94,1049.5 1855.03,1052.11L1799.99,1208.35C1796.74,1207.61 1793.48,1206.84 1790.2,1206.05ZM1639.57,1142.92C1639.57,1142.92 1661.01,1154.45 1679.46,1163.99C1702.84,1176.1 1727.33,1187.42 1718.75,1183.79C1718.75,1183.79 1716.36,1186.17 1712.44,1191.1C1691.41,1181.68 1667.2,1168.98 1648.64,1158.86L1639.57,1142.92ZM1536.57,979.236C1552.62,902.251 1612.62,858.51 1682.42,834.18C1781.08,799.788 1899.21,804.449 1936.16,806.99C1941.59,808.268 1949.48,809.96 1954.56,811.412C1954.85,812.131 1957.08,813.511 1957,814.332C1956.71,817.077 1960.52,819.087 1957.77,818.804C1957.77,818.804 1804.35,809.11 1685.71,843.623C1612.05,865.049 1561.13,918.428 1544.2,987.871C1541.58,985.396 1539.02,982.497 1536.57,979.236Z" style="fill:rgb(215,68,30);"/>
                            <path d="M1905.6,1072.55C1887.17,1069.72 1863.79,1062.05 1839.13,1052.02C1766.87,1022.66 1683.22,973.523 1683.22,973.523C1680.84,972.125 1680.05,969.058 1681.44,966.679C1682.84,964.3 1685.91,963.503 1688.29,964.901C1688.29,964.901 1771.23,1013.64 1842.89,1042.76C1868.75,1053.27 1906.95,1062.89 1904.71,1062.66L1905.6,1072.55Z" style="fill:rgb(138,34,8);"/>
                        </g>
                        <g>
                            <path d="M1946.53,796.963L1931.47,759.488C1931.47,759.488 1783.77,812.303 1746.36,691.018C1661.57,725.256 1567.15,750.284 1473.79,763.827C1434.76,769.507 1396.25,750.584 1376.9,716.213C1376.86,716.237 1376.86,716.237 1376.86,716.237C1360.49,687.165 1365.72,650.72 1389.6,627.42C1413.61,604.255 1454.56,574.289 1524.49,539.813C1524.49,539.813 1594.54,502.771 1635.56,481.08C1653.89,471.39 1675.62,470.546 1694.64,478.787C1735.05,496.289 1801.81,525.212 1801.81,525.212L1809.61,505.525C1855.97,513.245 1901.52,527.289 1946.18,544.669C1993.61,563.186 2030.36,601.808 2046.49,650.091C2070.35,721.502 2106.93,832.373 2134.47,921.929L2019.35,957.035C1994.38,904.668 1969.06,852.727 1946.93,797.029L1946.53,796.963Z" style="fill:rgb(215,68,30);"/>
                            <path d="M1910.05,765.358C1906.39,747.074 1905.53,727.884 1905.87,708.308C1905.88,707.231 1906.66,706.316 1907.72,706.118C1908.78,705.919 1909.83,706.491 1910.24,707.487C1920,731.278 1943.9,789.504 1943.9,789.504L1943.53,789.504L1931.47,759.488C1931.47,759.488 1923.18,762.45 1910.05,765.358ZM1593.55,647.052L1470.66,716.279C1468.25,717.633 1467.4,720.685 1468.75,723.089C1470.11,725.493 1473.16,726.346 1475.57,724.991L1598.46,655.765C1600.87,654.411 1601.72,651.359 1600.36,648.955C1599.01,646.55 1595.96,645.698 1593.55,647.052ZM1720.48,701.071C1725.13,667.438 1736.19,643.854 1743.89,630.844C1744.38,630.126 1745.33,629.879 1746.12,630.264C1746.9,630.648 1747.29,631.548 1747.02,632.381C1739.07,660.96 1745.9,689.2 1746.34,690.934L1746.36,691.018C1737.83,694.463 1729.2,697.814 1720.48,701.071Z" style="fill:rgb(138,34,8);"/>
                        </g>
                        <g>
                            <path d="M1529.86,536.974L1635.56,481.08C1653.89,471.39 1675.62,470.546 1694.64,478.787L1798.9,523.953C1799.6,524.419 1800.24,524.839 1800.81,525.212C1818.19,536.601 1804.46,547.861 1799.6,546.254C1811.47,551.895 1811.07,561.269 1808.27,565.331C1803.66,572.032 1787.16,569.587 1787.16,569.587C1791.75,571.224 1795.96,580.181 1792.4,586.825C1786.68,597.506 1771.03,591.017 1771.03,591.017C1773.87,605.912 1758.47,605.961 1739.68,601.982C1725.13,598.901 1718.46,595.641 1706.08,592.553C1686.07,645.911 1626.32,639.748 1626.32,639.748L1586.95,662.068L1529.86,536.974Z" style="fill:url(#_Linear4);"/>
                            <path d="M1771.09,591.327L1704.18,565.354C1702.12,564.555 1701.1,562.235 1701.9,560.177C1702.7,558.119 1705.02,557.097 1707.08,557.896L1789.88,590.04C1783.06,596.004 1771.03,591.017 1771.03,591.017C1771.05,591.122 1771.07,591.225 1771.09,591.327ZM1788.17,570.07L1712.1,540.538C1710.04,539.739 1709.02,537.42 1709.82,535.362C1710.62,533.304 1712.94,532.282 1715,533.08L1802.19,566.93C1802.99,567.24 1803.63,567.779 1804.07,568.444C1797.47,571.115 1787.16,569.587 1787.16,569.587C1787.5,569.709 1787.84,569.871 1788.17,570.07ZM1800.41,546.4L1721.22,515.657C1719.16,514.858 1718.13,512.538 1718.93,510.48C1719.73,508.422 1722.05,507.4 1724.11,508.199L1808.39,540.918C1806.64,544.366 1802.87,546.546 1800.41,546.4Z" style="fill:rgb(215,68,30);"/>
                        </g>
                    </g>
                </g>
                <g id="LITTLE-COIN-PILE" serif:id="LITTLE COIN PILE" transform="matrix(1.02468,0,0,1.04589,-619.157,-10.1002)">
                    <g transform="matrix(0.975914,0,0,0.956125,604.244,9.65706)">
                        <path d="M1560.63,1697.5C1554.97,1693.69 1551.23,1687.22 1551.23,1679.89L1551.23,1637.48C1551.23,1625.78 1560.73,1616.28 1572.44,1616.28L1894.45,1616.28C1906.15,1616.28 1915.65,1625.78 1915.65,1637.48L1915.65,1679.89C1915.65,1687.22 1911.92,1693.69 1906.25,1697.5C1911.92,1701.31 1915.65,1707.78 1915.65,1715.11L1915.65,1757.52C1915.65,1769.23 1906.15,1778.73 1894.45,1778.73L1572.44,1778.73C1560.73,1778.73 1551.23,1769.23 1551.23,1757.52L1551.23,1715.11C1551.23,1707.78 1554.97,1701.31 1560.63,1697.5Z" style="fill:rgb(255,219,163);"/>
                    </g>
                    <g transform="matrix(0.975914,0,0,0.956125,604.244,9.65706)">
                        <path d="M1819.41,1688.91L1913.64,1688.91C1912,1692.4 1909.43,1695.37 1906.25,1697.5C1906.9,1697.94 1907.52,1698.41 1908.12,1698.91L1877.59,1698.91L1877.59,1778.73L1867.59,1778.73L1867.59,1698.91L1784,1698.91L1784,1778.73L1774,1778.73L1774,1698.91L1761.24,1698.91L1761.24,1778.73L1751.24,1778.73L1751.24,1698.91L1622.12,1698.91L1622.12,1778.73L1612.12,1778.73L1612.12,1698.91L1558.77,1698.91C1559.36,1698.41 1559.98,1697.94 1560.63,1697.5C1557.46,1695.37 1554.89,1692.4 1553.25,1688.91L1670.3,1688.91L1670.3,1616.28L1680.3,1616.28L1680.3,1688.91L1693.06,1688.91L1693.06,1616.28L1703.06,1616.28L1703.06,1688.91L1809.41,1688.91L1809.41,1616.28L1819.41,1616.28L1819.41,1688.91Z" style="fill:rgb(253,164,37);"/>
                    </g>
                </g>
            </g>
        </g>
    </g>
    <defs>
        <linearGradient id="_Linear1" x1="0" y1="0" x2="1" y2="0" gradientUnits="userSpaceOnUse" gradientTransform="matrix(-2.02902,571.586,-571.586,-2.02902,981.472,1358.01)"><stop offset="0" style="stop-color:rgb(168,207,204);stop-opacity:1"/><stop offset="1" style="stop-color:rgb(89,160,155);stop-opacity:1"/></linearGradient>
        <linearGradient id="_Linear2" x1="0" y1="0" x2="1" y2="0" gradientUnits="userSpaceOnUse" gradientTransform="matrix(26.4119,507.442,-507.442,26.4119,1046.99,910.084)"><stop offset="0" style="stop-color:rgb(130,181,178);stop-opacity:1"/><stop offset="0.45" style="stop-color:rgb(167,198,193);stop-opacity:1"/><stop offset="1" style="stop-color:rgb(255,240,230);stop-opacity:1"/></linearGradient>
        <linearGradient id="_Linear3" x1="0" y1="0" x2="1" y2="0" gradientUnits="userSpaceOnUse" gradientTransform="matrix(-564.09,-499.852,499.852,-564.09,1983.66,1013.95)"><stop offset="0" style="stop-color:rgb(232,97,53);stop-opacity:1"/><stop offset="0.48" style="stop-color:rgb(238,115,79);stop-opacity:1"/><stop offset="1" style="stop-color:rgb(255,163,150);stop-opacity:1"/></linearGradient>
        <linearGradient id="_Linear4" x1="0" y1="0" x2="1" y2="0" gradientUnits="userSpaceOnUse" gradientTransform="matrix(40.4682,-265.707,265.707,40.4682,1669.92,584.193)"><stop offset="0" style="stop-color:rgb(232,97,53);stop-opacity:1"/><stop offset="1" style="stop-color:rgb(255,163,150);stop-opacity:1"/></linearGradient>
    </defs>
</svg>
