<?xml version="1.0" encoding="UTF-8" standalone="no"?>
<!DOCTYPE svg PUBLIC "-//W3C//DTD SVG 1.1//EN" "http://www.w3.org/Graphics/SVG/1.1/DTD/svg11.dtd">
<svg width="100%" height="100%" viewBox="0 0 2732 2048" version="1.1" xmlns="http://www.w3.org/2000/svg" xmlns:xlink="http://www.w3.org/1999/xlink" xml:space="preserve" xmlns:serif="http://www.serif.com/" style="fill-rule:evenodd;clip-rule:evenodd;stroke-linejoin:round;stroke-miterlimit:2;">
    <g transform="matrix(1,0,0,1,38.2908,2.29616)">
        <g id="_5---RECRUITING" serif:id="5 - RECRUITING">
            <g id="CV-3" serif:id="CV 3" transform="matrix(1,0,0,1,1162,54.025)">
                <rect x="475.631" y="335.141" width="638.256" height="861.353" style="fill:rgb(255,213,147);"/>
                <g transform="matrix(1,0,0,1,-11.3624,-30.0351)">
                    <circle cx="945.873" cy="530.917" r="121.215" style="fill:white;"/>
                </g>
                <g transform="matrix(1,0,0,1,-1162,-54.025)">
                    <g transform="matrix(1,0,0,1,-12.6053,7.13756)">
                        <circle cx="2109.59" cy="529.157" r="42.214" style="fill:rgb(181,214,212);"/>
                    </g>
                    <path d="M1992.82,617.676C2025.23,597.349 2097.45,568.385 2194.87,625.725C2172.85,656.241 2136.99,676.122 2096.51,676.122C2052.58,676.122 2014.07,652.698 1992.82,617.676Z" style="fill:rgb(181,214,212);"/>
                    <path d="M2099.23,494.14C2120.22,495.244 2137.16,511.705 2139.03,532.481C2103.09,526.067 2099.32,502.972 2099.23,494.14ZM2054.97,532.175C2057.04,510.805 2075.08,494.081 2096.98,494.081C2097.63,494.081 2098.27,494.095 2098.91,494.124C2094.1,520.154 2068.19,529.216 2054.97,532.175Z"/>
                </g>
                <path d="M743.075,539.37L526.517,539.37L526.517,570.651L743.075,570.651L743.075,539.37ZM724.968,473.463L526.517,473.463L526.517,504.744L724.968,504.744L724.968,473.463ZM767.811,407.82L526.517,407.82L526.517,439.102L767.811,439.102L767.811,407.82Z" style="fill:rgb(253,165,39);"/>
                <g transform="matrix(1,0,0,1,-1.9963,10.9896)">
                    <path d="M935.279,850.268L614.731,850.268L614.731,876.241L935.279,876.241L935.279,850.268ZM877.949,798.332L614.731,798.332L614.731,824.305L877.949,824.305L877.949,798.332ZM935.279,744.292L614.731,744.292L614.731,770.265L935.279,770.265L935.279,744.292Z" style="fill:rgb(253,165,39);"/>
                </g>
                <g transform="matrix(1,0,0,1,-1.9963,176.085)">
                    <rect x="614.731" y="744.292" width="320.548" height="25.973" style="fill:rgb(253,165,39);"/>
                </g>
                <g transform="matrix(1,0,0,1,11.7857,79.1797)">
                    <path d="M935.279,1055.76L614.731,1055.76L614.731,1081.73L935.279,1081.73L935.279,1055.76ZM864.023,1001.72L614.731,1001.72L614.731,1027.69L864.023,1027.69L864.023,1001.72Z" style="fill:rgb(253,165,39);"/>
                </g>
                <g transform="matrix(1,0,0,1,-1.73665,18.7302)">
                    <rect x="527.374" y="638.53" width="501.388" height="46.728" style="fill:rgb(253,165,39);"/>
                </g>
                <g transform="matrix(1,0,0,1,9.2772,366.053)">
                    <rect x="527.374" y="638.53" width="501.388" height="46.728" style="fill:rgb(253,165,39);"/>
                </g>
            </g>
            <g id="CV-2" serif:id="CV 2" transform="matrix(1,0,0,1,574.423,27.4685)">
                <rect x="475.631" y="335.141" width="638.256" height="861.353" style="fill:rgb(181,214,212);"/>
                <g>
                    <g transform="matrix(1,0,0,1,-11.3624,-30.0351)">
                        <circle cx="945.873" cy="530.917" r="121.215" style="fill:white;"/>
                    </g>
                    <g transform="matrix(1,0,0,1,-574.423,-27.4685)">
                        <path d="M1409.61,597.82C1439.47,576.392 1522.12,530.099 1609.06,596.65C1587.23,628.585 1550.51,649.565 1508.93,649.565C1467.87,649.565 1431.55,629.102 1409.61,597.82Z" style="fill:rgb(236,121,84);"/>
                    </g>
                    <g transform="matrix(1,0,0,1,-574.423,-27.4685)">
                        <g transform="matrix(1,0,0,1,-17.9076,3.84698)">
                            <circle cx="1530.44" cy="492.277" r="42.858" style="fill:rgb(236,121,84);"/>
                        </g>
                        <g transform="matrix(0.727416,0,0,0.727416,472.793,145.748)">
                            <circle cx="1530.44" cy="492.277" r="42.858"/>
                        </g>
                        <path d="M1469.7,497.67C1469.69,497.158 1469.68,496.642 1469.68,496.124C1469.68,472.469 1488.88,453.265 1512.54,453.265C1536.19,453.265 1555.39,472.469 1555.39,496.124C1555.39,497.526 1555.33,498.913 1555.19,500.281C1523.11,496.005 1514.27,467.773 1514.27,467.773C1503.82,492.816 1483,497.477 1469.7,497.67Z"/>
                    </g>
                </g>
                <path d="M732.659,539.37L526.517,539.37L526.517,570.651L732.659,570.651L732.659,539.37ZM767.811,473.463L526.517,473.463L526.517,504.744L767.811,504.744L767.811,473.463ZM717.23,407.82L526.517,407.82L526.517,439.102L717.23,439.102L717.23,407.82Z" style="fill:rgb(149,192,190);"/>
                <path d="M935.279,850.268L614.731,850.268L614.731,876.241L935.279,876.241L935.279,850.268ZM935.279,798.332L614.731,798.332L614.731,824.305L935.279,824.305L935.279,798.332ZM935.279,744.292L614.731,744.292L614.731,770.265L935.279,770.265L935.279,744.292Z" style="fill:rgb(149,192,190);"/>
                <path d="M935.279,1107.69L614.731,1107.69L614.731,1133.66L935.279,1133.66L935.279,1107.69ZM935.279,1055.76L614.731,1055.76L614.731,1081.73L935.279,1081.73L935.279,1055.76ZM935.279,1001.72L614.731,1001.72L614.731,1027.69L935.279,1027.69L935.279,1001.72Z" style="fill:rgb(149,192,190);"/>
                <g transform="matrix(1,0,0,1,-1.73665,18.7302)">
                    <rect x="527.374" y="638.53" width="501.388" height="46.728" style="fill:rgb(149,192,190);"/>
                </g>
                <g transform="matrix(1,0,0,1,-1.73665,281.384)">
                    <rect x="527.374" y="638.53" width="501.388" height="46.728" style="fill:rgb(149,192,190);"/>
                </g>
            </g>
            <g id="CV-1" serif:id="CV 1">
                <rect x="475.631" y="335.141" width="638.256" height="861.353" style="fill:rgb(255,243,228);"/>
                <g>
                    <g transform="matrix(1,0,0,1,-11.3624,-30.0351)">
                        <circle cx="945.873" cy="530.917" r="121.215" style="fill:white;"/>
                    </g>
                    <g>
                        <path d="M829.155,560.831C851.386,532.855 890.329,514.289 934.616,514.289C978.821,514.289 1017.7,532.785 1039.95,560.676C1019.1,597.342 979.675,622.097 934.51,622.097C889.413,622.097 850.034,597.415 829.155,560.831Z" style="fill:rgb(253,165,39);"/>
                        <path d="M918.822,515.086C923.995,514.56 929.267,514.289 934.616,514.289C941.994,514.289 949.224,514.804 956.258,515.794C955.058,522.792 950.356,527.753 944.968,529.986L958.899,619.637C951.016,621.25 942.861,622.097 934.51,622.097C927.29,622.097 920.216,621.464 913.337,620.25L931.579,530.054C922.654,526.933 919.746,519.135 918.822,515.086Z"/>
                        <g transform="matrix(1,0,0,1,-12.9367,3.8683)">
                            <circle cx="946.913" cy="453.988" r="42.265" style="fill:rgb(253,165,39);"/>
                        </g>
                        <path d="M891.712,457.722C891.784,434.458 910.694,415.591 933.977,415.591C957.303,415.591 976.242,434.529 976.242,457.856C976.242,459.685 976.125,461.487 975.9,463.252C947.801,460.202 935.951,430.581 935.951,430.581C925.819,452.132 903.558,456.807 891.712,457.722Z"/>
                    </g>
                </g>
                <g>
                    <path d="M680.88,539.37L526.517,539.37L526.517,570.651L680.88,570.651L680.88,539.37ZM767.811,473.463L526.517,473.463L526.517,504.744L767.811,504.744L767.811,473.463ZM767.811,407.82L526.517,407.82L526.517,439.102L767.811,439.102L767.811,407.82Z" style="fill:rgb(255,177,166);"/>
                    <path d="M935.279,850.268L614.731,850.268L614.731,876.241L935.279,876.241L935.279,850.268ZM935.279,798.332L614.731,798.332L614.731,824.305L935.279,824.305L935.279,798.332ZM935.279,744.292L614.731,744.292L614.731,770.265L935.279,770.265L935.279,744.292Z" style="fill:rgb(255,177,166);"/>
                    <path d="M935.279,1107.69L614.731,1107.69L614.731,1133.66L935.279,1133.66L935.279,1107.69ZM935.279,1055.76L614.731,1055.76L614.731,1081.73L935.279,1081.73L935.279,1055.76ZM935.279,1001.72L614.731,1001.72L614.731,1027.69L935.279,1027.69L935.279,1001.72Z" style="fill:rgb(255,177,166);"/>
                    <g transform="matrix(1,0,0,1,-1.73665,18.7302)">
                        <rect x="527.374" y="638.53" width="501.388" height="46.728" style="fill:rgb(255,177,166);"/>
                    </g>
                    <g transform="matrix(1,0,0,1,-1.73665,281.384)">
                        <rect x="527.374" y="638.53" width="501.388" height="46.728" style="fill:rgb(255,177,166);"/>
                    </g>
                </g>
            </g>
            <g id="PORTRAIT-IN-MAGNIFYING-GLASS" serif:id="PORTRAIT IN MAGNIFYING GLASS" transform="matrix(0.895096,-0.133784,0.207021,1.3851,217.581,-1.96196)">
                <g transform="matrix(1,0,0,1,-11.3624,-30.0351)">
                    <circle cx="945.873" cy="530.917" r="121.215" style="fill:white;"/>
                </g>
                <g transform="matrix(1.49308,-5.55112e-17,0.0629105,1.06433,-487.198,-32.5753)">
                    <g transform="matrix(0.727721,0.0991705,-0.137349,0.663512,166.406,10.3306)">
                        <path d="M1063.59,637.511C1088.68,610.744 1124.33,591.485 1166.1,585.243C1202.52,579.8 1238.18,585.065 1268.95,598.441C1266.17,670.119 1232.13,727.314 1182.84,734.681C1135.51,741.756 1088.18,700.768 1063.59,637.511Z" style="fill:rgb(253,165,39);"/>
                    </g>
                    <g transform="matrix(0.727721,0.0991705,-0.137349,0.663512,166.406,10.3306)">
                        <path d="M1166.93,735.283L1166.4,608.958C1153.61,606.166 1147.56,595.317 1145.21,589.566C1151.98,587.762 1158.94,586.312 1166.1,585.243C1175.95,583.77 1185.76,583.081 1195.43,583.126C1195.77,593.624 1190.86,601.834 1184.27,606.184L1221.52,716.533C1210.17,726.207 1197.15,732.543 1182.84,734.681C1177.53,735.476 1172.21,735.664 1166.93,735.283Z"/>
                    </g>
                    <g transform="matrix(1,0,0,1,-12.9367,3.8683)">
                        <circle cx="946.913" cy="453.988" r="42.265" style="fill:rgb(253,165,39);"/>
                    </g>
                    <path d="M891.712,457.722C891.784,434.458 910.694,415.591 933.977,415.591C957.303,415.591 976.242,434.529 976.242,457.856C976.242,459.685 976.125,461.487 975.9,463.252C947.801,460.202 935.951,430.581 935.951,430.581C925.819,452.132 903.558,456.807 891.712,457.722Z"/>
                </g>
            </g>
            <g id="MAGNIFYING-GLASS" serif:id="MAGNIFYING GLASS">
                <g transform="matrix(0.999924,0.0123565,-0.0123565,0.999924,14.8793,-12.3759)">
                    <path d="M1171,738.003L1199.57,919.454C1200.56,925.771 1206.5,930.091 1212.81,929.097C1219.13,928.103 1223.45,922.167 1222.45,915.851L1193.89,734.399C1192.89,728.083 1186.96,723.762 1180.64,724.756C1174.33,725.751 1170.01,731.686 1171,738.003Z" style="fill:rgb(221,97,64);"/>
                </g>
                <path d="M1182.2,778.196L1176.67,740.04C1175.76,733.712 1180.15,727.83 1186.48,726.914C1192.81,725.998 1198.69,730.391 1199.6,736.72L1203.77,765.522C1195.72,772.568 1188.5,776.401 1182.2,778.196Z"/>
                <g transform="matrix(1.0705,-0.146146,0.13923,1.01985,-73.2621,237.694)">
                    <path d="M1089.13,633.625C1069.61,633.625 1051.74,622.956 1037.1,605.515C1013.27,577.115 998.099,531.172 998.099,479.507C998.099,427.842 1013.27,381.9 1037.1,353.5C1051.74,336.059 1069.61,325.39 1089.13,325.39C1095.05,325.39 1099.86,320.347 1099.86,314.135C1099.86,307.923 1095.05,302.879 1089.13,302.879C1063.73,302.879 1040.05,315.922 1021.01,338.62C994.315,370.426 976.653,421.646 976.653,479.507C976.653,537.369 994.315,588.589 1021.01,620.395C1040.05,643.093 1063.73,656.136 1089.13,656.136C1095.05,656.136 1099.86,651.092 1099.86,644.88C1099.86,638.668 1095.05,633.625 1089.13,633.625Z" style="fill:rgb(221,97,64);"/>
                </g>
                <g transform="matrix(1.0705,-0.146146,0.13923,1.01985,-73.2621,237.694)">
                    <path d="M1089.13,325.39C1108.66,325.39 1126.53,336.059 1141.17,353.5C1165,381.9 1180.17,427.842 1180.17,479.507C1180.17,531.172 1165,577.115 1141.17,605.515C1126.53,622.956 1108.66,633.625 1089.13,633.625C1083.21,633.625 1078.41,638.668 1078.41,644.88C1078.41,651.092 1083.21,656.136 1089.13,656.136C1114.54,656.136 1138.21,643.093 1157.26,620.395C1183.95,588.589 1201.61,537.369 1201.61,479.507C1201.61,421.646 1183.95,370.426 1157.26,338.62C1138.21,315.922 1114.54,302.879 1089.13,302.879C1083.21,302.879 1078.41,307.923 1078.41,314.135C1078.41,320.347 1083.21,325.39 1089.13,325.39Z" style="fill:rgb(221,97,64);"/>
                </g>
            </g>
            <g id="CHARACTER">
                <g>
                    <path d="M1313.18,1229.33C1313.18,1229.33 1127.33,1582.87 1086.92,1671.07C1086.92,1671.07 1041.73,1675.82 1021.22,1704.71L1332.73,1704.71L1407.93,1573.72C1407.93,1573.72 1463.68,1647.19 1513.95,1671.07C1513.95,1671.07 1484.86,1688.22 1481.2,1704.71L1767.41,1704.71L1563.12,1385.92C1563.12,1385.92 1709.56,1111.31 1563.12,1031.59C1521.86,1009.13 1420.48,1013.47 1313.18,1229.33Z" style="fill:url(#_Linear1);"/>
                    <path d="M1388.22,1108.46L1334.49,1230.64C1294.52,1321.54 1304.77,1426.7 1361.54,1508.18L1361.83,1508.59L1583.77,1418.14L1588.15,1424.99L1366.52,1515.32C1390.92,1550.26 1413.51,1581.47 1425.26,1594.72C1425.47,1594.95 1425.65,1595.2 1425.81,1595.46C1414.77,1582.73 1407.93,1573.72 1407.93,1573.72L1402.77,1582.7C1389.4,1565.14 1371.69,1540.28 1353.33,1513.89C1336.91,1490.32 1324.25,1464.83 1315.43,1438.28L1208.57,1429.93L1210.36,1426.48L1212.57,1422.22L1312.83,1430.06C1292.97,1363.84 1296.72,1291.7 1325.34,1226.62L1360.8,1145.97C1370.06,1132.07 1379.21,1119.61 1388.22,1108.46ZM1566.39,1391.03L1566.35,1391.12C1566.35,1391.12 1548.87,1363.44 1538.65,1347.26C1537.62,1345.64 1537.76,1343.55 1538.98,1342.07C1540.2,1340.59 1542.23,1340.07 1544.01,1340.77L1578.32,1354.18C1569.52,1373.91 1563.12,1385.92 1563.12,1385.92L1566.39,1391.03Z" style="fill:rgb(244,147,135);"/>
                </g>
                <g>
                    <g>
                        <path d="M1838.2,530.263C1849.8,520.142 1866.38,501.56 1869.67,491.879C1874.46,477.802 1864.42,475.883 1859.03,480.091C1836.6,497.607 1805.91,511.147 1805.91,511.147C1748.2,536.266 1605.78,690.905 1605.78,690.905C1522.08,772.675 1389.74,778.385 1353.03,778.318C1340.46,778.261 1328.03,781.025 1316.67,786.407C1277.7,804.947 1254.12,843.833 1254.12,843.833C1254.12,843.833 1239.25,827.9 1226.23,820.659C1220.8,817.659 1214.05,818.602 1209.65,822.973C1209.65,822.972 1209.65,822.973 1209.65,822.973C1209.65,822.973 1209.65,822.973 1209.65,822.973C1197.1,820.636 1184.69,827.65 1180.22,839.604C1179.22,842.298 1178.39,844.768 1177.98,846.658C1177.98,846.658 1166.32,851.333 1165.72,863.955C1165.72,863.955 1151.98,869.663 1151.92,883.082C1151.92,883.082 1131.51,904.093 1151.92,924.612C1151.92,924.612 1165.83,932.787 1169.2,914.884C1169.2,914.884 1174.2,1077.37 1176.65,1157C1177.5,1184.35 1189.89,1210.06 1210.77,1227.75C1210.77,1227.75 1210.77,1227.75 1210.77,1227.75C1236.49,1249.55 1273.47,1251.87 1301.72,1233.46C1303.61,1232.23 1305.43,1231.05 1307.16,1229.92C1319.7,1221.75 1330.47,1211.13 1338.81,1198.69C1352.62,1178.07 1370.3,1144.14 1371.98,1103.58L1371.98,1019.28C1371.98,1019.28 1437.26,1045.35 1483.43,945.859C1483.43,945.859 1514.35,951.066 1556.29,940.924C1581.38,934.857 1610.42,923.296 1639.15,901.839C1659.23,886.881 1676.54,868.514 1690.28,847.573C1717.14,806.673 1786.38,701.116 1805.91,670.749C1805.91,670.749 1829.71,635.864 1850.14,618.284C1850.14,618.284 1870.09,637.506 1886.47,596.99C1886.47,596.99 1894.34,577.881 1872.73,569.117C1872.73,569.117 1874.32,547.767 1853.82,547.479C1855.86,532.895 1848.69,529.591 1838.2,530.263Z" style="fill:rgb(255,204,197);"/>
                        <g>
                            <path d="M1675.5,618.994C1696.25,631.288 1736.23,659.2 1779.25,711.78C1750.37,756.014 1709.49,818.325 1690.28,847.573C1676.54,868.514 1659.23,886.881 1639.15,901.839C1610.42,923.296 1581.38,934.857 1556.29,940.924C1514.35,951.066 1483.43,945.859 1483.43,945.859C1437.26,1045.35 1371.98,1019.28 1371.98,1019.28L1371.98,1103.58C1370.3,1144.14 1352.62,1178.07 1338.81,1198.69C1330.47,1211.13 1319.7,1221.75 1307.16,1229.92C1305.43,1231.05 1303.61,1232.23 1301.72,1233.46C1273.47,1251.87 1236.49,1249.55 1210.77,1227.75C1210.77,1227.75 1210.77,1227.75 1210.77,1227.75C1189.89,1210.06 1177.5,1184.35 1176.65,1157L1171.62,993.571L1239.83,993.571C1238.56,976.261 1239.62,886.157 1246.76,863.138C1249.55,854.127 1252.34,847.471 1255.38,841.867C1260.74,833.741 1282.94,802.453 1316.67,786.407C1328.03,781.025 1340.46,778.261 1353.03,778.318C1389.74,778.385 1522.08,772.675 1605.78,690.905C1605.78,690.905 1636.67,657.368 1675.5,618.994Z" style="fill:rgb(244,147,135);"/>
                            <path d="M1239.65,990.232L1239.9,990.232L1239.9,1148.93C1239.9,1150.1 1238.99,1151.06 1237.82,1151.11C1236.66,1151.16 1235.66,1150.29 1235.56,1149.13L1221.56,993.571L1239.83,993.571C1239.76,992.655 1239.7,991.536 1239.65,990.232ZM1371.98,1024.03L1366.14,898.442C1366.11,897.674 1366.64,896.996 1367.4,896.854C1368.15,896.713 1368.9,897.151 1369.14,897.881C1375.14,917.428 1387.45,962.093 1395.39,1022.26C1381.3,1023 1371.98,1019.28 1371.98,1019.28L1371.98,1024.03ZM1481.52,949.877C1485.86,938.597 1500.69,892.051 1473.02,841.629C1472.4,840.51 1472.71,839.106 1473.74,838.35C1474.77,837.593 1476.2,837.721 1477.09,838.648C1490.29,852.623 1511.24,883.293 1526.39,946.06C1500.46,948.728 1483.43,945.859 1483.43,945.859C1482.8,947.222 1482.16,948.562 1481.52,949.877Z" style="fill:rgb(180,67,53);"/>
                        </g>
                        <path d="M1170.18,910.537C1169.55,914.346 1168.25,918.567 1168.25,918.567L1156.32,912.176C1154.36,911.164 1153.59,908.749 1154.6,906.787C1155.62,904.825 1158.03,904.055 1159.99,905.067L1170.18,910.537ZM1155,872.922C1156.4,872.596 1157.95,872.411 1159.65,872.45C1167.27,872.626 1178.73,877.546 1192.4,898.608C1193.61,900.46 1193.08,902.939 1191.23,904.141C1189.38,905.343 1186.9,904.816 1185.69,902.964C1174.42,885.595 1165.75,880.593 1159.46,880.448C1154.59,880.335 1151.86,883.478 1151.86,883.478L1151.92,883.082C1151.94,879.001 1153.22,875.634 1155,872.922ZM1168.43,854.975C1169.96,854.781 1171.7,854.749 1173.65,854.988C1180.82,855.868 1191.63,860.691 1205.34,877.67C1206.73,879.388 1206.46,881.909 1204.74,883.295C1203.02,884.682 1200.5,884.413 1199.12,882.696C1176.91,855.196 1165.72,863.955 1165.72,863.955C1165.89,860.334 1166.97,857.367 1168.43,854.975ZM1181.06,837.604C1182.73,837.393 1184.62,837.312 1186.71,837.466C1194.43,838.032 1205.27,841.821 1217.23,855.519C1218.68,857.181 1218.51,859.71 1216.85,861.163C1215.19,862.615 1212.66,862.444 1211.21,860.781C1194.73,841.916 1181.48,845.228 1177.99,846.576C1178.42,844.697 1179.23,842.259 1180.22,839.604C1180.47,838.922 1180.76,838.255 1181.06,837.604ZM1217.39,819.076C1222.86,822.661 1230.38,828.916 1237.21,839.166C1238.43,841.004 1237.93,843.489 1236.1,844.713C1234.26,845.937 1231.77,845.439 1230.55,843.601C1220.95,829.187 1208.89,822.831 1209.65,822.973L1209.65,822.973C1211.81,820.828 1214.53,819.509 1217.39,819.076ZM1850.14,618.284C1847.91,620.204 1869.23,596.369 1869.23,596.369C1873.41,592.903 1878.13,597.818 1875.12,601.784L1856.54,621.989C1852.61,620.67 1850.14,618.284 1850.14,618.284ZM1871.96,561.5C1872.99,565.655 1872.73,569.117 1872.73,569.117C1873.19,569.302 1864.89,570.571 1860.48,572.898C1852.23,577.251 1845.47,583.937 1845.47,583.937C1843.9,585.489 1841.36,585.474 1839.81,583.903C1838.26,582.333 1838.28,579.798 1839.85,578.246C1839.85,578.246 1847.46,570.723 1856.75,565.823C1861.62,563.251 1866.94,561.485 1871.96,561.5ZM1853.83,539.099C1854.27,541.336 1854.29,544.076 1853.83,547.406C1848.88,548.954 1839.32,553.118 1827.13,564.108C1825.49,565.587 1822.96,565.456 1821.48,563.816C1820,562.176 1820.13,559.645 1821.77,558.167C1836.83,544.59 1848.54,540.384 1853.83,539.099ZM1848.06,520.831C1844.65,524.351 1841.26,527.6 1838.2,530.263C1838.67,530.233 1818.68,537.795 1808.11,544.618C1806.25,545.815 1803.78,545.281 1802.58,543.426C1801.38,541.571 1801.91,539.094 1803.77,537.896C1818.92,528.121 1834.85,521.618 1848.06,520.831Z" style="fill:rgb(244,147,135);"/>
                    </g>
                    <g>
                        <g transform="matrix(1,0,0,1,1.57461,-15.9236)">
                            <circle cx="1353.19" cy="694.982" r="57.767" style="fill:rgb(255,204,197);"/>
                        </g>
                        <path d="M1367.56,622.717C1393.3,628.55 1412.53,651.575 1412.53,679.058C1412.53,710.94 1386.64,736.825 1354.76,736.825C1353.83,736.825 1352.89,736.802 1351.97,736.758C1342.63,715.702 1356.94,707.11 1360.78,705.244C1363.14,707.222 1366.19,708.414 1369.52,708.414C1377.01,708.414 1383.09,702.391 1383.09,694.972C1383.09,687.554 1377.01,681.531 1369.52,681.531C1366.51,681.531 1363.72,682.51 1361.46,684.165C1339.86,654.727 1357.78,631.924 1367.56,622.717Z"/>
                        <path d="M1425.38,687.74C1424.78,687.574 1429.25,685.201 1430.4,684.442C1433.58,682.348 1436.71,680.125 1439.66,677.714C1448.58,670.404 1454.21,661.615 1460.4,652.061C1481.42,619.611 1515.25,586.804 1556.03,585.2C1628.16,582.362 1668.14,664.013 1657.64,726.667C1649.68,774.19 1599.29,799.083 1554.24,792.445C1527.48,788.5 1501.65,773.091 1483.69,753.068C1473.14,741.304 1465.18,727.507 1456.49,714.38C1448.67,702.55 1440.43,689.446 1425.38,687.74Z"/>
                    </g>
                </g>
            </g>
        </g>
    </g>
    <defs>
        <linearGradient id="_Linear1" x1="0" y1="0" x2="1" y2="0" gradientUnits="userSpaceOnUse" gradientTransform="matrix(-34.0199,741.321,-741.321,-34.0199,1358.95,1270.18)"><stop offset="0" style="stop-color:rgb(255,204,197);stop-opacity:1"/><stop offset="1" style="stop-color:rgb(244,147,135);stop-opacity:1"/></linearGradient>
    </defs>
</svg>
