<?xml version="1.0" encoding="UTF-8" standalone="no"?>
<!DOCTYPE svg PUBLIC "-//W3C//DTD SVG 1.1//EN" "http://www.w3.org/Graphics/SVG/1.1/DTD/svg11.dtd">
<svg width="100%" height="100%" viewBox="0 0 2732 2048" version="1.1" xmlns="http://www.w3.org/2000/svg" xmlns:xlink="http://www.w3.org/1999/xlink" xml:space="preserve" xmlns:serif="http://www.serif.com/" style="fill-rule:evenodd;clip-rule:evenodd;stroke-linejoin:round;stroke-miterlimit:2;">
    <g transform="matrix(1,0,0,1,38.2908,2.29616)">
        <g id="_3--LOOKING-FOR-A-JOB" serif:id="3- LOOKING FOR A JOB">
            <g id="TABLE">
                <g>
                    <path d="M1505.13,1689.52L1505.13,1037.18L1473,1037.18L1473,1689.52L1505.13,1689.52ZM2129.61,1689.52L2129.61,1037.18L2097.48,1037.18L2097.48,1689.52L2129.61,1689.52Z" style="fill:rgb(186,190,194);"/>
                    <path d="M1505.13,1093.48L1473,1094.17L1473,1037.18L1505.13,1037.18L1505.13,1093.48ZM2129.61,1039.27L2129.61,1080L2097.48,1080.69L2097.48,1039.16L2129.61,1039.27Z"/>
                </g>
                <g transform="matrix(1,0,0,0.75234,0,253.369)">
                    <rect x="1331.83" y="1023.05" width="941.599" height="32.787" style="fill:rgb(186,190,194);"/>
                </g>
            </g>
            <g id="MOUSE">
                <g>
                    <path d="M1345.07,1023.98C1356.65,975.252 1397,939.245 1444.94,939.245C1492.88,939.245 1533.23,975.252 1544.81,1023.98L1345.07,1023.98Z" style="fill:rgb(185,216,214);"/>
                    <path d="M1509.1,1023.98C1493.17,986.771 1468.07,979.205 1468.07,979.205C1465.95,978.592 1464.72,976.372 1465.33,974.251C1465.95,972.13 1468.17,970.906 1470.29,971.519C1470.29,971.519 1500.25,979.844 1517.77,1023.98L1509.1,1023.98Z" style="fill:rgb(130,181,178);"/>
                </g>
                <path d="M1542.17,1023.98C1545.14,1083.33 1552.21,1176.8 1569.61,1226.21C1573.44,1237.08 1577.71,1245.75 1582.66,1251.22C1586.7,1255.7 1591.14,1257.86 1596.21,1256.43C1601.1,1255.05 1606.15,1251.48 1610.87,1246.74C1610.65,1246.42 1610.44,1246.1 1610.23,1245.77C1604.05,1236.13 1600.78,1221 1601.05,1207.74C1601.19,1200.49 1602.4,1193.8 1604.63,1188.81C1606.61,1184.37 1609.44,1181.18 1612.9,1179.59C1616.5,1177.93 1620.9,1177.84 1626.1,1180.36C1638.89,1186.55 1641.67,1200.41 1637.8,1215.58C1635.05,1226.32 1629,1237.68 1621.61,1246.74C1622.76,1247.6 1624,1248.23 1625.34,1248.57C1628.64,1249.4 1632.37,1248.29 1636.63,1245.08C1640.16,1242.43 1643.14,1237.65 1645.85,1231.4C1650.32,1221.09 1653.82,1206.96 1656.61,1190.88C1667.68,1127.13 1667.37,1033.37 1667.84,1022.23C1667.93,1020.03 1669.8,1018.31 1672.01,1018.4C1674.21,1018.5 1675.93,1020.37 1675.83,1022.57C1675.36,1033.78 1675.63,1128.11 1664.49,1192.25C1661.57,1209.05 1657.86,1223.81 1653.19,1234.58C1649.81,1242.38 1645.84,1248.17 1641.44,1251.48C1634.69,1256.55 1628.61,1257.64 1623.39,1256.33C1620.84,1255.69 1618.44,1254.44 1616.25,1252.67C1610.51,1258.35 1604.29,1262.46 1598.39,1264.13C1590.37,1266.39 1583.11,1263.66 1576.72,1256.58C1571.23,1250.5 1566.32,1240.95 1562.06,1228.87C1544.43,1178.79 1537.17,1083.96 1534.16,1023.98L1542.17,1023.98ZM1616.37,1240.49C1622.61,1232.54 1627.69,1222.82 1630.04,1213.6C1632.87,1202.53 1631.95,1192.08 1622.62,1187.56C1620.09,1186.34 1617.99,1186.05 1616.24,1186.86C1614.36,1187.73 1613.02,1189.64 1611.93,1192.07C1610.07,1196.24 1609.17,1201.84 1609.05,1207.9C1608.82,1219.15 1611.33,1231.97 1616.37,1240.49ZM1539.64,1007.54C1540.73,1008.21 1541.49,1009.39 1541.55,1010.77L1541.65,1013C1541.02,1011.16 1540.35,1009.33 1539.64,1007.54Z" style="fill:rgb(130,181,178);"/>
            </g>
            <g id="BOX-2" serif:id="BOX 2">
                <g id="CLOCK">
                    <g transform="matrix(1,0,0,1,8.16549,9.66786)">
                        <ellipse cx="1812.14" cy="1316.14" rx="81.181" ry="105.537" style="fill:white;"/>
                    </g>
                    <g transform="matrix(0.858154,0,0,1,233.798,7.53205)">
                        <path d="M1849.37,1201.14L1849.37,1219.43C1799.19,1220.27 1759.9,1264.74 1759.9,1318.36C1759.9,1371.97 1799.19,1416.44 1849.37,1417.28L1849.37,1435.58C1788.75,1434.76 1738.58,1383.02 1738.58,1318.36C1738.58,1253.69 1788.75,1201.95 1849.37,1201.14Z"/>
                    </g>
                    <path d="M1820.84,1208.67L1822.13,1208.63C1874.72,1208.63 1918.49,1260.69 1918.49,1325.89C1918.49,1391.09 1874.72,1443.15 1822.13,1443.15L1820.84,1443.11L1820.84,1424.81L1822.13,1424.86C1865.81,1424.86 1900.19,1380.04 1900.19,1325.89C1900.19,1271.74 1865.81,1226.92 1822.13,1226.92L1820.84,1226.96L1820.84,1208.67Z"/>
                    <path d="M1822.94,1323.46C1827.54,1323.46 1831.28,1327.19 1831.28,1331.8C1831.28,1336.4 1827.54,1340.14 1822.94,1340.14C1818.33,1340.14 1814.59,1336.4 1814.59,1331.8C1814.59,1327.19 1818.33,1323.46 1822.94,1323.46ZM1837.27,1312.52L1865.35,1258.15C1866.36,1256.19 1865.59,1253.77 1863.63,1252.76C1861.66,1251.75 1859.25,1252.52 1858.24,1254.48L1830.16,1308.85C1829.14,1310.81 1829.91,1313.23 1831.88,1314.24C1833.84,1315.25 1836.25,1314.48 1837.27,1312.52ZM1800.04,1267.76L1810.72,1309.9C1811.26,1312.04 1813.43,1313.33 1815.58,1312.79C1817.72,1312.25 1819.01,1310.07 1818.47,1307.93L1807.8,1265.8C1807.26,1263.65 1805.08,1262.36 1802.94,1262.9C1800.8,1263.44 1799.5,1265.62 1800.04,1267.76Z"/>
                </g>
                <g id="GREEN-NOTEBOOK" serif:id="GREEN NOTEBOOK">
                    <g transform="matrix(1.01816,0.522775,-0.487759,0.949962,569.315,-1101.57)">
                        <rect x="2202.07" y="1225.17" width="108.151" height="152.567" style="fill:rgb(168,207,204);"/>
                    </g>
                    <path d="M2246.89,1395.9L2265.59,1405.49C2267.56,1406.5 2269.97,1405.72 2270.98,1403.76C2271.99,1401.79 2271.21,1399.38 2269.24,1398.37L2250.54,1388.78C2248.57,1387.78 2246.16,1388.55 2245.15,1390.52C2244.15,1392.48 2244.92,1394.9 2246.89,1395.9ZM2258.46,1373.33L2277.17,1382.91C2279.13,1383.92 2281.55,1383.14 2282.55,1381.18C2283.56,1379.22 2282.78,1376.8 2280.82,1375.8L2262.11,1366.21C2260.15,1365.2 2257.74,1365.98 2256.73,1367.94C2255.72,1369.9 2256.5,1372.32 2258.46,1373.33ZM2270.04,1350.75L2288.74,1360.34C2290.71,1361.34 2293.12,1360.57 2294.13,1358.6C2295.14,1356.64 2294.36,1354.23 2292.39,1353.22L2273.69,1343.63C2271.72,1342.62 2269.31,1343.4 2268.3,1345.36C2267.3,1347.33 2268.08,1349.74 2270.04,1350.75ZM2281.62,1328.17L2300.32,1337.76C2302.28,1338.77 2304.7,1337.99 2305.7,1336.02C2306.71,1334.06 2305.93,1331.65 2303.97,1330.64L2285.26,1321.05C2283.3,1320.04 2280.89,1320.82 2279.88,1322.78C2278.87,1324.75 2279.65,1327.16 2281.62,1328.17ZM2293.19,1305.59L2311.9,1315.18C2313.86,1316.19 2316.27,1315.41 2317.28,1313.44C2318.29,1311.48 2317.51,1309.07 2315.55,1308.06L2296.84,1298.47C2294.88,1297.46 2292.46,1298.24 2291.46,1300.2C2290.45,1302.17 2291.23,1304.58 2293.19,1305.59ZM2304.45,1283.62L2323.16,1293.21C2325.12,1294.22 2327.53,1293.44 2328.54,1291.48C2329.55,1289.52 2328.77,1287.1 2326.81,1286.1L2308.1,1276.51C2306.14,1275.5 2303.72,1276.28 2302.72,1278.24C2301.71,1280.2 2302.49,1282.62 2304.45,1283.62Z"/>
                </g>
                <g id="RED-NOTEBOOK" serif:id="RED NOTEBOOK" transform="matrix(0.614891,0.219434,-0.219434,0.614891,1349.32,-5.17069)">
                    <path d="M1523.43,1475.6L1788.81,1446.35L1788.81,1487.48L1523.43,1475.6Z" style="fill:white;"/>
                    <rect x="1515.69" y="1470.33" width="287.722" height="365.896" style="fill:rgb(242,127,113);"/>
                    <g transform="matrix(1.44259,-0.514811,0.514811,1.44259,-1943.85,702.105)">
                        <path d="M2123.96,1278.39L1961.37,1240.73C1959.22,1240.23 1957.88,1238.08 1958.37,1235.92C1958.87,1233.77 1961.02,1232.43 1963.17,1232.93L2130.07,1271.59C2131.17,1271.85 2132.11,1272.56 2132.66,1273.54C2133.21,1274.53 2133.32,1275.7 2132.95,1276.78L2123.85,1303.56C2123.14,1305.65 2120.87,1306.77 2118.78,1306.06C2116.69,1305.35 2115.57,1303.07 2116.28,1300.98L2123.96,1278.39Z" style="fill:rgb(242,127,113);"/>
                    </g>
                </g>
                <g id="DOCUMENT">
                    <rect x="2044.35" y="1303.32" width="222.201" height="265.57" style="fill:white;"/>
                    <path d="M2246.39,1538.67L2062.7,1538.67L2062.7,1550.55L2246.39,1550.55L2246.39,1538.67ZM2246.39,1516.9L2062.7,1516.9L2062.7,1528.78L2246.39,1528.78L2246.39,1516.9ZM2246.39,1495.13L2062.7,1495.13L2062.7,1507.01L2246.39,1507.01L2246.39,1495.13ZM2246.39,1473.36L2062.7,1473.36L2062.7,1485.24L2246.39,1485.24L2246.39,1473.36ZM2246.39,1451.59L2062.7,1451.59L2062.7,1463.47L2246.39,1463.47L2246.39,1451.59ZM2246.39,1429.82L2062.7,1429.82L2062.7,1441.7L2246.39,1441.7L2246.39,1429.82ZM2246.39,1408.05L2062.7,1408.05L2062.7,1419.93L2246.39,1419.93L2246.39,1408.05ZM2246.39,1386.28L2062.7,1386.28L2062.7,1398.16L2246.39,1398.16L2246.39,1386.28ZM2246.39,1364.51L2062.7,1364.51L2062.7,1376.39L2246.39,1376.39L2246.39,1364.51ZM2246.39,1342.74L2062.7,1342.74L2062.7,1354.62L2246.39,1354.62L2246.39,1342.74ZM2246.39,1320.94L2062.7,1320.94L2062.7,1332.82L2246.39,1332.82L2246.39,1320.94Z"/>
                    <path d="M2048.35,1564.89L2156.23,1564.89C2158.43,1564.89 2160.23,1566.68 2160.23,1568.89C2160.23,1571.1 2158.43,1572.89 2156.23,1572.89L2044.35,1572.89C2042.14,1572.89 2040.35,1571.1 2040.35,1568.89L2040.35,1303.32C2040.35,1301.11 2042.14,1299.32 2044.35,1299.32L2150.58,1299.32C2152.78,1299.32 2154.58,1301.11 2154.58,1303.32C2154.58,1305.53 2152.78,1307.32 2150.58,1307.32L2048.35,1307.32L2048.35,1564.89Z"/>
                    <path d="M2262.55,1307.32L2150.58,1307.32C2148.37,1307.32 2146.58,1305.53 2146.58,1303.32C2146.58,1301.11 2148.37,1299.32 2150.58,1299.32L2266.55,1299.32C2268.76,1299.32 2270.55,1301.11 2270.55,1303.32L2270.55,1568.89C2270.55,1571.1 2268.76,1572.89 2266.55,1572.89L2156.23,1572.89C2154.02,1572.89 2152.23,1571.1 2152.23,1568.89C2152.23,1566.68 2154.02,1564.89 2156.23,1564.89L2262.55,1564.89L2262.55,1307.32Z"/>
                </g>
                <g id="BOX">
                    <g transform="matrix(1.5832,0,0,1.3594,1025.61,-595.823)">
                        <rect x="433.755" y="1423.42" width="375.118" height="261.069" style="fill:rgb(255,215,152);"/>
                    </g>
                    <path d="M2076.37,1339.18L2076.37,1497.96L2057.65,1483.23L2040.11,1497.96L2022.31,1483.23L2005.31,1497.96L1989.68,1483.23L1973.3,1497.96L1973.3,1339.18L2076.37,1339.18Z" style="fill:rgb(248,187,97);"/>
                </g>
            </g>
            <g id="CHARACTER" transform="matrix(1,0,0,1,-1.77682,0.655371)">
                <g>
                    <g transform="matrix(1.03135,0,0,1.03135,-47.2873,-19.2041)">
                        <circle cx="807.732" cy="496.367" r="81.311" style="fill:rgb(255,195,187);"/>
                    </g>
                    <path d="M739.777,562.842C716.969,547.844 701.903,522.028 701.903,492.721C701.903,446.438 739.48,408.861 785.764,408.861C796.2,408.861 806.195,410.772 815.419,414.264L771.599,500.336C768.329,494.786 762.147,491.04 755.067,491.04C744.577,491.04 736.061,499.261 736.061,509.388C736.061,519.514 744.577,527.736 755.067,527.736C755.975,527.736 756.869,527.674 757.742,527.555L739.777,562.842Z"/>
                    <g transform="matrix(1.10226,-0.0372489,0.039552,1.17041,-98.7108,-52.9081)">
                        <path d="M769.656,427.125C769.656,427.125 757.934,453.779 757.934,465.203C757.934,471.295 763.187,476.242 769.656,476.242C776.126,476.242 781.378,471.295 781.378,465.203C781.378,453.779 769.656,427.125 769.656,427.125Z" style="fill:white;"/>
                    </g>
                </g>
                <g>
                    <path d="M762.983,1425.34C719.639,1429.16 666.07,1429.38 603.108,1421.31C560.334,1415.83 417.517,1370.95 453.59,1184.34C460.721,1147.45 496.614,1056.28 649.177,1048.35C693.703,1046.03 1004.85,1010.23 1129.5,1147.62C1131.94,1150.32 1135.09,1153.92 1138.63,1158.57C1180.96,1177.78 1303.35,1244.1 1298.68,1367.16C1298.68,1367.16 1289.01,1505 1110.13,1564.42C1096.91,1594.03 1081.39,1625.63 1063.26,1659.28C1063.26,1659.28 1104.02,1670.18 1114.35,1693.09L799.837,1693.09L818.664,1633.5L799.101,1638.12C798.915,1658.84 779.525,1679.52 762.983,1694.44L762.983,1425.34Z" style="fill:url(#_Linear1);"/>
                    <path d="M804.56,1636.83L821.948,1416.67C822.122,1414.47 824.049,1412.83 826.25,1413C828.451,1413.17 830.097,1415.1 829.923,1417.3L812.738,1634.9L804.56,1636.83Z" style="fill:rgb(242,127,113);"/>
                    <path d="M857.386,1406.29L895.811,1398.85C895.811,1398.85 909.928,1353.29 919.614,1322.02C920.202,1320.12 919.292,1318.08 917.488,1317.25C915.684,1316.42 913.544,1317.06 912.487,1318.74C891.506,1352.08 857.386,1406.29 857.386,1406.29" style="fill:rgb(242,127,113);"/>
                    <path d="M762.983,1425.34C753.317,1426.19 840.624,1409.09 891.49,1393.8C894.671,1392.84 898.313,1392.3 898.313,1392.3C898.313,1392.3 896.885,1397.46 896.423,1398.87L835.128,1586.53L1101.7,1582.91C1100.45,1585.58 1099.19,1588.26 1097.91,1590.96L833.145,1594.56C832.932,1594.56 832.723,1594.54 832.519,1594.51L818.664,1633.5L810.758,1635.37L886.464,1403.6C846.485,1415.2 806.072,1425.3 762.983,1431.6L762.983,1425.34ZM1110.27,1564.37C1229.29,1311.58 1136.41,1155.65 1138.63,1158.57C1141.69,1159.96 1145.18,1161.6 1149.02,1163.49C1173.63,1211.39 1219.84,1345.4 1120.8,1560.71C1117.37,1561.96 1113.85,1563.18 1110.27,1564.37Z" style="fill:rgb(242,127,113);"/>
                </g>
                <g>
                    <path d="M690.311,598.089C875.342,600.063 1007.38,625.294 1161.72,637.827C1208.35,641.614 1315.19,668.352 1290.2,764.344C1290.2,764.344 1290.2,764.344 1290.2,764.344C1280.72,800.764 1247.7,826.082 1210.07,825.791C1144.87,825.287 1055.81,824.598 1055.81,824.598C1055.81,824.598 1126.45,884.694 1273.52,886.825C1273.52,886.825 1435.65,900.569 1450.85,901.184C1477.71,902.272 1493.78,902.688 1508.52,903.531C1511.69,903.719 1514.49,905.659 1515.78,908.559C1517.07,911.46 1516.64,914.838 1514.66,917.319C1511.6,921.127 1505.44,925.429 1493.87,929.783C1472.75,937.732 1456.22,938.422 1439.98,943.205C1441.2,940.49 1466.35,964.178 1481.08,979.385C1484.01,982.452 1485.06,986.857 1483.84,990.917C1482.61,994.976 1479.29,998.061 1475.15,998.991C1471.97,999.714 1468.13,999.873 1463.54,999.057C1472.28,1007.58 1462.07,1021.71 1434.57,1007.83C1427.35,1004.19 1424.86,1003.18 1406.29,991.703C1406.29,991.703 1412.22,1002.36 1415.7,1008.62C1416.62,1010.28 1416.82,1012.25 1416.23,1014.06C1415.65,1015.87 1414.34,1017.36 1412.62,1018.17C1408.8,1019.95 1402.77,1020.52 1393.81,1015.83C1380.19,1008.72 1370.93,1004.81 1362.43,1001.31C1354.59,998.084 1345.68,998.818 1338.48,1003.28C1308.79,1021.61 1216.07,1064.27 1040.49,1024.2C1040.49,1024.2 935.298,1010.29 797.751,921.297C794.092,906.802 623.11,1108.52 471.441,938.406C411.702,871.4 399.345,594.985 690.311,598.089Z" style="fill:rgb(255,195,187);"/>
                    <path d="M1406.52,992.104C1379.74,956.578 1360.85,955.773 1360.85,955.773C1358.65,955.738 1356.88,953.917 1356.92,951.71C1356.95,949.502 1358.77,947.739 1360.98,947.774C1360.98,947.774 1386.51,947.579 1420.01,997.264C1420.64,998.209 1420.82,999.33 1420.6,1000.36C1417.17,998.358 1412.68,995.649 1406.29,991.703L1406.52,992.104ZM1463.54,999.057C1463.84,999.352 1426.91,967.176 1422.27,962.126C1406.47,944.914 1394.91,936.86 1387.25,933.166C1381.52,930.4 1377.9,930.345 1377.76,930.344C1377.81,930.339 1377.86,930.332 1377.9,930.324L1377.76,930.344L1377.76,930.344C1375.64,930.619 1373.66,929.158 1373.31,927.026C1372.95,924.848 1374.43,922.789 1376.61,922.43C1376.61,922.43 1393.44,918.911 1428.17,956.714C1433.33,962.337 1458.57,986.247 1476.06,998.749C1475.76,998.841 1475.46,998.922 1475.15,998.991C1471.97,999.714 1468.13,999.873 1463.54,999.057ZM1389.31,896.472C1396.65,897.071 1403.73,897.643 1410.32,898.171C1416,902.232 1421.82,907.71 1427.09,915.097C1430.76,920.242 1437.93,930.689 1450.74,940.531C1447.46,941.231 1444.22,941.994 1441,942.909C1430.32,933.666 1424.01,924.551 1420.58,919.742C1410.27,905.288 1397.61,899.1 1389.31,896.472Z" style="fill:rgb(242,127,113);"/>
                </g>
                <g>
                    <path d="M1006.27,1016.82C964.475,1005.81 888.092,979.749 797.751,921.297C796.094,909.042 620.574,1114.58 471.441,938.406C412.614,868.912 399.345,594.985 690.311,598.089C875.342,600.063 1007.38,625.294 1161.72,637.827C1208.35,641.614 1315.19,668.352 1290.2,764.344C1290.2,764.344 1290.2,764.344 1290.2,764.344C1280.72,800.764 1247.7,826.082 1210.07,825.791C1144.87,825.287 1055.81,824.598 1055.81,824.598C1055.81,824.598 1106.13,867.407 1210.24,882.043L1186.88,1040.71C1160.56,1041.27 1130.76,1039.65 1097.31,1034.83C1069.76,1029.36 1038.17,1023.1 1006.27,1016.82Z" style="fill:url(#_Linear2);"/>
                    <g transform="matrix(1,0,0,1,-36.5139,-2.95153)">
                        <path d="M806.802,943.981C784.134,916.83 772.318,886.818 767.015,870.204C766.623,868.812 767.242,867.333 768.508,866.635C769.774,865.937 771.355,866.203 772.322,867.277C797.487,894.463 828.697,919.785 833.603,923.72C831.084,923.881 821.582,932.334 806.802,943.981ZM1092.46,827.662L1092.47,827.673L1092.51,827.705L1092.58,827.763L1092.62,827.794L1092.65,827.825L1092.7,827.865L1092.78,827.925L1092.85,827.982L1092.91,828.034L1092.96,828.076L1093.03,828.132L1093.15,828.224L1093.24,828.3L1093.29,828.337L1093.35,828.381L1093.53,828.522L1093.65,828.62L1093.68,828.646L1093.72,828.673L1094.02,828.91L1094.13,828.993L1094.14,829.001C1094.3,829.125 1094.47,829.256 1094.65,829.394L1094.69,829.418L1094.86,829.549L1095.17,829.786L1095.24,829.836C1095.4,829.958 1095.58,830.085 1095.75,830.216L1095.78,830.233L1095.81,830.259C1096.22,830.559 1096.66,830.882 1097.13,831.225L1097.22,831.285L1097.42,831.433L1097.53,831.508L1097.56,831.533L1097.65,831.597L1097.83,831.721L1097.92,831.789L1097.98,831.831L1098.11,831.92L1098.25,832.024L1098.33,832.078L1098.41,832.137L1098.58,832.254L1098.7,832.337L1098.75,832.375L1098.86,832.449L1099.07,832.598L1099.16,832.66L1099.19,832.68L1099.3,832.759L1099.58,832.952L1099.64,832.993C1052.72,803.524 968.86,741.102 913.614,698.23C911.434,696.538 911.037,693.394 912.729,691.214C914.421,689.034 917.564,688.638 919.745,690.33C976.878,734.667 1064.79,800.11 1110.03,827.687L1092.32,827.55L1092.43,827.645L1092.46,827.662ZM1117.36,676.836L1255.09,680.745C1257.84,680.823 1260.15,678.647 1260.23,675.889C1260.3,673.13 1258.13,670.827 1255.37,670.749L1117.64,666.84C1114.88,666.761 1112.58,668.937 1112.5,671.696C1112.42,674.454 1114.6,676.757 1117.36,676.836Z" style="fill:rgb(172,35,16);"/>
                    </g>
                </g>
                <path d="M941.703,689.147C921.565,643.001 826.991,603.796 826.991,603.796L865.346,606.896C907.997,626.276 939.48,659.967 951.863,674.653C956.584,675.286 968.331,677.077 968.523,679.243C968.764,681.955 970.401,727.491 970.401,727.491C970.251,727.565 970.102,727.638 969.954,727.709L971.276,727.795C994.903,771.523 986.306,833.506 1020.03,870.759C1030.71,882.554 1044.68,893.639 1059.96,898.715C1077.71,904.61 1096.14,904.34 1114.56,903.258C1119.43,902.972 1131.26,902.11 1137.21,901.671C1139.42,901.51 1141.55,902.496 1142.86,904.282C1147.96,911.243 1161.01,929.067 1167.36,937.73C1169.42,940.539 1169.14,944.426 1166.7,946.911C1157.95,955.818 1138.13,975.999 1131.39,982.849C1129.93,984.337 1127.84,985.02 1125.78,984.679C1121.88,984.079 1115.67,983.07 1113.34,982.398C1099.79,978.485 1086.43,973.897 1073.4,968.496C1036.12,953.052 996.704,928.707 980.471,890.221C970.988,867.74 969.553,843.746 969.657,819.677C969.748,798.459 972.229,776.132 967.8,755.187C966.078,747.041 962.25,739.412 958.474,732.056C958.387,731.886 958.038,731.32 957.597,730.581C939.819,729.943 931.605,707.242 931.605,707.242L941.703,689.147Z"/>
                <g>
                    <path d="M1121.36,824.816L1085.25,664.122C1085.25,664.122 1050.95,662.081 1030.59,658.412C1030.59,658.412 980.646,642.171 945.586,653.726C939.885,655.605 922.281,665.238 910.291,688.382C905.284,698.044 921.787,704.318 940.815,688.382C944.705,685.124 952.176,681.345 959.948,680.696C959.948,680.696 935.671,699.692 959.948,715.633C959.948,715.633 954.967,732.551 976.008,736.075C976.008,736.075 972.878,761.369 1011.49,785.762C1022.55,792.754 1108.42,827.624 1121.36,824.816Z" style="fill:rgb(255,195,187);"/>
                    <path d="M969.156,734.133C972.364,724.879 979.425,719.35 986.236,716.115C994.112,712.373 1001.57,711.779 1001.57,711.779C1003.77,711.598 1005.7,713.237 1005.88,715.437C1006.06,717.638 1004.42,719.571 1002.22,719.752C1002.22,719.752 996.168,720.369 989.669,723.341C979.535,727.975 976.008,736.075 976.008,736.075C973.321,735.625 971.058,734.957 969.156,734.133ZM954.159,710.898C958.506,703.35 965.261,698.47 972.104,695.373C983.325,690.293 994.668,690.079 994.668,690.079C996.875,690.035 998.703,691.791 998.747,693.998C998.791,696.206 997.035,698.033 994.828,698.078C994.828,698.078 985.066,698.286 975.403,702.661C969.262,705.44 959.948,715.633 959.948,715.633C957.579,714.077 955.672,712.492 954.159,710.898ZM946.191,684.865C946.263,684.187 946.509,683.518 946.941,682.929C959.347,665.978 986.565,664.884 986.565,664.884C988.772,664.813 990.622,666.545 990.694,668.752C990.766,670.958 989.033,672.808 986.826,672.88C986.826,672.88 978.395,673.169 969.348,676.53C964.184,678.449 959.948,680.696 959.948,680.696C954.947,681.113 950.07,682.827 946.191,684.865Z" style="fill:rgb(242,127,113);"/>
                </g>
                <path d="M696.955,598.089C696.955,598.089 736.546,600.413 793.315,633.527C810.982,643.832 854.179,672.492 906.616,688.586C926.532,694.698 936.191,690.164 942.914,692.181L935.433,710.014C935.433,710.014 901.945,706.54 889.345,701.991C889.345,701.991 730.89,602.24 696.955,598.089Z"/>
            </g>
            <g id="BOX-1" serif:id="BOX 1">
                <g transform="matrix(1,0,0,1.02563,38.9823,-33.5916)">
                    <rect x="433.755" y="1423.42" width="375.118" height="261.069" style="fill:rgb(255,215,152);"/>
                </g>
                <g transform="matrix(1,0,0,1,36.5953,0)">
                    <path d="M509.145,1694.08L501.145,1694.08L501.145,1426.31L509.145,1426.31L509.145,1694.08ZM684.783,1426.31L684.783,1565.16L661.636,1548.66L638.765,1565.16L638.765,1426.31L684.783,1426.31ZM487.476,1426.31L487.476,1519.06L469.153,1491.15L456.574,1502.95L456.574,1426.31L487.476,1426.31Z" style="fill:rgb(248,187,97);"/>
                </g>
            </g>
            <g id="COMPUTER">
                <path d="M1820.89,887.624L1562.06,887.624L1562.06,469.489L2190.41,469.489L2190.41,887.624L1918.43,887.624L1918.43,995.29L1953.61,995.29L1953.61,1023.96L1786,1023.96L1786,995.29L1820.89,995.29L1820.89,887.624Z" style="fill:rgb(163,168,174);"/>
                <path d="M2173.83,469.489L2173.83,887.624L1901.85,887.624L1901.85,995.29L1937.03,995.29L1937.03,1023.96L1786,1023.96L1786,995.29L1820.89,995.29L1820.89,887.624L1562.06,887.624L1562.06,469.489L2173.83,469.489Z" style="fill:rgb(228,228,230);"/>
                <g transform="matrix(0.877754,0,0,0.822814,222.265,115.164)">
                    <rect x="1562.06" y="469.489" width="628.343" height="418.135" style="fill:white;"/>
                </g>
                <path d="M1902,994.42L1915.54,994.42C1914.83,995.044 1913.9,995.423 1912.89,995.423L1821.04,994.42L1821.04,987.423L1902,987.423L1902,994.42ZM1902,895.687L1821.04,895.687L1821.04,887.687L1902,887.687L1902,895.687Z" style="fill:rgb(163,168,174);"/>
            </g>
            <g id="CV">
                <rect x="1664.46" y="344.224" width="313.403" height="383.984" style="fill:rgb(255,243,235);"/>
                <g>
                    <g transform="matrix(1,0,0,1,11.2896,-16.1969)">
                        <circle cx="1888.99" cy="434.327" r="49.352" style="fill:rgb(242,127,113);"/>
                    </g>
                    <path d="M1860.47,447.295C1869.8,437.99 1883.11,432.162 1897.89,432.162C1914.08,432.162 1928.53,439.166 1937.88,450.079C1928.83,460.725 1915.33,467.482 1900.28,467.482C1883.94,467.482 1869.46,459.532 1860.47,447.295Z" style="fill:rgb(255,207,200);"/>
                    <g transform="matrix(1,0,0,1,-2.03427,2.40728)">
                        <circle cx="1901.22" cy="406.242" r="17.271" style="fill:rgb(255,207,200);"/>
                    </g>
                    <path d="M1881.92,408.757L1881.92,408.649C1881.92,399.117 1889.66,391.378 1899.19,391.378C1908.72,391.378 1916.46,399.117 1916.46,408.649L1916.46,408.744C1904.75,408.846 1899.19,396.663 1899.19,396.663C1896.09,406.666 1887.04,408.533 1881.92,408.757Z"/>
                </g>
                <path d="M1937.53,684.063L1721.73,684.063L1721.73,696.324L1937.53,696.324L1937.53,684.063ZM1937.53,658.109L1721.73,658.109L1721.73,670.37L1937.53,670.37L1937.53,658.109ZM1937.53,632.921L1721.73,632.921L1721.73,645.182L1937.53,645.182L1937.53,632.921ZM1929.03,598.634L1695.74,598.634L1695.74,618.549L1929.03,618.549L1929.03,598.634ZM1937.53,561.631L1721.73,561.631L1721.73,573.892L1937.53,573.892L1937.53,561.631ZM1937.53,535.677L1721.73,535.677L1721.73,547.938L1937.53,547.938L1937.53,535.677ZM1937.53,510.489L1721.73,510.489L1721.73,522.75L1937.53,522.75L1937.53,510.489ZM1861.05,466.942L1695.74,466.942L1695.74,486.857L1861.05,486.857L1861.05,466.942ZM1831.88,429.923L1701.3,429.923L1701.3,438.823L1831.88,438.823L1831.88,429.923ZM1798.39,412.354L1701.3,412.354L1701.3,421.255L1798.39,421.255L1798.39,412.354ZM1824.27,393.513L1701.3,393.513L1701.3,402.413L1824.27,402.413L1824.27,393.513ZM1837.82,375.228L1701.3,375.228L1701.3,384.129L1837.82,384.129L1837.82,375.228Z" style="fill:rgb(242,127,113);"/>
            </g>
            <g id="MAIL">
                <rect x="1870.33" y="638.532" width="251.623" height="146.204" style="fill:rgb(168,207,204);"/>
                <path d="M2121.95,648.126L1998.38,731.524C1997.02,732.436 1995.25,732.436 1993.9,731.524L1870.33,648.157L1870.33,638.532L1870.36,638.532L1996.14,723.383L2121.87,638.532L2121.95,638.532L2121.95,648.126Z" style="fill:rgb(130,181,178);"/>
            </g>
            <g id="CURSER" transform="matrix(0.716073,-0.628566,0.835407,0.951711,-129.657,1093.26)">
                <path d="M1721.8,855.628L1721.8,833.286L1754.79,833.286L1754.79,812.54L1839.63,844.457L1754.79,876.374L1754.79,855.628L1721.8,855.628Z" style="fill:rgb(242,127,113);"/>
            </g>
        </g>
    </g>
    <defs>
        <linearGradient id="_Linear1" x1="0" y1="0" x2="1" y2="0" gradientUnits="userSpaceOnUse" gradientTransform="matrix(870.591,307.545,-307.545,870.591,838.421,1152.47)"><stop offset="0" style="stop-color:rgb(255,195,187);stop-opacity:1"/><stop offset="1" style="stop-color:rgb(242,127,113);stop-opacity:1"/></linearGradient>
        <linearGradient id="_Linear2" x1="0" y1="0" x2="1" y2="0" gradientUnits="userSpaceOnUse" gradientTransform="matrix(-510.056,299.233,-299.233,-510.056,697.861,653.191)"><stop offset="0" style="stop-color:rgb(242,127,113);stop-opacity:1"/><stop offset="0.58" style="stop-color:rgb(236,110,95);stop-opacity:1"/><stop offset="0.8" style="stop-color:rgb(224,75,57);stop-opacity:1"/><stop offset="1" style="stop-color:rgb(213,41,20);stop-opacity:1"/></linearGradient>
    </defs>
</svg>
